<?xml version="1.0" standalone="no"?>
<!DOCTYPE svg PUBLIC "-//W3C//DTD SVG 1.1//EN" "http://www.w3.org/Graphics/SVG/1.1/DTD/svg11.dtd" >
<svg xmlns="http://www.w3.org/2000/svg" xmlns:xlink="http://www.w3.org/1999/xlink" version="1.1">
<metadata></metadata>
<defs>
<font id="vida_21_proregular" horiz-adv-x="336" >
<font-face units-per-em="1000" ascent="800" descent="-200" />
<missing-glyph horiz-adv-x="229" />
<glyph unicode="&#x2e;&#x2e;&#x2e;" horiz-adv-x="970" d="M203 90q26 0 35 -9t9 -37q0 -31 -9.5 -41t-34.5 -10q-23 0 -32.5 10.5t-9.5 40.5q0 28 9 37t33 9zM483 90q26 0 35 -9t9 -37q0 -31 -9.5 -41t-34.5 -10q-23 0 -32.5 10.5t-9.5 40.5q0 28 9 37t33 9zM766 90q25 0 34 -9t9 -37q0 -31 -9 -41t-34 -10q-24 0 -33 10t-9 41 q0 28 9 37t33 9z" />
<glyph unicode="ff" horiz-adv-x="477" d="M131 505h161v47q0 170 121 170q37 0 77 -10q7 -4 4 -13l-13 -43q-2 -9 -8 -6q-34 12 -60 12q-38 0 -48.5 -19t-10.5 -91v-47h116q7 0 7 -9v-37q0 -9 -7 -9h-116v-441q0 -9 -7 -9h-47q-8 0 -8 9v441h-161v-441q0 -9 -7 -9h-48q-7 0 -7 9v441h-43q-7 0 -7 9v37q0 9 7 9h43 v47q0 89 33 129.5t87 40.5q38 0 78 -10q7 -4 4 -13l-14 -43q0 -9 -8 -6q-34 12 -60 12q-38 0 -48 -19t-10 -91v-47z" />
<glyph unicode="fi" horiz-adv-x="411" d="M349 496v-487q0 -9 -7 -9h-47q-8 0 -8 9v441h-156v-441q0 -9 -7 -9h-48q-7 0 -7 9v441h-43q-7 0 -7 9v37q0 9 7 9h43v47q0 91 41 130.5t119 39.5q83 0 126 -18q7 -4 4 -13l-13 -43q0 -9 -8 -6q-50 20 -109 20q-63 0 -80.5 -19.5t-17.5 -90.5v-47h211q7 0 7 -9z" />
<glyph unicode="fl" horiz-adv-x="417" d="M287 89v562q-32 11 -82 11q-48 0 -61 -19t-13 -91v-47h111q7 0 7 -9v-37q0 -9 -7 -9h-111v-441q0 -9 -7 -9h-48q-7 0 -7 9v441h-43q-7 0 -7 9v37q0 9 7 9h43v47q0 170 136 170q58 0 137 -18q7 -2 7 -9v-613l20 -66q2 -9 -5 -12l-47 -11q-7 -4 -9 5l-17 62q-4 16 -4 29z " />
<glyph unicode="ffi" horiz-adv-x="634" d="M292 450h-161v-441q0 -9 -7 -9h-48q-7 0 -7 9v441h-43q-7 0 -7 9v37q0 9 7 9h43v47q0 89 33.5 129.5t88.5 40.5q42 0 82 -10q7 -4 4 -13l-13 -42q0 -9 -8 -6q-31 11 -65 11q-39 0 -49.5 -19t-10.5 -91v-47h161v47q0 91 41.5 130.5t119.5 39.5q86 0 129 -18q7 -4 4 -13 l-13 -43q-2 -9 -8 -6q-52 20 -112 20q-65 0 -82 -19t-17 -91v-47h211q8 0 8 -9v-487q0 -9 -8 -9h-47q-7 0 -7 9v441h-157v-441q0 -9 -7 -9h-47q-8 0 -8 9v441z" />
<glyph unicode="ffl" horiz-adv-x="640" d="M292 505v47q0 91 35.5 130.5t101.5 39.5q57 0 136 -18q8 -2 8 -9v-613l19 -66q2 -9 -5 -12l-47 -11q-7 -4 -9 5l-17 62q-3 12 -3 29v562q-40 11 -82 11q-50 0 -62.5 -18.5t-12.5 -91.5v-47h116q7 0 7 -9v-37q0 -9 -7 -9h-116v-441q0 -9 -7 -9h-47q-8 0 -8 9v441h-161 v-441q0 -9 -7 -9h-48q-7 0 -7 9v441h-43q-7 0 -7 9v37q0 9 7 9h43v47q0 89 33 129.5t87 40.5q42 0 82 -10q7 -4 4 -13l-14 -43q0 -9 -8 -6q-34 12 -64 12q-39 0 -48.5 -18.5t-9.5 -91.5v-47h161z" />
<glyph unicode="fb" horiz-adv-x="673" d="M359 424v-343q48 -33 92 -33q31 0 48 4.5t29.5 13.5t17.5 35.5t6.5 57.5t1.5 93q0 52 -0.5 80t-4.5 55t-10 38t-18.5 20t-28 10.5t-41.5 1.5q-44 0 -92 -33zM297 9v642q-45 11 -92 11q-50 0 -62 -18.5t-12 -91.5v-47h116q7 0 7 -9v-37q0 -9 -7 -9h-116v-441q0 -9 -7 -9 h-48q-7 0 -7 9v441h-43q-7 0 -7 9v37q0 9 7 9h43v47q0 170 136 170q68 0 147 -18q7 -2 7 -9v-242q19 30 48 48t60 18q84 0 119 -57.5t35 -209.5q0 -151 -35 -208.5t-119 -57.5q-31 0 -60 18t-48 48v-43q0 -9 -7 -9h-47q-8 0 -8 9z" />
<glyph unicode="fh" horiz-adv-x="660" d="M297 9v642q-45 11 -92 11q-50 0 -62 -18.5t-12 -91.5v-47h111q7 0 7 -9v-37q0 -9 -7 -9h-111v-441q0 -9 -7 -9h-48q-7 0 -7 9v441h-43q-7 0 -7 9v37q0 9 7 9h43v47q0 170 136 170q68 0 147 -18q7 -2 7 -9v-242q49 66 114 66q51 0 79.5 -17.5t44 -69t15.5 -147.5v-276 q0 -9 -7 -9h-48q-7 0 -7 9v263q0 56 -2 86.5t-6.5 53t-17.5 31t-28 11.5t-45 3q-44 0 -92 -33v-415q0 -9 -7 -9h-47q-8 0 -8 9z" />
<glyph unicode="fj" horiz-adv-x="411" d="M287 -28v478h-156v-441q0 -9 -7 -9h-48q-7 0 -7 9v441h-43q-7 0 -7 9v37q0 9 7 9h43v47q0 91 41 130.5t119 39.5q83 0 126 -18q7 -4 4 -13l-15 -43q0 -9 -8 -6q-50 20 -107 20q-63 0 -80.5 -19.5t-17.5 -90.5v-47h211q7 0 7 -9v-524q0 -80 -37.5 -127.5t-89.5 -47.5 q-8 0 -9 10l-9 43q-2 8 5 10q49 8 63.5 27t14.5 85z" />
<glyph unicode="fk" horiz-adv-x="587" d="M205 722q58 0 137 -18q7 -2 7 -9v-428l171 251q4 8 10 2l37 -25q5 -5 1 -13l-150 -212l167 -244q4 -7 -1 -13l-39 -26q-6 -6 -10 2l-186 278v-258q0 -9 -7 -9h-48q-7 0 -7 9v642q-39 11 -82 11q-49 0 -61.5 -19t-12.5 -91v-47h111q7 0 7 -9v-37q0 -9 -7 -9h-111v-441 q0 -9 -7 -9h-48q-7 0 -7 9v441h-43q-7 0 -7 9v37q0 9 7 9h43v47q0 170 136 170z" />
<glyph unicode="ft" horiz-adv-x="515" d="M354 631v-126h121q7 0 7 -9v-37q0 -9 -7 -9h-121v-280q0 -58 4.5 -82t15.5 -31.5t38 -7.5q32 0 59 12q8 3 8 -6l13 -39q4 -11 -4 -13q-30 -17 -79 -17q-64 0 -90.5 37.5t-26.5 145.5v281h-161v-441q0 -9 -7 -9h-48q-7 0 -7 9v441h-43q-7 0 -7 9v37q0 9 7 9h43v47 q0 89 33.5 129.5t87.5 40.5q40 0 80 -10q7 -4 4 -13l-13 -43q0 -9 -8 -6q-34 12 -64 12q-36 0 -47 -20t-11 -90v-47h161v102q0 9 5 12l49 18q8 4 8 -6z" />
<glyph unicode="ffb" horiz-adv-x="896" d="M583 424v-343q48 -33 91 -33q31 0 48 4.5t29.5 13.5t17.5 35.5t6.5 57.5t1.5 93q0 52 -0.5 80t-4.5 55t-10 38t-18.5 20t-28 10.5t-41.5 1.5q-43 0 -91 -33zM521 9v642q-47 11 -92 11q-50 0 -62.5 -18.5t-12.5 -91.5v-47h116q7 0 7 -9v-37q0 -9 -7 -9h-116v-441 q0 -9 -7 -9h-47q-8 0 -8 9v441h-161v-441q0 -9 -7 -9h-48q-7 0 -7 9v441h-43q-7 0 -7 9v37q0 9 7 9h43v47q0 89 33 129.5t87 40.5q41 0 81 -10q7 -4 4 -13l-13 -43q0 -9 -8 -6q-34 12 -64 12q-39 0 -48.5 -18.5t-9.5 -91.5v-47h161v47q0 91 35.5 130.5t101.5 39.5 q67 0 146 -18q8 -2 8 -9v-242q18 30 47 48t60 18q84 0 119.5 -58t35.5 -209t-35 -208.5t-120 -57.5q-31 0 -60 18t-47 48v-43q0 -9 -8 -9h-47q-7 0 -7 9z" />
<glyph unicode="ffh" horiz-adv-x="883" d="M521 9v642q-47 11 -92 11q-50 0 -62.5 -18.5t-12.5 -91.5v-47h116q7 0 7 -9v-37q0 -9 -7 -9h-116v-441q0 -9 -7 -9h-47q-8 0 -8 9v441h-161v-441q0 -9 -7 -9h-48q-7 0 -7 9v441h-43q-7 0 -7 9v37q0 9 7 9h43v47q0 89 33 129.5t87 40.5q40 0 80 -10q7 -4 4 -13l-12 -43 q0 -9 -8 -6q-34 12 -64 12q-39 0 -48.5 -18.5t-9.5 -91.5v-47h161v47q0 91 35.5 130.5t101.5 39.5q67 0 146 -18q8 -2 8 -9v-242q47 66 113 66q51 0 79.5 -17.5t44 -69t15.5 -147.5v-276q0 -9 -7 -9h-48q-7 0 -7 9v263q0 58 -2 87t-6 52.5t-16.5 31t-28 11t-46.5 3.5 q-43 0 -91 -33v-415q0 -9 -8 -9h-47q-7 0 -7 9z" />
<glyph unicode="ffj" horiz-adv-x="634" d="M354 450v-441q0 -9 -7 -9h-47q-8 0 -8 9v441h-161v-441q0 -9 -7 -9h-48q-7 0 -7 9v441h-43q-7 0 -7 9v37q0 9 7 9h43v47q0 89 33 129.5t87 40.5q42 0 82 -10q7 -4 4 -13l-14 -43q0 -9 -8 -6q-34 12 -64 12q-39 0 -48.5 -18.5t-9.5 -91.5v-47h161v47q0 91 41.5 130.5 t119.5 39.5q86 0 129 -18q7 -4 4 -13l-13 -43q-2 -9 -8 -6q-52 20 -112 20q-65 0 -82 -19t-17 -91v-47h211q8 0 8 -9v-524q0 -80 -38 -127.5t-91 -47.5q-8 0 -9 10l-5 43q-3 8 5 10q48 8 62 27t14 85v478h-157z" />
<glyph unicode="ffk" horiz-adv-x="811" d="M429 722q57 0 136 -18q8 -2 8 -9v-428l171 251q4 8 10 2l37 -25q5 -5 1 -13l-150 -212l167 -244q5 -7 -1 -13l-39 -26q-6 -6 -10 2l-186 278v-258q0 -9 -7 -9h-48q-7 0 -7 9v642q-47 11 -82 11q-50 0 -62.5 -18.5t-12.5 -91.5v-47h116q7 0 7 -9v-37q0 -9 -7 -9h-116v-441 q0 -9 -7 -9h-47q-8 0 -8 9v441h-161v-441q0 -9 -7 -9h-48q-7 0 -7 9v441h-43q-7 0 -7 9v37q0 9 7 9h43v47q0 89 33 129.5t87 40.5q42 0 82 -10q7 -4 4 -13l-14 -43q0 -9 -8 -6q-34 12 -64 12q-39 0 -48.5 -18.5t-9.5 -91.5v-47h161v47q0 91 35.5 130.5t101.5 39.5z" />
<glyph unicode="Th" horiz-adv-x="808" d="M446 637h-213v-628q0 -3 -4.5 -6t-7.5 -3h-48q-7 0 -7 9v628h-159q-7 0 -7 9v42q0 9 7 9h493q8 0 8 -9v-235q49 66 113 66q51 0 79.5 -17.5t44 -69t15.5 -147.5v-276q0 -9 -7 -9h-47q-8 0 -8 9v263q0 130 -13.5 157.5t-84.5 27.5q-44 0 -92 -33v-415q0 -9 -7 -9h-48 q-7 0 -7 9v628z" />
<glyph unicode=" "  horiz-adv-x="229" />
<glyph unicode="&#x09;" horiz-adv-x="229" />
<glyph unicode="&#xa0;" horiz-adv-x="229" />
<glyph unicode="!" horiz-adv-x="265" d="M131 90q26 0 35 -9t9 -37q0 -31 -9.5 -41t-34.5 -10q-23 0 -32.5 10.5t-9.5 40.5q0 28 9 37t33 9zM168 705l-10 -504q0 -9 -7 -9h-38q-7 0 -7 9l-10 504q0 9 7 9h58q7 0 7 -9z" />
<glyph unicode="&#x22;" horiz-adv-x="262" d="M108 688l-9 -212q0 -9 -7 -9h-37q-7 0 -7 9l-8 212q0 9 7 9h54q7 0 7 -9zM222 688l-9 -212q0 -9 -8 -9h-36q-7 0 -7 9l-8 212q0 9 7 9h54q7 0 7 -9z" />
<glyph unicode="#" horiz-adv-x="443" d="M418 208h-82v-199q0 -9 -7 -9h-45q-7 0 -7 9v199h-108v-199q0 -9 -7 -9h-45q-8 0 -8 9v199h-83q-8 0 -8 9v37q0 9 8 9h83v187h-83q-8 0 -8 9v37q0 9 8 9h83v200q0 9 8 9h45q7 0 7 -9v-200h108v200q0 9 7 9h45q7 0 7 -9v-200h82q7 0 7 -9v-37q0 -9 -7 -9h-82v-187h82 q7 0 7 -9v-37q0 -9 -7 -9zM169 450v-187h108v187h-108z" />
<glyph unicode="$" horiz-adv-x="443" d="M247 2v-108q0 -9 -7 -9h-39q-8 0 -8 9v106q-65 0 -129 24q-6 1 -4 12l12 41q2 9 8 6q51 -23 113 -23v271q-83 10 -113 46.5t-30 124.5q0 96 33 141t110 52v98q0 9 8 9h39q7 0 7 -9v-96q63 -1 128 -24q6 -1 4 -12l-13 -41q0 -8 -7 -6q-51 21 -112 23v-258q88 -9 119.5 -50 t31.5 -134q0 -94 -36 -139.5t-115 -53.5zM333 194q0 70 -15.5 96.5t-70.5 34.5v-264q58 6 72 32t14 101zM116 504q0 -67 13.5 -89.5t63.5 -29.5v250q-54 -5 -65.5 -27t-11.5 -89v-15z" />
<glyph unicode="%" horiz-adv-x="802" d="M176 265q-75 0 -105.5 49.5t-30.5 179.5q0 128 30 174t106 46q77 0 107 -46t30 -174q0 -130 -30.5 -179.5t-106.5 -49.5zM175 662q-47 0 -57.5 -27.5t-10.5 -140.5q0 -111 11 -143t57 -32q48 0 59.5 32t11.5 143q0 113 -11 140.5t-60 27.5zM629 700l-413 -735 q-6 -9 -11 -2l-34 21q-2 2 -4 3q-3 1 -1 3l413 736q6 6 10 2l39 -15q6 -6 1 -13zM626 -14q-76 0 -106 49.5t-30 179.5q0 128 29.5 174t106.5 46t106.5 -46t29.5 -174q0 -130 -30 -179.5t-106 -49.5zM625 383q-47 0 -58 -27.5t-11 -140.5q0 -111 11.5 -143t57.5 -32 q47 0 59 32t12 143q0 113 -11.5 140.5t-59.5 27.5z" />
<glyph unicode="&#x26;" horiz-adv-x="519" d="M272 714q69 0 125 -23q7 -4 4 -13l-14 -42q-2 -9 -8 -6q-45 22 -106 22q-65 0 -80 -17t-15 -86q0 -84 39 -138l136 -186l103 193q4 8 10 2l39 -27q5 -5 2 -13l-114 -200l119 -150q3 -8 -2 -13l-39 -30q-6 -6 -10 2l-103 134l-41 -72q-20 -36 -47 -50.5t-75 -14.5 q-75 0 -111 45.5t-36 155.5q0 86 24 132.5t85 69.5q-48 76 -48 158q0 167 163 167zM180 354q-39 -18 -49.5 -47.5t-10.5 -106.5q0 -102 11.5 -127t62.5 -25q35 0 50.5 8.5t27.5 30.5l45 83z" />
<glyph unicode="'" horiz-adv-x="148" d="M108 688l-9 -212q0 -9 -7 -9h-37q-7 0 -7 9l-8 212q0 9 7 9h54q7 0 7 -9z" />
<glyph unicode="(" horiz-adv-x="240" d="M118 249q0 -203 33.5 -314.5t85.5 -139.5q5 -2 3 -10l-25 -36q-4 -7 -12 -2q-152 109 -152 502t152 502q8 5 12 -2l25 -36q2 -8 -3 -10q-52 -28 -85.5 -139.5t-33.5 -314.5z" />
<glyph unicode=")" horiz-adv-x="239" d="M123 249q0 203 -33.5 314.5t-85.5 139.5q-5 2 -3 10l25 36q4 7 12 2q152 -109 152 -502t-152 -502q-8 -5 -12 2l-25 36q-2 8 3 10q52 28 85.5 139.5t33.5 314.5z" />
<glyph unicode="*" d="M265 682l-51 -111h98q7 0 7 -7v-38q0 -7 -7 -7h-98l51 -111q5 -6 -1 -10l-36 -19q-4 -3 -9 3l-51 115l-50 -115q-4 -7 -8 -3l-37 19q-5 5 -2 10l50 111h-97q-6 0 -6 7v38q0 7 6 7h98l-51 111q-3 5 1 9l37 19q4 4 8 -2l50 -116l51 116q4 6 9 3l36 -18q5 -3 2 -11z" />
<glyph unicode="+" horiz-adv-x="435" d="M189 65v180h-139q-8 0 -8 9v43q0 9 8 9h139v179q0 9 7 9h44q7 0 7 -9v-179h139q7 0 7 -9v-43q0 -9 -7 -9h-139v-180q0 -9 -7 -9h-44q-7 0 -7 9z" />
<glyph unicode="," horiz-adv-x="205" d="M148 67l-43 -195q-2 -11 -9 -11h-31q-7 0 -7 11l21 206q2 11 11 11l49 -8q11 0 9 -14z" />
<glyph unicode="-" horiz-adv-x="259" d="M210 245h-160q-8 0 -8 9v43q0 9 8 9h160q7 0 7 -9v-43q0 -9 -7 -9z" />
<glyph unicode="." horiz-adv-x="205" d="M102 90q25 0 34 -9t9 -37q0 -31 -9 -41t-34 -10q-24 0 -33 10t-9 41q0 28 9 37t33 9z" />
<glyph unicode="/" horiz-adv-x="367" d="M371 713l-318 -806q-4 -9 -10 -4l-43 17q-8 6 -3 12l317 807q5 7 10 4l44 -18q7 -5 3 -12z" />
<glyph unicode="0" horiz-adv-x="443" d="M222 -14q-101 0 -141.5 80.5t-40.5 291.5q0 141 18.5 218t56.5 107.5t107 30.5t107 -30.5t56 -107t18 -218.5q0 -144 -17.5 -224t-56 -114t-107.5 -34zM221 656q-52 0 -75.5 -22.5t-33 -82.5t-9.5 -193q0 -186 22.5 -248t95.5 -62q74 0 96.5 61.5t22.5 248.5 q0 101 -4 155.5t-18 88.5t-35.5 44t-61.5 10z" />
<glyph unicode="1" horiz-adv-x="443" d="M85 596l141 96q7 5 16 5h42q7 0 7 -9v-679q0 -9 -7 -9h-47q-8 0 -8 9v620l-115 -84q-6 -4 -11 3l-20 36q-4 8 2 12z" />
<glyph unicode="2" horiz-adv-x="443" d="M205 652q-69 0 -124 -25q-6 -2 -8 6l-11 43q-2 10 4 13q69 25 140 25q98 0 140.5 -40.5t42.5 -144.5q0 -59 -2.5 -88.5t-17.5 -67.5t-41 -73t-78 -94l-128 -146h264q7 0 7 -9v-42q0 -9 -7 -9h-337q-7 0 -7 9v35q0 12 5 19l162 189q78 92 94.5 133t16.5 142q0 79 -20 102 t-95 23z" />
<glyph unicode="3" horiz-adv-x="443" d="M193 340h-64q-7 0 -7 9v42q0 9 7 9h64q73 0 92.5 26t19.5 109q0 76 -19.5 97t-98.5 21q-67 0 -126 -23q-6 -3 -8 6l-13 42q-3 9 4 13q62 23 143 23q108 0 147.5 -40.5t39.5 -129.5q0 -155 -102 -169q114 -8 114 -183q0 -116 -45 -161t-158 -45q-72 0 -139 25q-7 4 -4 13 l15 43q2 9 8 6q57 -25 119 -25q48 0 72 4.5t39 22t18 42.5t3 77q0 95 -20 120.5t-101 25.5z" />
<glyph unicode="4" horiz-adv-x="443" d="M361 688v-446h64q7 0 7 -9v-37q0 -9 -7 -9h-64v-178q0 -9 -7 -9h-49q-8 0 -8 9v178h-267q-7 0 -7 9v37q0 6 6 18l235 437q5 9 14 9h76q7 0 7 -9zM86 242h211v404z" />
<glyph unicode="5" horiz-adv-x="443" d="M364 637h-235v-237h69q111 0 153.5 -42t42.5 -154q0 -121 -49.5 -169.5t-159.5 -48.5q-68 0 -135 25q-7 4 -4 13l17 43q2 9 8 6q59 -26 114 -26q50 0 76 4.5t40.5 23t17.5 43t3 77.5q0 37 -1 56.5t-5.5 39t-11 27t-22 14t-34 7.5t-50.5 1h-120q-15 0 -15 15v329q0 5 4 9 t7 4h290q7 0 7 -9v-42q0 -9 -7 -9z" />
<glyph unicode="6" horiz-adv-x="443" d="M248 421q91 0 129 -51t38 -166q0 -116 -44 -167t-147 -51q-112 0 -148.5 75t-36.5 292q0 145 18.5 221.5t60.5 108t121 31.5q84 0 146 -23q6 -3 4 -13l-14 -42q-2 -9 -8 -6q-59 23 -128 23q-84 0 -107 -47.5t-23 -204.5v-46q51 66 139 66zM109 326q1 -69 2.5 -112 t7 -76.5t12 -49.5t21 -26.5t29.5 -12.5t43 -2q80 0 100 26t20 122q0 110 -18.5 137.5t-95.5 27.5q-72 0 -121 -34z" />
<glyph unicode="7" horiz-adv-x="446" d="M104 22l230 615h-296q-8 0 -8 10v40q0 10 8 10h368q8 0 8 -10v-14q0 -9 -5 -22l-239 -649q-2 -10 -10 -6l-51 13q-7 3 -5 13z" />
<glyph unicode="8" horiz-adv-x="443" d="M222 47q80 0 99.5 23t19.5 120t-21 126.5t-101 29.5q-76 0 -96 -29.5t-20 -126.5t19 -120t100 -23zM224 402q73 0 92.5 27t19.5 117q0 72 -18.5 89.5t-95.5 17.5q-78 0 -96 -17.5t-18 -89.5q0 -90 20 -117t96 -27zM222 -14q-100 0 -145.5 45t-45.5 155q0 87 28 135 t103 54q-38 4 -63 18.5t-38 38.5t-18 51.5t-5 65.5q0 83 43.5 124t140.5 41q96 0 140 -41t44 -124q0 -80 -24.5 -122.5t-99.5 -49.5q40 -4 66.5 -19t40 -41.5t18.5 -57t5 -73.5q0 -110 -45 -155t-145 -45z" />
<glyph unicode="9" horiz-adv-x="443" d="M342 377q2 24 2 95q0 46 -1 71.5t-5.5 48.5t-11 33t-21.5 17.5t-32 9t-47 1.5t-48.5 -2t-32.5 -9t-21 -15.5t-11 -28t-5 -38.5t-1 -55q0 -50 1.5 -71.5t6.5 -44.5t18 -30t33 -11.5t56 -4.5q71 0 120 34zM127 23l165 217q43 57 48 108q-26 -33 -56.5 -49.5t-78.5 -16.5 q-92 0 -131 50t-39 164q0 116 44 167t147 51q109 0 148.5 -57t39.5 -184q0 -175 -73 -276l-156 -211q-5 -7 -11 -2l-46 26q-7 5 -1 13z" />
<glyph unicode=":" horiz-adv-x="205" d="M102 90q25 0 34 -9t9 -37q0 -31 -9 -41t-34 -10q-24 0 -33 10t-9 41q0 28 9 37t33 9zM102 519q25 0 34 -9t9 -37q0 -31 -9 -41t-34 -10q-24 0 -33 10t-9 41q0 28 9 37t33 9z" />
<glyph unicode=";" horiz-adv-x="205" d="M107 519q25 0 34 -9t9 -37q0 -31 -9 -41t-34 -10q-24 0 -33 10t-9 41q0 28 9 37t33 9zM148 67l-43 -195q-2 -11 -9 -11h-31q-7 0 -7 11l21 206q2 11 11 11l49 -8q11 0 9 -14z" />
<glyph unicode="&#x3c;" horiz-adv-x="400" d="M363 617l-252 -259l252 -261q6 -6 -1 -13l-27 -31q-6 -6 -10 2l-282 280q-4 4 -4 12v21q0 7 4 11l282 280q4 8 10 2l27 -31q7 -7 1 -13z" />
<glyph unicode="=" horiz-adv-x="478" d="M407 165h-336q-7 0 -7 9v43q0 9 7 9h336q7 0 7 -9v-43q0 -9 -7 -9zM407 389h-336q-7 0 -7 9v43q0 9 7 9h336q7 0 7 -9v-43q0 -9 -7 -9z" />
<glyph unicode="&#x3e;" horiz-adv-x="400" d="M39 97l252 259l-252 261q-6 6 1 13l27 31q6 6 10 -2l282 -280q4 -4 4 -12v-21q0 -7 -4 -11l-282 -280q-4 -8 -10 -2l-27 31q-7 7 -1 13z" />
<glyph unicode="?" horiz-adv-x="331" d="M142 90q26 0 35 -9t9 -37q0 -31 -9.5 -41t-34.5 -10q-23 0 -32 10t-9 41q0 28 8.5 37t32.5 9zM239 524q0 86 -12.5 106t-72.5 20q-51 0 -100 -23q-6 -3 -8 6l-15 47q-3 9 4 13q59 21 117 21q83 0 119.5 -42t36.5 -148q0 -72 -17.5 -121.5t-56.5 -100.5l-85 -111 q-5 -7 -11 -2l-38 29q-7 5 -1 13l85 115q40 53 47.5 78t7.5 100z" />
<glyph unicode="@" horiz-adv-x="680" d="M365 330q-62 0 -77 -18.5t-15 -81.5t15 -81.5t77 -18.5q51 0 91 31v138q-45 31 -91 31zM656 252q0 -86 -7.5 -148.5t-25 -106.5t-41 -71.5t-61 -42.5t-78 -20.5t-99.5 -5.5q-115 0 -175.5 29t-89.5 108.5t-29 231.5q0 124 14 200.5t48 118.5t80 56t122 14 q114 0 159 -49.5t45 -173.5v-301q0 -9 -7 -9h-47q-8 0 -8 9v43q-13 -25 -41.5 -45.5t-57.5 -20.5q-85 0 -117 37.5t-32 124.5t32 124.5t117 37.5q30 0 58 -20t41 -46v66q0 102 -25 132.5t-117 30.5q-46 0 -73 -3t-52 -15.5t-36.5 -32t-20.5 -59t-11.5 -89.5t-2.5 -130 q0 -73 2.5 -118.5t12.5 -83t23.5 -56t41.5 -31t60.5 -15.5t86.5 -3q60 0 96.5 3.5t67 17.5t45.5 34t25.5 61t13.5 89.5t3 127.5q0 9 7 9h46q7 0 7 -9z" />
<glyph unicode="A" horiz-adv-x="452" d="M325 210h-201l-55 -213q-2 -7 -9 -5l-46 12q-9 2 -5 11l178 673q4 9 8 9h63q4 0 8 -9l177 -673q4 -9 -5 -11l-48 -12q-7 -2 -9 5zM311 267l-76 310l-11 79l-11 -79l-75 -310h173z" />
<glyph unicode="B" horiz-adv-x="494" d="M139 340v-280h167q41 0 54.5 25.5t13.5 110.5q0 86 -15 115t-57 29h-163zM306 0h-227q-7 0 -7 9v679q0 9 7 9h219q76 0 104 -45t28 -122q0 -72 -21 -111.5t-89 -47.5q73 -4 99.5 -50t26.5 -126q0 -195 -140 -195zM139 637v-237h159q38 0 50.5 25t12.5 96q0 75 -11.5 95.5 t-51.5 20.5h-159z" />
<glyph unicode="C" horiz-adv-x="442" d="M282 652q-38 0 -61 -3t-42.5 -15.5t-29 -30t-16 -53.5t-8.5 -80t-2 -115q0 -73 2 -118.5t8.5 -82.5t16 -55.5t29.5 -31t42.5 -15.5t60.5 -3q71 0 124 24q8 3 8 -6l11 -43q2 -10 -4 -13q-67 -25 -139 -25q-65 0 -106.5 15t-71 55.5t-42 112.5t-12.5 186q0 110 12.5 180 t42 110t71 54.5t106.5 14.5q72 0 139 -25q6 -3 4 -13l-11 -43q0 -9 -8 -6q-55 25 -124 25z" />
<glyph unicode="D" horiz-adv-x="512" d="M79 0q-7 0 -7 9v679q0 9 7 9h147q90 0 139.5 -30.5t73 -105.5t23.5 -211q0 -200 -51.5 -275t-184.5 -75h-147zM226 637h-87v-577h87q46 0 74 8t47.5 24.5t28 53.5t11.5 81.5t3 122.5q0 82 -3.5 127.5t-11.5 81.5t-28 50.5t-47 21t-74 6.5z" />
<glyph unicode="E" horiz-adv-x="422" d="M390 0h-311q-7 0 -7 9v679q0 9 7 9h311q8 0 8 -9v-42q0 -9 -8 -9h-251v-237h203q8 0 8 -9v-42q0 -9 -8 -9h-203v-280h251q8 0 8 -9v-42q0 -9 -8 -9z" />
<glyph unicode="F" horiz-adv-x="410" d="M139 637v-267h203q8 0 8 -9v-42q0 -9 -8 -9h-203v-301q0 -9 -7 -9h-53q-7 0 -7 9v679q0 9 7 9h311q8 0 8 -9v-42q0 -9 -8 -9h-251z" />
<glyph unicode="G" horiz-adv-x="506" d="M441 358v-333q0 -11 -7 -14q-69 -25 -152 -25q-65 0 -106.5 15t-71 55.5t-42 112.5t-12.5 186q0 110 12.5 180t42 110t71 54.5t106.5 14.5q88 0 155 -25q6 -3 4 -13l-11 -43q0 -9 -8 -6q-55 25 -140 25q-38 0 -61 -3t-42.5 -15.5t-29 -30t-16 -53.5t-8.5 -80t-2 -115 q0 -73 2 -118.5t8.5 -83t16 -55.5t29 -31t42.5 -16t61 -3q50 0 92 11v299q0 9 7 9h53q7 0 7 -9z" />
<glyph unicode="H" horiz-adv-x="520" d="M448 688v-679q0 -9 -7 -9h-53q-7 0 -7 9v332h-242v-332q0 -9 -7 -9h-53q-7 0 -7 9v679q0 9 7 9h53q7 0 7 -9v-287h242v287q0 9 7 9h53q7 0 7 -9z" />
<glyph unicode="I" horiz-adv-x="211" d="M139 688v-679q0 -9 -7 -9h-53q-7 0 -7 9v679q0 9 7 9h53q7 0 7 -9z" />
<glyph unicode="J" horiz-adv-x="341" d="M202 192v496q0 9 7 9h53q7 0 7 -9v-496q0 -106 -40 -156t-110 -50q-60 0 -115 25q-7 4 -4 13l14 43q2 9 8 6q46 -24 96 -24q54 0 69 25.5t15 117.5z" />
<glyph unicode="K" horiz-adv-x="448" d="M411 667l-203 -300l214 -337q3 -8 -2 -13l-40 -30q-2 -2 -6 -1.5t-5 3.5l-229 373l219 346q6 7 11 2l40 -29q5 -7 1 -14zM139 688v-679q0 -9 -7 -9h-53q-7 0 -7 9v679q0 9 7 9h53q7 0 7 -9z" />
<glyph unicode="L" horiz-adv-x="374" d="M139 60h227q8 0 8 -9v-42q0 -9 -8 -9h-287q-7 0 -7 9v679q0 9 7 9h53q7 0 7 -9v-628z" />
<glyph unicode="M" horiz-adv-x="610" d="M322 203l114 485q3 9 12 9h82q4 0 8 -9v-679q0 -9 -8 -9h-50q-7 0 -7 9v519l4 95l-19 -94l-118 -467q-4 -9 -8 -9h-53q-4 0 -8 9l-119 467l-19 94l4 -95v-519q0 -9 -7 -9h-51q-7 0 -7 9v679q4 9 8 9h81q11 0 12 -9l121 -485l14 -85z" />
<glyph unicode="N" horiz-adv-x="521" d="M163 688l198 -521l26 -101l-3 105v517q0 9 7 9h51q7 0 7 -9v-679q-4 -9 -8 -9h-71q-7 0 -12 9l-198 521l-27 92l4 -96v-517q0 -9 -7 -9h-51q-7 0 -7 9v679q4 9 8 9h71q7 0 12 -9z" />
<glyph unicode="O" horiz-adv-x="531" d="M266 52q63 0 90 19t39.5 81.5t12.5 202.5q0 135 -12.5 196t-39.5 79.5t-90 18.5q-38 0 -60 -5.5t-40 -21t-26.5 -49.5t-12.5 -85t-4 -133q0 -85 4 -137.5t12.5 -87.5t26.5 -51t40 -21.5t60 -5.5zM266 -14q-56 0 -93.5 15t-66.5 55t-42.5 113.5t-13.5 185.5 q0 109 13.5 180t42.5 110t66.5 54t93.5 15t93.5 -15t66 -54t42 -110t13.5 -180q0 -112 -13.5 -185.5t-42 -113.5t-66 -55t-93.5 -15z" />
<glyph unicode="P" horiz-adv-x="465" d="M139 637v-280h162q40 0 54 28t14 114q0 84 -13.5 111t-54.5 27h-162zM139 297v-288q0 -9 -7 -9h-53q-7 0 -7 9v679q0 9 7 9h222q67 0 103.5 -50.5t36.5 -147.5q0 -99 -32.5 -150.5t-107.5 -51.5h-162z" />
<glyph unicode="Q" horiz-adv-x="531" d="M384 -204l-131 190q-69 1 -111 29t-67 110.5t-25 229.5q0 109 13.5 180t42.5 110t66.5 54t93.5 15t93.5 -15t66 -54t42 -110t13.5 -180q0 -183 -36.5 -264.5t-114.5 -97.5l106 -155q4 -9 -2 -13l-39 -31q-5 -5 -11 2zM266 52q63 0 90 19t39.5 81.5t12.5 202.5 q0 135 -12.5 196t-39.5 79.5t-90 18.5q-38 0 -60 -5.5t-40 -21t-26.5 -49.5t-12.5 -85t-4 -133q0 -85 4 -137.5t12.5 -87.5t26.5 -51t40 -21.5t60 -5.5z" />
<glyph unicode="R" horiz-adv-x="494" d="M139 297v-288q0 -9 -7 -9h-53q-7 0 -7 9v679q0 9 7 9h222q67 0 103.5 -50.5t36.5 -147.5q0 -188 -124 -200l139 -274q3 -7 -3 -13l-44 -24q-7 -5 -11 4l-151 305h-108zM139 637v-280h162q41 0 54.5 26t13.5 116q0 86 -13.5 112t-54.5 26h-162z" />
<glyph unicode="S" horiz-adv-x="466" d="M210 48q88 0 111 27.5t23 113.5q0 35 -1.5 52t-7 35t-18 26t-33 14.5t-54.5 10.5q-103 12 -141 50t-38 133q0 110 46 157t149 47q75 0 142 -25q7 -4 4 -13l-13 -43q-2 -9 -8 -6q-57 25 -125 25q-23 0 -40.5 -1t-30.5 -6t-22 -8.5t-15 -14.5t-9 -18t-4.5 -25t-1.5 -29.5 v-37.5q0 -76 16.5 -94.5t98.5 -28.5q101 -13 139 -57t38 -142q0 -109 -50.5 -156.5t-154.5 -47.5q-75 0 -142 25q-7 4 -4 13l13 43q2 9 8 6q57 -25 125 -25z" />
<glyph unicode="T" horiz-adv-x="399" d="M392 697q7 0 7 -9v-42q0 -9 -7 -9h-159v-628q0 -9 -7 -9h-53q-7 0 -7 9v628h-159q-7 0 -7 9v42q0 9 7 9h385z" />
<glyph unicode="U" horiz-adv-x="510" d="M380 247v441q0 9 7 9h52q7 0 7 -9v-441q0 -141 -43 -201t-148 -60t-148 60t-43 201v441q0 9 7 9h53q7 0 7 -9v-441q0 -56 2 -85.5t8 -55t21 -35t36 -14.5t58 -5q30 0 49 2.5t34 11.5t22.5 20t12 36t5.5 51.5t1 73.5z" />
<glyph unicode="V" horiz-adv-x="452" d="M189 9l-180 673q-4 9 5 11l46 12q7 2 9 -5l145 -565l14 -84l14 84l143 565q2 7 9 5l44 -12q9 -2 5 -11l-181 -673q-2 -9 -8 -9h-57q-6 0 -8 9z" />
<glyph unicode="W" horiz-adv-x="692" d="M332 561l-117 -552q-2 -9 -8 -9h-58q-4 0 -8 9l-124 676q-4 9 5 11l50 6q7 2 9 -5l89 -523l13 -112l14 112l106 514q2 9 8 9h73q6 0 8 -9l106 -514l14 -112l13 112l88 523q2 7 9 5l48 -6q9 -2 5 -11l-125 -676q-4 -9 -8 -9h-58q-4 0 -8 9l-117 552l-14 91z" />
<glyph unicode="X" horiz-adv-x="455" d="M19 28l179 325l-174 317q-2 3 -1.5 7.5t3.5 6.5l42 25q6 6 11 -1l130 -253l18 -53l19 53l131 253q5 7 11 1l42 -25q7 -7 1 -14l-174 -317l179 -325q4 -10 -2 -14l-41 -25q-4 -6 -11 1l-132 253l-23 60l-21 -60l-132 -253q-2 -2 -5 -2.5t-5 1.5l-43 25q-5 5 -2 14z" />
<glyph unicode="Y" horiz-adv-x="436" d="M185 341l-175 329q-5 8 1 14l37 25q6 6 11 -1l138 -264l22 -54l22 54l136 264q2 2 5 2.5t5 -1.5l38 -25q6 -6 1 -14l-174 -329v-332q0 -9 -7 -9h-52q-8 0 -8 9v332z" />
<glyph unicode="Z" horiz-adv-x="446" d="M22 42l322 595h-307q-8 0 -8 10v40q0 10 8 10h384q8 0 8 -10v-11q0 -11 -6 -21l-320 -595h319q8 0 8 -10v-40q0 -10 -8 -10h-398q-8 0 -8 10v11q0 11 6 21z" />
<glyph unicode="[" horiz-adv-x="276" d="M72 -251v997q0 9 7 9h174q7 0 7 -9v-42q0 -9 -7 -9h-114v-895h114q7 0 7 -9v-42q0 -9 -7 -9h-174q-7 0 -7 9z" />
<glyph unicode="\" horiz-adv-x="367" d="M314 -93l-318 806q-4 7 3 12l44 18q5 3 10 -4l317 -807q5 -6 -3 -12l-43 -17q-6 -5 -10 4z" />
<glyph unicode="]" horiz-adv-x="276" d="M204 746v-997q0 -9 -7 -9h-174q-7 0 -7 9v42q0 9 7 9h114v895h-114q-7 0 -7 9v42q0 9 7 9h174q7 0 7 -9z" />
<glyph unicode="^" horiz-adv-x="383" d="M229 688l129 -397q4 -9 -4 -11l-47 -14q-7 -2 -9 5l-95 313l-13 60l-14 -60l-92 -313q-2 -7 -9 -5l-45 14q-9 2 -5 11l130 397q4 9 8 9h58q4 0 8 -9z" />
<glyph unicode="_" horiz-adv-x="350" d="M343 -135h-336q-7 0 -7 9v43q0 9 7 9h336q7 0 7 -9v-43q0 -9 -7 -9z" />
<glyph unicode="`" horiz-adv-x="395" d="M198 561l-95 112q-3 3 -3 8.5t4 6.5l37 21q8 4 13 -3l84 -115q2 -3 1.5 -7.5t-3.5 -5.5l-27 -18q-7 -3 -11 1z" />
<glyph unicode="a" horiz-adv-x="418" d="M205 248q-62 0 -77 -18.5t-15 -81.5t15 -81.5t77 -18.5q47 0 91 30v140q-44 30 -91 30zM202 519q87 0 121.5 -44t34.5 -165v-248l12 -46q2 -9 -5 -12l-47 -11q-7 -4 -9 5l-13 51q-13 -25 -43 -44t-64 -19q-80 0 -110.5 38t-30.5 124t30.5 124t110.5 38q34 0 64 -19 t43 -44v63q0 93 -16 120t-78 27q-56 0 -103 -21q-6 -2 -8 6l-12 42q-2 10 4 13q56 22 119 22z" />
<glyph unicode="b" horiz-adv-x="428" d="M118 424v-343q48 -33 92 -33q22 0 36 2t26 6t18.5 15t11.5 23t6.5 37.5t2.5 51t1 69.5q0 52 -0.5 80t-4.5 55t-9.5 38t-18.5 20t-28 10.5t-41 1.5q-44 0 -92 -33zM56 9v696q0 9 7 9h48q7 0 7 -9v-252q19 30 48 48t60 18q84 0 119 -58t35 -209t-35 -208.5t-119 -57.5 q-31 0 -60 18t-48 48v-43q0 -9 -7 -9h-48q-7 0 -7 9z" />
<glyph unicode="c" horiz-adv-x="341" d="M218 48q49 0 91 21q6 3 8 -6l14 -43q3 -9 -4 -13q-45 -21 -109 -21q-95 0 -132.5 57.5t-37.5 211.5q0 152 37.5 208t132.5 56q64 0 109 -21q7 -4 4 -13l-14 -43q-2 -9 -8 -6q-42 21 -91 21q-31 0 -47.5 -4.5t-29 -14t-17 -36t-6.5 -57.5t-2 -92q0 -45 1 -71.5t2.5 -52 t7 -37.5t11.5 -23t18.5 -14t26 -5t35.5 -2z" />
<glyph unicode="d" horiz-adv-x="428" d="M310 81v343q-48 33 -92 33q-26 0 -41 -1.5t-28 -10.5t-18.5 -20t-9.5 -38t-4.5 -55t-0.5 -80q0 -44 1 -69.5t2.5 -51t6.5 -37.5t11.5 -23t18.5 -15t26 -6t36 -2q44 0 92 33zM372 705v-696q0 -9 -7 -9h-48q-7 0 -7 9v43q-19 -30 -48 -48t-60 -18q-84 0 -119 57.5 t-35 208.5t35 209t119 58q31 0 60 -18t48 -48v252q0 9 7 9h48q7 0 7 -9z" />
<glyph unicode="e" horiz-adv-x="403" d="M352 253h-239q0 -52 1 -81.5t5.5 -55.5t10.5 -37t20.5 -19.5t30.5 -10t44 -1.5q48 0 94 24q6 3 8 -6l15 -43q2 -10 -4 -13q-50 -24 -113 -24q-101 0 -139 57t-38 212q0 149 37.5 206.5t125.5 57.5q87 0 119.5 -50.5t32.5 -202.5q0 -13 -11 -13zM114 307h187 q-2 101 -16 126.5t-76 25.5q-61 0 -76.5 -26t-18.5 -126z" />
<glyph unicode="f" horiz-adv-x="253" d="M69 450h-43q-7 0 -7 9v37q0 9 7 9h43v47q0 89 33 129.5t87 40.5q38 0 78 -10q7 -4 4 -13l-12 -43q0 -9 -8 -6q-34 12 -62 12q-37 0 -47.5 -19.5t-10.5 -90.5v-47h116q7 0 7 -9v-37q0 -9 -7 -9h-116v-441q0 -9 -7 -9h-48q-7 0 -7 9v441z" />
<glyph unicode="g" horiz-adv-x="438" d="M403 450h-86q56 -62 56 -126q0 -82 -40 -117t-124 -35q-47 0 -77 11q-4 -24 -4 -36q0 -33 16 -43.5t82 -10.5q99 0 138 -28t39 -111q0 -84 -42 -120.5t-143 -36.5q-91 0 -132 30t-41 100q0 76 66 123q-39 18 -39 69q0 39 40 71q-63 30 -63 147q0 94 40 131t120 37h194 q7 0 7 -9v-37q0 -9 -7 -9zM306 339q0 66 -19 111h-76q-63 0 -79.5 -19.5t-16.5 -88.5t15.5 -90t78.5 -21q29 0 47 3.5t28.5 9t15 21t5.5 29.5t1 45zM226 35q-58 0 -93 11q-18 -43 -18 -101q0 -52 19.5 -69t88.5 -17t90.5 19t21.5 67q0 33 -1.5 46t-12.5 25.5t-32 15.5t-63 3 z" />
<glyph unicode="h" horiz-adv-x="418" d="M370 285v-276q0 -9 -7 -9h-47q-8 0 -8 9v263q0 130 -13.5 157.5t-84.5 27.5q-44 0 -92 -33v-415q0 -9 -7 -9h-48q-7 0 -7 9v696q0 9 7 9h48q7 0 7 -9v-252q49 66 113 66q51 0 79.5 -17.5t44 -69t15.5 -147.5z" />
<glyph unicode="i" horiz-adv-x="175" d="M87 695q21 0 29.5 -7t8.5 -31q0 -26 -8.5 -34t-29.5 -8q-20 0 -28.5 8t-8.5 34q0 24 8 31t29 7zM118 496v-487q0 -9 -7 -9h-48q-7 0 -7 9v487q0 9 7 9h48q7 0 7 -9z" />
<glyph unicode="j" horiz-adv-x="165" d="M82 695q21 0 29.5 -7t8.5 -31q0 -26 -8.5 -34t-29.5 -8q-20 0 -28.5 8t-8.5 34q0 24 8 31t29 7zM-19 -140q47 7 58.5 25.5t11.5 86.5v524q0 9 7 9h48q7 0 7 -9v-524q0 -81 -35.5 -128t-87.5 -47q-8 0 -8 10l-6 43q-3 7 5 10z" />
<glyph unicode="k" horiz-adv-x="356" d="M118 705v-438l171 251q4 8 10 2l37 -25q6 -5 1 -13l-150 -212l167 -244q4 -7 -1 -13l-39 -26q-6 -6 -10 2l-186 278v-258q0 -9 -7 -9h-48q-7 0 -7 9v696q0 9 7 9h48q7 0 7 -9z" />
<glyph unicode="l" horiz-adv-x="175" d="M51 89v616q0 9 7 9h48q7 0 7 -9v-623l19 -66q3 -8 -5 -12l-46 -11q-7 -3 -9 5l-18 62q-3 18 -3 29z" />
<glyph unicode="m" horiz-adv-x="620" d="M56 9v487q0 9 7 9h48q7 0 7 -9v-43q23 32 45 49t54 17q87 0 111 -77q60 77 121 77q65 0 94 -46.5t29 -177.5v-286q0 -9 -7 -9h-48q-7 0 -7 9v273q0 83 -4.5 116.5t-17.5 46t-46 12.5q-53 0 -107 -40q10 -44 10 -122v-286q0 -9 -7 -9h-48q-7 0 -7 9v273q0 83 -5 116.5 t-18 46t-46 12.5q-32 0 -50 -7t-46 -26v-415q0 -9 -7 -9h-48q-7 0 -7 9z" />
<glyph unicode="n" horiz-adv-x="418" d="M118 496v-43q49 66 113 66q51 0 79.5 -17.5t44 -69t15.5 -147.5v-276q0 -9 -7 -9h-47q-8 0 -8 9v263q0 130 -13.5 157.5t-84.5 27.5q-44 0 -92 -33v-415q0 -9 -7 -9h-48q-7 0 -7 9v487q0 9 7 9h48q7 0 7 -9z" />
<glyph unicode="o" horiz-adv-x="434" d="M217 457q-25 0 -40.5 -2t-28 -11t-18 -20t-9.5 -37.5t-4.5 -54.5t-0.5 -79q0 -53 0.5 -81.5t4.5 -55.5t9.5 -37.5t18.5 -19t27.5 -10t40.5 -1.5t40.5 1.5t27.5 10t18 19.5t9.5 37t5 55t0.5 82q0 61 -2 92t-6.5 57.5t-16.5 36t-29 14t-47 4.5zM217 -14q-95 0 -132 57.5 t-37 211.5q0 152 37 208t132 56t132 -56t37 -208q0 -154 -37 -211.5t-132 -57.5z" />
<glyph unicode="p" horiz-adv-x="431" d="M118 424v-343q48 -33 92 -33q26 0 41 1.5t28 10.5t18.5 20t9.5 38t4.5 55t0.5 80q0 44 -1 69.5t-2.5 51t-6.5 37.5t-11.5 23t-18.5 15t-26 6t-36 2q-44 0 -92 -33zM56 -183v679q0 9 7 9h48q7 0 7 -9v-43q19 30 48 48t60 18q84 0 119 -57.5t35 -208.5t-35 -209t-119 -58 q-31 0 -60 18t-48 48v-235q0 -9 -7 -9h-48q-7 0 -7 9z" />
<glyph unicode="q" horiz-adv-x="428" d="M310 81v343q-48 33 -92 33q-22 0 -36 -2t-26 -6t-18.5 -15t-11.5 -23t-6.5 -37.5t-2.5 -51t-1 -69.5q0 -52 0.5 -80t4.5 -55t9.5 -38t18.5 -20t28 -10.5t41 -1.5q44 0 92 33zM372 496v-679q0 -9 -7 -9h-48q-7 0 -7 9v235q-19 -30 -48 -48t-60 -18q-84 0 -119 58t-35 209 t35 208.5t119 57.5q31 0 60 -18t48 -48v43q0 9 7 9h48q7 0 7 -9z" />
<glyph unicode="r" horiz-adv-x="280" d="M267 442q-26 11 -54 11q-45 0 -89 -29v-415q0 -9 -7 -9h-47q-8 0 -8 9v424l-14 55q-3 8 5 12l46 12q7 4 9 -5l12 -54q53 66 102 66q36 0 56 -10q7 -2 5 -11l-7 -49q-2 -10 -9 -7z" />
<glyph unicode="s" horiz-adv-x="354" d="M41 7q-6 1 -4 13l15 43q2 8 8 6q53 -24 115 -24q50 0 63.5 18t13.5 80q0 45 -12 60t-64 25q-75 15 -108 45.5t-33 95.5q0 150 145 150q55 0 115 -21q6 -3 4 -13l-15 -43q-2 -8 -8 -6q-47 23 -98 23q-52 0 -64 -16.5t-12 -73.5q0 -43 13 -57.5t67 -23.5q77 -13 107 -46.5 t30 -97.5q0 -79 -34.5 -118.5t-112.5 -39.5q-71 0 -131 21z" />
<glyph unicode="t" horiz-adv-x="295" d="M135 631v-126h120q7 0 7 -9v-37q0 -9 -7 -9h-120v-280q0 -83 9.5 -102t47.5 -19q28 0 57 12q6 2 8 -6l13 -38q4 -11 -4 -14q-28 -17 -76 -17q-65 0 -91 37.5t-26 145.5v281h-47q-7 0 -7 9v37q0 9 7 9h47v102q0 10 4 12l50 18q8 4 8 -6z" />
<glyph unicode="u" horiz-adv-x="422" d="M362 62l12 -46q2 -9 -5 -12l-47 -11q-7 -4 -9 5l-13 54q-47 -66 -113 -66q-51 0 -79.5 17.5t-44 69t-15.5 147.5v276q0 9 7 9h48q7 0 7 -9v-263v-57t2 -43t4 -33.5t7.5 -22t11.5 -16.5t17.5 -8.5t24 -5t32.5 -0.5q42 0 91 34v415q0 9 8 9h47q7 0 7 -9v-434z" />
<glyph unicode="v" horiz-adv-x="369" d="M147 9l-129 479q-4 9 4 11l48 12q7 2 9 -5l99 -392l8 -59l9 59l97 392q2 7 9 5l45 -12q9 -2 5 -11l-130 -479q-4 -9 -8 -9h-58q-4 0 -8 9z" />
<glyph unicode="w" horiz-adv-x="599" d="M334 496l86 -381l9 -61l7 61l79 391q2 7 9 5l45 -12q5 -1 5 -11l-111 -479q-2 -9 -8 -9h-55q-4 0 -8 9l-83 357l-11 69l-10 -69l-82 -357q-2 -9 -8 -9h-55q-4 0 -8 9l-109 479q-4 9 4 11l47 12q7 2 9 -5l83 -391l5 -61l8 61l84 381q0 9 8 9h52q6 0 8 -9z" />
<glyph unicode="x" horiz-adv-x="362" d="M24 24l128 232l-123 225q-5 7 1 13l39 23q2 2 5 1.5t4 -2.5l86 -163l17 -51l17 51l86 163q4 7 10 1l38 -23q6 -6 2 -13l-124 -225l128 -232q5 -7 -1 -13l-38 -23q-6 -6 -10 1l-87 163l-21 58l-20 -58l-88 -163q-1 -2 -4 -2.5t-5 1.5l-38 23q-6 5 -2 13z" />
<glyph unicode="y" horiz-adv-x="369" d="M351 488l-151 -567q-34 -124 -120 -124q-8 0 -9 10l-10 43q-1 3 -0.5 5t1.5 3.5t3 1.5q43 0 60.5 24.5t38.5 115.5h-6q-7 0 -10 8l-130 480q-4 9 4 11l49 12q7 2 9 -5l93 -371l12 -90l15 90l91 371q2 7 9 5l46 -12q9 -2 5 -11z" />
<glyph unicode="z" horiz-adv-x="358" d="M30 39l223 411h-210q-7 0 -7 9v37q0 9 7 9h285q7 0 7 -9v-11q0 -9 -5 -19l-221 -411h220q7 0 7 -9v-37q0 -9 -7 -9h-298q-7 0 -7 9v11q0 11 6 19z" />
<glyph unicode="{" horiz-adv-x="265" d="M260 -205q10 -3 4 -13l-21 -38q-4 -8 -12 -2q-122 51 -122 280q0 113 -20 157t-59 44q-9 0 -9 13v26q0 13 9 13q39 0 59 44t20 157q0 229 122 280q8 6 12 -2l21 -38q6 -10 -4 -13q-28 -10 -46 -31.5t-29 -70t-11 -125.5q0 -78 -13 -130.5t-27.5 -71.5t-30.5 -25 q16 -6 30.5 -25t27.5 -71.5t13 -130.5q0 -77 11 -125.5t29 -70t46 -31.5z" />
<glyph unicode="|" horiz-adv-x="244" d="M153 705v-899q0 -9 -7 -9h-48q-7 0 -7 9v899q0 9 7 9h48q7 0 7 -9z" />
<glyph unicode="}" horiz-adv-x="265" d="M7 703q-10 3 -4 13l21 38q4 8 12 2q122 -51 122 -280q0 -113 20 -157t59 -44q9 0 9 -13v-26q0 -13 -9 -13q-39 0 -59 -44t-20 -157q0 -229 -122 -280q-8 -6 -12 2l-21 38q-6 10 4 13q28 10 46 31.5t29 70t11 125.5q0 78 13 130.5t27.5 71.5t30.5 25q-16 6 -30.5 25 t-27.5 71.5t-13 130.5q0 77 -11 125.5t-29 70t-46 31.5z" />
<glyph unicode="~" horiz-adv-x="490" d="M155 375q-49 0 -68 -73q-4 -11 -11 -4l-30 19q-5 5 -2 15q32 106 106 106q34 0 100 -43t85 -43q49 0 68 73q3 11 10 4l31 -19q4 -4 2 -15q-32 -106 -107 -106q-32 0 -100 43t-84 43z" />
<glyph unicode="&#xa1;" horiz-adv-x="265" d="M131 422q-26 0 -35 9t-9 37q0 31 9.5 41t34.5 10q23 0 32.5 -10.5t9.5 -40.5q0 -28 -9 -37t-33 -9zM94 -193l10 504q0 9 7 9h38q7 0 7 -9l10 -504q0 -9 -7 -9h-58q-7 0 -7 9z" />
<glyph unicode="&#xa2;" horiz-adv-x="443" d="M281 744v-87q57 -4 91 -20q7 -4 4 -13l-14 -43q-2 -9 -8 -6q-34 17 -73 20v-408q36 3 73 21q6 3 8 -6l14 -43q3 -9 -4 -13q-37 -17 -91 -21v-80q0 -9 -7 -9h-37q-7 0 -7 9v81q-78 7 -110 66t-32 202q0 141 31.5 198.5t110.5 64.5v87q0 9 7 9h37q7 0 7 -9zM156 392 q0 -131 12 -166t62 -39v408q-50 -4 -62 -40.5t-12 -162.5z" />
<glyph unicode="&#xa3;" horiz-adv-x="443" d="M254 329h-99v-269h227q8 0 8 -9v-42q0 -9 -8 -9h-287q-7 0 -7 9v320h-28q-7 0 -7 9v40q0 9 7 9h28q1 134 22.5 206.5t58.5 96.5t103 24q63 0 132 -21q8 -2 4 -13l-13 -43q-2 -9 -8 -6q-48 21 -115 21q-29 0 -46 -2t-31.5 -13t-21 -25.5t-11.5 -48t-6 -71.5t-1 -105h99 q7 0 7 -9v-40q0 -9 -7 -9z" />
<glyph unicode="&#xa4;" horiz-adv-x="443" d="M222 86q-65 0 -99 23l-57 -119q-2 -2 -5 -2.5t-5 1.5l-41 25q-6 6 -1 14l69 127q-30 60 -30 200q0 138 30 197l-65 118q-4 8 2 14l41 25q2 2 5.5 1.5t4.5 -2.5l51 -112q36 23 100 23q62 0 98 -23l53 112q1 2 4.5 2.5t5.5 -1.5l41 -25q6 -6 2 -14l-66 -119q30 -56 30 -196 t-30 -200l70 -127q5 -8 -1 -14l-40 -25q-6 -6 -11 1l-57 119q-36 -23 -99 -23zM222 557q-31 0 -47.5 -4.5t-29 -14t-17 -36t-6.5 -57.5t-2 -92q0 -45 1 -71.5t2.5 -52t7 -37.5t11.5 -23t18.5 -14t26 -5t35.5 -2q26 0 40.5 1.5t27.5 10t18 19.5t9.5 37t5 55t0.5 82 q0 61 -2 92t-6.5 57.5t-16.5 36t-29 14t-47 4.5z" />
<glyph unicode="&#xa5;" horiz-adv-x="443" d="M374 209h-118v-200q0 -9 -7 -9h-52q-8 0 -8 9v200h-119q-7 0 -7 9v39q0 9 7 9h119v75l-175 329q-5 8 1 14l40 25q6 6 11 -1l135 -264l22 -54l22 54l133 264q2 2 5 2.5t5 -1.5l41 -25q6 -6 1 -14l-174 -329v-75h118q8 0 8 -9v-39q0 -9 -8 -9z" />
<glyph unicode="&#xa6;" horiz-adv-x="244" d="M153 705v-319q0 -9 -7 -9h-48q-7 0 -7 9v319q0 9 7 9h48q7 0 7 -9zM153 125v-319q0 -9 -7 -9h-48q-7 0 -7 9v319q0 9 7 9h48q7 0 7 -9z" />
<glyph unicode="&#xa7;" horiz-adv-x="477" d="M210 -151q36 0 56 1.5t38 10.5t26 20.5t14 38.5t7 57.5t2 83.5l-71 5q-67 4 -106.5 17t-70.5 47t-43 95t-12 160q0 138 20.5 208t64.5 95.5t131 25.5q72 0 139 -25q6 -3 4 -13l-15 -43q0 -9 -8 -6q-55 25 -120 25q-35 0 -55.5 -2t-38.5 -10.5t-25.5 -20.5t-13.5 -38.5 t-7.5 -57t-2.5 -83.5q4 0 72 -5q67 -4 106.5 -17t70 -47t42.5 -95t12 -160q0 -84 -7 -140t-21 -94t-40.5 -58.5t-60.5 -28.5t-86 -8q-72 0 -139 25q-7 4 -4 13l14 43q2 9 8 6q57 -25 120 -25zM282 129q29 -1 72 -6q0 61 -2 97.5t-9.5 66.5t-16 44t-29.5 24t-42 12.5t-61 4.5 q-31 1 -71 6q0 -60 1.5 -97t9 -67t16.5 -44t29.5 -24t42 -12.5t60.5 -4.5z" />
<glyph unicode="&#xa8;" horiz-adv-x="326" d="M92 667q20 0 28.5 -7.5t8.5 -31.5q0 -26 -8.5 -34.5t-28.5 -8.5q-21 0 -29.5 8.5t-8.5 34.5q0 24 8.5 31.5t29.5 7.5zM235 667q20 0 28.5 -7.5t8.5 -31.5q0 -26 -8.5 -34.5t-28.5 -8.5t-28.5 8.5t-8.5 34.5q0 24 8.5 31.5t28.5 7.5z" />
<glyph unicode="&#xa9;" horiz-adv-x="698" d="M349 -14q-104 0 -164.5 31t-92 111.5t-31.5 223.5q0 106 16.5 176.5t53.5 111.5t89 57.5t129 16.5q103 0 164 -31t93 -111t32 -220q0 -142 -32 -223t-92.5 -112t-164.5 -31zM348 657q-57 0 -93 -8t-62.5 -26t-39.5 -55t-19 -87.5t-6 -130.5q0 -184 42.5 -244t177.5 -60 q137 0 180 60t43 244q0 67 -3.5 112t-13.5 81t-25 56.5t-41.5 34.5t-59 18.5t-80.5 4.5zM363 179q56 0 93 19q6 2 8 -6l13 -41q2 -10 -4 -13q-45 -21 -110 -21q-94 0 -131.5 53t-37.5 186q0 131 37.5 182.5t131.5 51.5q65 0 110 -21q6 -3 4 -13l-13 -41q-2 -8 -8 -6 q-37 19 -93 19q-69 0 -85.5 -29t-16.5 -145q0 -66 2 -96t14 -50.5t30 -24.5t56 -4z" />
<glyph unicode="&#xaa;" horiz-adv-x="313" d="M154 581q-43 0 -53.5 -12.5t-10.5 -55.5t10.5 -56t53.5 -13q32 0 66 22v94q-32 21 -66 21zM152 790q67 0 94.5 -33.5t27.5 -124.5v-182l8 -33q4 -11 -7 -15l-34 -9q-8 -5 -12 6l-8 31q-34 -42 -73 -42q-65 0 -90.5 29.5t-25.5 95.5q0 65 25.5 94t90.5 29q39 0 72 -38v34 q0 65 -12 84.5t-56 19.5q-43 0 -78 -16q-8 -4 -11 6l-5 36q-3 10 7 14q40 14 87 14z" />
<glyph unicode="&#xab;" horiz-adv-x="515" d="M298 557l-204 -259l204 -261q6 -6 -1 -13l-25 -29q-6 -6 -10 2l-226 278q-4 4 -4 12v21q0 7 4 11l226 278q4 8 10 2l25 -29q7 -7 1 -13zM481 557l-204 -259l204 -261q6 -6 -1 -13l-25 -29q-6 -6 -10 2l-226 278q-4 4 -4 12v21q0 7 4 11l226 278q4 8 10 2l25 -29 q7 -7 1 -13z" />
<glyph unicode="&#xac;" horiz-adv-x="435" d="M50 306h336q7 0 7 -9v-288q0 -9 -7 -9h-53q-7 0 -7 9v236h-276q-8 0 -8 9v43q0 9 8 9z" />
<glyph unicode="&#xad;" horiz-adv-x="0" />
<glyph unicode="&#xae;" horiz-adv-x="410" d="M179 460v-100q0 -11 -10 -11h-27q-8 0 -8 11v255q0 12 8 12h88q60 0 60 -83q0 -71 -44 -82l46 -88q3 -6 3 -11q0 -4 -6 -8l-20 -8q-11 -7 -17 6l-47 107h-26zM179 587v-89h44q11 0 14.5 8.5t3.5 37.5q0 27 -3.5 35t-14.5 8h-44zM378 486q0 -130 -40.5 -180.5 t-132.5 -50.5t-132.5 50.5t-40.5 180.5q0 129 40.5 178.5t132.5 49.5t132.5 -49.5t40.5 -178.5zM335 486q0 115 -24.5 151.5t-105.5 36.5q-80 0 -104.5 -37t-24.5 -151q0 -111 25.5 -150t103.5 -39q80 0 105 39t25 150z" />
<glyph unicode="&#xaf;" horiz-adv-x="426" d="M302 598h-184q-7 0 -7 9v40q0 9 7 9h184q8 0 8 -9v-40q0 -9 -8 -9z" />
<glyph unicode="&#xb0;" horiz-adv-x="326" d="M163 277q-63 0 -93 49t-30 173q0 122 29.5 168.5t93.5 46.5t93.5 -46t29.5 -169q0 -124 -29.5 -173t-93.5 -49zM163 661q-39 0 -51.5 -31.5t-12.5 -132.5q0 -98 13 -133t51 -35q40 0 52.5 34.5t12.5 133.5q0 103 -12 133.5t-53 30.5z" />
<glyph unicode="&#xb1;" horiz-adv-x="435" d="M189 139v180h-139q-8 0 -8 9v43q0 9 8 9h139v179q0 9 7 9h44q7 0 7 -9v-179h139q7 0 7 -9v-43q0 -9 -7 -9h-139v-180q0 -9 -7 -9h-44q-7 0 -7 9zM386 0h-336q-8 0 -8 9v43q0 9 8 9h336q7 0 7 -9v-43q0 -9 -7 -9z" />
<glyph unicode="&#xb2;" d="M158 801q-45 0 -84 -16q-8 -2 -11 10l-10 28q-2 10 5 14q42 19 100 19q67 0 99.5 -30t32.5 -98q0 -58 -17.5 -99.5t-68.5 -92.5l-86 -86h158q10 0 10 -12v-27q0 -12 -10 -12h-222q-10 0 -10 12v31q0 9 9 18l121 124q34 36 43.5 61t9.5 80q0 43 -14.5 59.5t-54.5 16.5z " />
<glyph unicode="&#xb3;" d="M153 610h-45q-10 0 -10 11v28q0 12 10 12h45q41 0 53.5 14t12.5 56q0 43 -14.5 57t-55.5 14q-37 0 -85 -13q-11 -2 -14 7l-8 28v-1q-3 14 5 18q46 15 102 15q76 0 103.5 -31.5t27.5 -90.5q0 -36 -16 -62.5t-41 -33.5q28 -6 46.5 -36t18.5 -73q0 -73 -32 -107.5 t-110 -34.5q-49 0 -100 16q-7 4 -4 16l10 27q4 11 15 8q37 -14 79 -14q49 0 64.5 17.5t15.5 71.5q0 51 -14 66t-59 15z" />
<glyph unicode="&#xb4;" horiz-adv-x="395" d="M242 673l-95 -112q-6 -4 -12 -1l-21 18q-3 2 -5.5 6t-1.5 7l83 115q7 7 14 3l37 -21q4 -1 4 -6.5t-3 -8.5z" />
<glyph unicode="&#xb5;" horiz-adv-x="418" d="M362 62l12 -46q2 -9 -5 -12l-47 -11q-7 -4 -9 5l-13 54q-47 -66 -113 -66q-55 0 -86 31l4 -213q0 -7 -5 -7h-46q-6 0 -6 7v692q0 9 7 9h48q7 0 7 -9v-263q0 -56 2 -86.5t6 -53t15.5 -31t24.5 -11.5t40 -3q54 0 102 33v415q0 9 8 9h47q7 0 7 -9v-434z" />
<glyph unicode="&#xb6;" horiz-adv-x="465" d="M164 697h222q7 0 7 -9v-715q0 -80 -39 -128t-91 -48q-8 0 -9 10l-9 43q-2 8 5 10q48 8 62 27t14 85v325h-162q-76 0 -108 51.5t-32 150.5q0 97 36 147.5t104 50.5z" />
<glyph unicode="&#xb7;" horiz-adv-x="205" d="M102 354q25 0 34 -9t9 -37q0 -31 -9 -41t-34 -10q-24 0 -33 10t-9 41q0 28 9 37t33 9z" />
<glyph unicode="&#xb8;" horiz-adv-x="523" d="M202 -176l12 26q3 6 7 4q31 -14 66 -14q24 0 31.5 7t7.5 29q0 23 -12 28t-72 5q-3 0 -5 3.5t-1 7.5l26 80h28v-52q54 0 74.5 -16t20.5 -54q0 -43 -21 -62t-74 -19q-60 0 -85 17q-3 2 -3 10z" />
<glyph unicode="&#xb9;" d="M74 776l94 67q6 4 11 4h41q11 0 11 -15v-420q0 -13 -11 -13h-36q-11 0 -11 13v368l-73 -52q-8 -5 -12 3l-18 29q-5 10 4 16z" />
<glyph unicode="&#xba;" horiz-adv-x="328" d="M164 736q-49 0 -60.5 -24t-11.5 -122q0 -55 1.5 -80.5t10.5 -42.5t21 -20t39 -3q50 0 61 22.5t11 123.5q0 98 -11.5 122t-60.5 24zM164 388q-73 0 -101 43.5t-28 159.5q0 115 28 157t101 42t101 -42t28 -157q0 -116 -28 -159.5t-101 -43.5z" />
<glyph unicode="&#xbb;" horiz-adv-x="502" d="M218 37l204 259l-204 261q-6 6 1 13l25 29q6 6 10 -2l226 -278q4 -4 4 -12v-21q0 -7 -4 -11l-226 -278q-4 -8 -10 -2l-25 29q-7 7 -1 13zM35 37l204 259l-204 261q-6 6 1 13l25 29q6 6 10 -2l226 -278q4 -4 4 -12v-21q0 -7 -4 -11l-226 -278q-4 -8 -10 -2l-25 29 q-7 7 -1 13z" />
<glyph unicode="&#xbc;" horiz-adv-x="774" d="M603 700l-413 -735q-6 -9 -11 -2l-34 21q-2 2 -4 3q-3 1 -1 3l413 736q6 6 10 2l39 -15q6 -6 1 -13zM80 626l94 67q6 4 11 4h41q11 0 11 -15v-420q0 -13 -11 -13h-36q-11 0 -11 13v368l-73 -52q-8 -5 -12 3l-18 29q-5 10 4 16zM633 433v-270h41q11 0 11 -12v-24 q0 -9 -2.5 -11t-8.5 -2h-41v-100q0 -14 -10 -14h-35q-10 0 -10 14v100h-152q-10 0 -10 13v22q0 9 4 17l136 274q3 8 14 8h51q12 0 12 -15zM472 163h106v191l3 47l-14 -44z" />
<glyph unicode="&#xbd;" horiz-adv-x="774" d="M571 700l-413 -735q-6 -9 -11 -2l-34 21q-2 2 -4 3q-3 1 -1 3l413 736q6 6 10 2l39 -15q6 -6 1 -13zM64 626l94 67q6 4 11 4h41q11 0 11 -15v-420q0 -13 -11 -13h-36q-11 0 -11 13v368l-73 -52q-8 -5 -12 3l-18 29q-5 10 4 16zM573 402q-45 0 -84 -16q-8 -2 -11 10 l-10 28q-2 10 5 14q42 19 100 19q67 0 99.5 -30t32.5 -98q0 -58 -17.5 -99.5t-68.5 -92.5l-86 -86h158q10 0 10 -12v-27q0 -12 -10 -12h-222q-10 0 -10 12v31q0 9 9 18l121 124q34 36 43.5 61t9.5 80q0 43 -15 59.5t-54 16.5z" />
<glyph unicode="&#xbe;" horiz-adv-x="774" d="M645 700l-413 -735q-6 -9 -11 -2l-34 21q-2 2 -4 3q-3 1 -1 3l413 736q6 6 10 2l39 -15q6 -6 1 -13zM183 460h-45q-10 0 -10 11v28q0 12 10 12h45q41 0 53.5 14t12.5 56q0 43 -14.5 57t-55.5 14q-37 0 -85 -13q-11 -2 -14 7l-8 28v-1q-3 14 5 18q47 15 102 15 q76 0 103.5 -31.5t27.5 -90.5q0 -36 -16 -62.5t-41 -33.5q28 -6 46.5 -36t18.5 -73q0 -73 -32 -107.5t-110 -34.5q-49 0 -100 16q-7 4 -4 16l10 27q4 11 15 8q37 -14 79 -14q49 0 64.5 17.5t15.5 71.5q0 51 -14 66t-59 15zM657 433v-270h41q11 0 11 -12v-24q0 -9 -2.5 -11 t-8.5 -2h-41v-100q0 -14 -10 -14h-35q-10 0 -10 14v100h-152q-10 0 -10 13v22q0 9 4 17l136 274q3 8 14 8h51q12 0 12 -15zM496 163h106v191l3 47l-14 -44z" />
<glyph unicode="&#xbf;" horiz-adv-x="331" d="M195 422q-26 0 -35 9t-9 37q0 31 9.5 41t34.5 10q23 0 32 -10t9 -41q0 -28 -8.5 -37t-32.5 -9zM98 -12q0 -86 12.5 -106t72.5 -20q51 0 100 23q6 3 8 -6l15 -47q3 -9 -4 -13q-59 -21 -117 -21q-83 0 -119.5 42t-36.5 148q0 72 17.5 121.5t56.5 100.5l85 111q5 7 11 2 l38 -29q7 -5 1 -13l-85 -115q-40 -53 -47.5 -78t-7.5 -100z" />
<glyph unicode="&#xc0;" horiz-adv-x="452" d="M325 210h-201l-55 -213q-2 -7 -9 -5l-46 12q-9 2 -5 11l178 673q4 9 8 9h63q4 0 8 -9l177 -673q4 -9 -5 -11l-48 -12q-7 -2 -9 5zM311 267l-76 310l-11 79l-11 -79l-75 -310h173zM252 743l-104 112q-3 3 -3 8.5t4 6.5l40 16q8 4 13 -3l92 -113q2 -3 2 -7.5t-3 -5.5 l-30 -15q-7 -3 -11 1z" />
<glyph unicode="&#xc1;" horiz-adv-x="452" d="M325 210h-201l-55 -213q-2 -7 -9 -5l-46 12q-9 2 -5 11l178 673q4 9 8 9h63q4 0 8 -9l177 -673q4 -9 -5 -11l-48 -12q-7 -2 -9 5zM311 267l-76 310l-11 79l-11 -79l-75 -310h173zM333 855l-104 -112q-6 -4 -12 -1l-29 15q-3 1 -3.5 5.5t1.5 7.5l92 113q5 7 14 3l40 -16 q4 -1 4 -6.5t-3 -8.5z" />
<glyph unicode="&#xc2;" horiz-adv-x="452" d="M325 210h-201l-55 -213q-2 -7 -9 -5l-46 12q-9 2 -5 11l178 673q4 9 8 9h63q4 0 8 -9l177 -673q4 -9 -5 -11l-48 -12q-7 -2 -9 5zM311 267l-76 310l-11 79l-11 -79l-75 -310h173zM208 876h35q11 0 18 -8l81 -84q6 -8 -4 -13l-29 -22q-5 -3 -10 4l-73 79l-73 -79 q-7 -7 -11 -4l-29 22q-3 2 -4.5 6t1.5 7l80 84q7 8 18 8z" />
<glyph unicode="&#xc3;" horiz-adv-x="452" d="M325 210h-201l-55 -213q-2 -7 -9 -5l-46 12q-9 2 -5 11l178 673q4 9 8 9h63q4 0 8 -9l177 -673q4 -9 -5 -11l-48 -12q-7 -2 -9 5zM311 267l-76 310l-11 79l-11 -79l-75 -310h173zM173 808q-20 0 -28.5 -9.5t-16.5 -35.5q-4 -11 -10 -4l-29 16q-5 5 -2 15q29 75 87 75 q26 0 43 -13.5t31 -27t31 -13.5q20 0 29 9.5t16 35.5q4 11 11 4l28 -16q5 -5 2 -15q-29 -75 -84 -75q-26 0 -44.5 13.5t-33.5 27t-30 13.5z" />
<glyph unicode="&#xc4;" horiz-adv-x="452" d="M325 210h-201l-55 -213q-2 -7 -9 -5l-46 12q-9 2 -5 11l178 673q4 9 8 9h63q4 0 8 -9l177 -673q4 -9 -5 -11l-48 -12q-7 -2 -9 5zM311 267l-76 310l-11 79l-11 -79l-75 -310h173zM151 847q20 0 28.5 -7.5t8.5 -31.5q0 -26 -8.5 -34.5t-28.5 -8.5t-28.5 8.5t-8.5 34.5 q0 24 8.5 31.5t28.5 7.5zM303 847q20 0 28 -7.5t8 -31.5q0 -26 -8 -34.5t-28 -8.5q-21 0 -29.5 8.5t-8.5 34.5q0 24 8.5 31.5t29.5 7.5z" />
<glyph unicode="&#xc5;" horiz-adv-x="452" d="M226 873q88 0 88 -94q0 -70 -50 -88l2 -3l177 -673q4 -9 -5 -11l-48 -12q-7 -2 -9 5l-56 213h-201l-55 -213q-2 -7 -9 -5l-46 12q-9 2 -5 11l178 673q0 2 1 3q-49 18 -49 88q0 48 20 71t67 23zM311 267l-76 310l-11 79l-11 -79l-75 -310h173zM226 832q-24 0 -31.5 -13.5 t-7.5 -41.5t7.5 -42t31.5 -14q25 0 32.5 14t7.5 42q0 19 -2 29.5t-11 18t-27 7.5z" />
<glyph unicode="&#xc6;" horiz-adv-x="657" d="M626 0h-312q-7 0 -7 9v201h-215l-110 -213q-4 -7 -10 -5l-48 12q-7 2 -2 11l356 673q5 9 10 9h338q7 0 7 -9v-42q0 -9 -7 -9h-252v-237h204q7 0 7 -9v-42q0 -9 -7 -9h-204v-280h252q7 0 7 -9v-42q0 -9 -7 -9zM307 634l-186 -367h186v367z" />
<glyph unicode="&#xc7;" horiz-adv-x="442" d="M197 -176l12 26q3 6 7 4q31 -14 66 -14q24 0 31.5 7t7.5 29q0 23 -12 28t-72 5q-3 0 -5 3.5t-1 7.5l21 67q-75 4 -117 36t-63.5 111t-21.5 221q0 110 12.5 180t42 110t71 54.5t106.5 14.5q72 0 139 -25q6 -3 4 -13l-11 -43q0 -9 -8 -6q-55 25 -124 25q-38 0 -61 -3 t-42.5 -15.5t-29 -30t-16 -53.5t-8.5 -80t-2 -115q0 -73 2 -118.5t8.5 -82.5t16 -55.5t29.5 -31t42.5 -15.5t60.5 -3q71 0 124 24q8 3 8 -6l11 -43q2 -10 -4 -13q-66 -24 -136 -25v-38q54 0 74.5 -16t20.5 -54q0 -43 -21 -62t-74 -19q-60 0 -85 17q-3 2 -3 10z" />
<glyph unicode="&#xc8;" horiz-adv-x="422" d="M390 0h-311q-7 0 -7 9v679q0 9 7 9h311q8 0 8 -9v-42q0 -9 -8 -9h-251v-237h203q8 0 8 -9v-42q0 -9 -8 -9h-203v-280h251q8 0 8 -9v-42q0 -9 -8 -9zM264 743l-104 112q-3 3 -3 8.5t4 6.5l40 16q8 4 13 -3l92 -113q2 -3 2 -7.5t-3 -5.5l-30 -15q-7 -3 -11 1z" />
<glyph unicode="&#xc9;" horiz-adv-x="422" d="M390 0h-311q-7 0 -7 9v679q0 9 7 9h311q8 0 8 -9v-42q0 -9 -8 -9h-251v-237h203q8 0 8 -9v-42q0 -9 -8 -9h-203v-280h251q8 0 8 -9v-42q0 -9 -8 -9zM340 855l-104 -112q-6 -4 -12 -1l-29 15q-3 1 -3.5 5.5t1.5 7.5l92 113q5 7 14 3l40 -16q4 -1 4 -6.5t-3 -8.5z" />
<glyph unicode="&#xca;" horiz-adv-x="422" d="M390 0h-311q-7 0 -7 9v679q0 9 7 9h311q8 0 8 -9v-42q0 -9 -8 -9h-251v-237h203q8 0 8 -9v-42q0 -9 -8 -9h-203v-280h251q8 0 8 -9v-42q0 -9 -8 -9zM224 876h35q11 0 18 -8l81 -84q6 -8 -4 -13l-29 -22q-5 -3 -10 4l-73 79l-73 -79q-7 -7 -11 -4l-29 22q-3 2 -4.5 6 t1.5 7l80 84q7 8 18 8z" />
<glyph unicode="&#xcb;" horiz-adv-x="422" d="M390 0h-311q-7 0 -7 9v679q0 9 7 9h311q8 0 8 -9v-42q0 -9 -8 -9h-251v-237h203q8 0 8 -9v-42q0 -9 -8 -9h-203v-280h251q8 0 8 -9v-42q0 -9 -8 -9zM164 847q20 0 28.5 -7.5t8.5 -31.5q0 -26 -8.5 -34.5t-28.5 -8.5t-28.5 8.5t-8.5 34.5q0 24 8.5 31.5t28.5 7.5zM316 847 q20 0 28 -7.5t8 -31.5q0 -26 -8 -34.5t-28 -8.5q-21 0 -29.5 8.5t-8.5 34.5q0 24 8.5 31.5t29.5 7.5z" />
<glyph unicode="&#xcc;" horiz-adv-x="211" d="M139 688v-679q0 -9 -7 -9h-53q-7 0 -7 9v679q0 9 7 9h53q7 0 7 -9zM102 743l-104 112q-3 3 -3 8.5t4 6.5l40 16q8 4 13 -3l92 -113q2 -3 2 -7.5t-3 -5.5l-30 -15q-7 -3 -11 1z" />
<glyph unicode="&#xcd;" horiz-adv-x="211" d="M139 688v-679q0 -9 -7 -9h-53q-7 0 -7 9v679q0 9 7 9h53q7 0 7 -9zM216 855l-104 -112q-6 -4 -12 -1l-29 15q-3 1 -3.5 5.5t1.5 7.5l92 113q5 7 14 3l40 -16q4 -1 4 -6.5t-3 -8.5z" />
<glyph unicode="&#xce;" horiz-adv-x="211" d="M139 688v-679q0 -9 -7 -9h-53q-7 0 -7 9v679q0 9 7 9h53q7 0 7 -9zM87 876h35q11 0 18 -8l81 -84q6 -8 -4 -13l-29 -22q-5 -3 -10 4l-73 79l-73 -79q-8 -7 -11 -4l-29 22q-3 2 -4.5 6t1.5 7l80 84q7 8 18 8z" />
<glyph unicode="&#xcf;" horiz-adv-x="211" d="M139 688v-679q0 -9 -7 -9h-53q-7 0 -7 9v679q0 9 7 9h53q7 0 7 -9zM30 847q20 0 28.5 -7.5t8.5 -31.5q0 -26 -8.5 -34.5t-28.5 -8.5t-28.5 8.5t-8.5 34.5q0 24 8.5 31.5t28.5 7.5zM182 847q20 0 28 -7.5t8 -31.5q0 -26 -8 -34.5t-28 -8.5q-21 0 -29.5 8.5t-8.5 34.5 q0 24 8.5 31.5t29.5 7.5z" />
<glyph unicode="&#xd0;" horiz-adv-x="512" d="M79 0q-7 0 -7 9v320h-40q-7 0 -7 9v40q0 9 7 9h40v301q0 9 7 9h147q90 0 139.5 -30.5t73 -105.5t23.5 -211q0 -200 -51.5 -275t-184.5 -75h-147zM224 329h-85v-269h87q46 0 74 8t47.5 24.5t28 53.5t11.5 81.5t3 122.5q0 82 -3.5 127.5t-11.5 81.5t-28 50.5t-47 21 t-74 6.5h-87v-250h85q7 0 7 -9v-40q0 -9 -7 -9z" />
<glyph unicode="&#xd1;" horiz-adv-x="521" d="M163 688l198 -521l26 -101l-3 105v517q0 9 7 9h51q7 0 7 -9v-679q-4 -9 -8 -9h-71q-7 0 -12 9l-198 521l-27 92l4 -96v-517q0 -9 -7 -9h-51q-7 0 -7 9v679q4 9 8 9h71q7 0 12 -9zM207 808q-20 0 -28.5 -9.5t-16.5 -35.5q-4 -11 -10 -4l-29 16q-5 5 -2 15q29 75 87 75 q26 0 43 -13.5t31 -27t31 -13.5q20 0 29 9.5t16 35.5q4 11 11 4l28 -16q5 -5 2 -15q-29 -75 -84 -75q-26 0 -44.5 13.5t-33.5 27t-30 13.5z" />
<glyph unicode="&#xd2;" horiz-adv-x="531" d="M266 52q63 0 90 19t39.5 81.5t12.5 202.5q0 135 -12.5 196t-39.5 79.5t-90 18.5q-38 0 -60 -5.5t-40 -21t-26.5 -49.5t-12.5 -85t-4 -133q0 -85 4 -137.5t12.5 -87.5t26.5 -51t40 -21.5t60 -5.5zM266 -14q-56 0 -93.5 15t-66.5 55t-42.5 113.5t-13.5 185.5 q0 109 13.5 180t42.5 110t66.5 54t93.5 15t93.5 -15t66 -54t42 -110t13.5 -180q0 -112 -13.5 -185.5t-42 -113.5t-66 -55t-93.5 -15zM302 743l-104 112q-3 3 -3 8.5t4 6.5l40 16q8 4 13 -3l92 -113q2 -3 2 -7.5t-3 -5.5l-30 -15q-7 -3 -11 1z" />
<glyph unicode="&#xd3;" horiz-adv-x="531" d="M266 52q63 0 90 19t39.5 81.5t12.5 202.5q0 135 -12.5 196t-39.5 79.5t-90 18.5q-38 0 -60 -5.5t-40 -21t-26.5 -49.5t-12.5 -85t-4 -133q0 -85 4 -137.5t12.5 -87.5t26.5 -51t40 -21.5t60 -5.5zM266 -14q-56 0 -93.5 15t-66.5 55t-42.5 113.5t-13.5 185.5 q0 109 13.5 180t42.5 110t66.5 54t93.5 15t93.5 -15t66 -54t42 -110t13.5 -180q0 -112 -13.5 -185.5t-42 -113.5t-66 -55t-93.5 -15zM357 855l-104 -112q-6 -4 -12 -1l-29 15q-3 1 -3.5 5.5t1.5 7.5l92 113q5 7 14 3l40 -16q4 -1 4 -6.5t-3 -8.5z" />
<glyph unicode="&#xd4;" horiz-adv-x="531" d="M266 52q63 0 90 19t39.5 81.5t12.5 202.5q0 135 -12.5 196t-39.5 79.5t-90 18.5q-38 0 -60 -5.5t-40 -21t-26.5 -49.5t-12.5 -85t-4 -133q0 -85 4 -137.5t12.5 -87.5t26.5 -51t40 -21.5t60 -5.5zM266 -14q-56 0 -93.5 15t-66.5 55t-42.5 113.5t-13.5 185.5 q0 109 13.5 180t42.5 110t66.5 54t93.5 15t93.5 -15t66 -54t42 -110t13.5 -180q0 -112 -13.5 -185.5t-42 -113.5t-66 -55t-93.5 -15zM247 876h35q11 0 18 -8l81 -84q6 -8 -4 -13l-29 -22q-5 -3 -10 4l-73 79l-73 -79q-8 -7 -11 -4l-29 22q-3 2 -4.5 6t1.5 7l80 84q7 8 18 8z " />
<glyph unicode="&#xd5;" horiz-adv-x="531" d="M266 52q63 0 90 19t39.5 81.5t12.5 202.5q0 135 -12.5 196t-39.5 79.5t-90 18.5q-38 0 -60 -5.5t-40 -21t-26.5 -49.5t-12.5 -85t-4 -133q0 -85 4 -137.5t12.5 -87.5t26.5 -51t40 -21.5t60 -5.5zM266 -14q-56 0 -93.5 15t-66.5 55t-42.5 113.5t-13.5 185.5 q0 109 13.5 180t42.5 110t66.5 54t93.5 15t93.5 -15t66 -54t42 -110t13.5 -180q0 -112 -13.5 -185.5t-42 -113.5t-66 -55t-93.5 -15zM212 808q-20 0 -28.5 -9.5t-16.5 -35.5q-3 -11 -10 -4l-29 16q-5 5 -2 15q29 75 87 75q26 0 43 -13.5t31 -27t31 -13.5q20 0 29 9.5 t16 35.5q4 11 11 4l28 -16q5 -5 2 -15q-29 -75 -84 -75q-26 0 -44.5 13.5t-33.5 27t-30 13.5z" />
<glyph unicode="&#xd6;" horiz-adv-x="531" d="M266 52q63 0 90 19t39.5 81.5t12.5 202.5q0 135 -12.5 196t-39.5 79.5t-90 18.5q-38 0 -60 -5.5t-40 -21t-26.5 -49.5t-12.5 -85t-4 -133q0 -85 4 -137.5t12.5 -87.5t26.5 -51t40 -21.5t60 -5.5zM266 -14q-56 0 -93.5 15t-66.5 55t-42.5 113.5t-13.5 185.5 q0 109 13.5 180t42.5 110t66.5 54t93.5 15t93.5 -15t66 -54t42 -110t13.5 -180q0 -112 -13.5 -185.5t-42 -113.5t-66 -55t-93.5 -15zM190 847q20 0 28.5 -7.5t8.5 -31.5q0 -26 -8.5 -34.5t-28.5 -8.5t-28.5 8.5t-8.5 34.5q0 24 8.5 31.5t28.5 7.5zM342 847q20 0 28 -7.5 t8 -31.5q0 -26 -8 -34.5t-28 -8.5q-21 0 -29.5 8.5t-8.5 34.5q0 24 8.5 31.5t29.5 7.5z" />
<glyph unicode="&#xd7;" horiz-adv-x="435" d="M309 105l-91 128l-92 -128q-5 -5 -10 0l-34 31q-8 6 0 12l101 128l-101 126q-5 6 0 13l34 30q6 8 10 0l92 -126l91 126q5 7 10 0l35 -30q3 -7 0 -13l-102 -126l102 -128q6 -6 0 -12l-34 -31q-6 -5 -11 0z" />
<glyph unicode="&#xd8;" horiz-adv-x="531" d="M480 715l-45 -86q46 -82 46 -274q0 -112 -13.5 -185.5t-42 -113.5t-66 -55t-93.5 -15q-92 0 -139 44l-40 -77q-1 -4 -4 -5t-5 1l-32 19q-7 5 -3 11l51 97q-44 85 -44 279q0 109 13.5 180t42.5 110t66.5 54t93.5 15q89 0 134 -40l35 68q5 7 10 4l32 -20q6 -4 3 -11z M266 52q63 0 90 19t39.5 81.5t12.5 202.5q0 146 -14 197l-238 -466q28 -34 110 -34zM123 355q0 -143 14 -200l235 464q-28 30 -106 30q-38 0 -60 -5.5t-40 -21t-26.5 -49.5t-12.5 -85t-4 -133z" />
<glyph unicode="&#xd9;" horiz-adv-x="510" d="M380 247v441q0 9 7 9h52q7 0 7 -9v-441q0 -141 -43 -201t-148 -60t-148 60t-43 201v441q0 9 7 9h53q7 0 7 -9v-441q0 -56 2 -85.5t8 -55t21 -35t36 -14.5t58 -5q30 0 49 2.5t34 11.5t22.5 20t12 36t5.5 51.5t1 73.5zM276 743l-104 112q-3 3 -3 8.5t4 6.5l40 16q8 4 13 -3 l92 -113q2 -3 2 -7.5t-3 -5.5l-30 -15q-7 -3 -11 1z" />
<glyph unicode="&#xda;" horiz-adv-x="510" d="M380 247v441q0 9 7 9h52q7 0 7 -9v-441q0 -141 -43 -201t-148 -60t-148 60t-43 201v441q0 9 7 9h53q7 0 7 -9v-441q0 -56 2 -85.5t8 -55t21 -35t36 -14.5t58 -5q30 0 49 2.5t34 11.5t22.5 20t12 36t5.5 51.5t1 73.5zM363 855l-104 -112q-6 -4 -12 -1l-29 15 q-3 1 -3.5 5.5t1.5 7.5l92 113q5 7 14 3l40 -16q4 -1 4 -6.5t-3 -8.5z" />
<glyph unicode="&#xdb;" horiz-adv-x="510" d="M380 247v441q0 9 7 9h52q7 0 7 -9v-441q0 -141 -43 -201t-148 -60t-148 60t-43 201v441q0 9 7 9h53q7 0 7 -9v-441q0 -56 2 -85.5t8 -55t21 -35t36 -14.5t58 -5q30 0 49 2.5t34 11.5t22.5 20t12 36t5.5 51.5t1 73.5zM237 876h35q11 0 18 -8l81 -84q6 -8 -4 -13l-29 -22 q-5 -3 -10 4l-73 79l-73 -79q-8 -7 -11 -4l-29 22q-3 2 -4.5 6t1.5 7l80 84q7 8 18 8z" />
<glyph unicode="&#xdc;" horiz-adv-x="510" d="M380 247v441q0 9 7 9h52q7 0 7 -9v-441q0 -141 -43 -201t-148 -60t-148 60t-43 201v441q0 9 7 9h53q7 0 7 -9v-441q0 -56 2 -85.5t8 -55t21 -35t36 -14.5t58 -5q30 0 49 2.5t34 11.5t22.5 20t12 36t5.5 51.5t1 73.5zM180 847q20 0 28.5 -7.5t8.5 -31.5q0 -26 -8.5 -34.5 t-28.5 -8.5t-28.5 8.5t-8.5 34.5q0 24 8.5 31.5t28.5 7.5zM332 847q20 0 28 -7.5t8 -31.5q0 -26 -8 -34.5t-28 -8.5q-21 0 -29.5 8.5t-8.5 34.5q0 24 8.5 31.5t29.5 7.5z" />
<glyph unicode="&#xdd;" horiz-adv-x="436" d="M185 341l-175 329q-5 8 1 14l37 25q6 6 11 -1l138 -264l22 -54l22 54l136 264q2 2 5 2.5t5 -1.5l38 -25q6 -6 1 -14l-174 -329v-332q0 -9 -7 -9h-52q-8 0 -8 9v332zM323 855l-104 -112q-6 -4 -12 -1l-29 15q-3 1 -3.5 5.5t1.5 7.5l92 113q5 7 14 3l40 -16q4 -1 4 -6.5 t-3 -8.5z" />
<glyph unicode="&#xde;" horiz-adv-x="465" d="M139 688v-117h162q67 0 103.5 -50.5t36.5 -147.5q0 -99 -32.5 -150.5t-107.5 -51.5h-162v-162q0 -9 -7 -9h-53q-7 0 -7 9v679q0 9 7 9h53q7 0 7 -9zM301 511h-162v-280h162q40 0 54 28t14 114q0 83 -13.5 110.5t-54.5 27.5z" />
<glyph unicode="&#xdf;" horiz-adv-x="458" d="M206 0q-7 0 -7 9v42q0 9 7 9q48 0 71.5 3t41 17.5t22 40t4.5 73.5q0 94 -19.5 120t-95.5 26h-24q-7 0 -7 9v42q0 9 7 9h24q67 0 86 26t19 109q0 75 -18.5 96.5t-91.5 21.5q-56 0 -74 -21t-18 -92v-531q0 -9 -7 -9h-48q-7 0 -7 9v531q0 90 35 132t119 42q101 0 140 -40.5 t39 -129.5q0 -155 -102 -169q113 -8 113 -181q0 -113 -46.5 -153.5t-162.5 -40.5z" />
<glyph unicode="&#xe0;" horiz-adv-x="418" d="M205 248q-62 0 -77 -18.5t-15 -81.5t15 -81.5t77 -18.5q47 0 91 30v140q-44 30 -91 30zM202 519q87 0 121.5 -44t34.5 -165v-248l12 -46q2 -9 -5 -12l-47 -11q-7 -4 -9 5l-13 51q-13 -25 -43 -44t-64 -19q-80 0 -110.5 38t-30.5 124t30.5 124t110.5 38q34 0 64 -19 t43 -44v63q0 93 -16 120t-78 27q-56 0 -103 -21q-6 -2 -8 6l-12 42q-2 10 4 13q56 22 119 22zM218 561l-95 112q-3 3 -3 8.5t4 6.5l37 21q8 4 13 -3l84 -115q2 -3 1.5 -7.5t-3.5 -5.5l-27 -18q-7 -3 -11 1z" />
<glyph unicode="&#xe1;" horiz-adv-x="418" d="M205 248q-62 0 -77 -18.5t-15 -81.5t15 -81.5t77 -18.5q47 0 91 30v140q-44 30 -91 30zM202 519q87 0 121.5 -44t34.5 -165v-248l12 -46q2 -9 -5 -12l-47 -11q-7 -4 -9 5l-13 51q-13 -25 -43 -44t-64 -19q-80 0 -110.5 38t-30.5 124t30.5 124t110.5 38q34 0 64 -19 t43 -44v63q0 93 -16 120t-78 27q-56 0 -103 -21q-6 -2 -8 6l-12 42q-2 10 4 13q56 22 119 22zM308 673l-95 -112q-6 -4 -12 -1l-21 18q-3 2 -5.5 6t-1.5 7l83 115q7 7 14 3l37 -21q4 -1 4 -6.5t-3 -8.5z" />
<glyph unicode="&#xe2;" horiz-adv-x="418" d="M205 248q-62 0 -77 -18.5t-15 -81.5t15 -81.5t77 -18.5q47 0 91 30v140q-44 30 -91 30zM202 519q87 0 121.5 -44t34.5 -165v-248l12 -46q2 -9 -5 -12l-47 -11q-7 -4 -9 5l-13 51q-13 -25 -43 -44t-64 -19q-80 0 -110.5 38t-30.5 124t30.5 124t110.5 38q34 0 64 -19 t43 -44v63q0 93 -16 120t-78 27q-56 0 -103 -21q-6 -2 -8 6l-12 42q-2 10 4 13q56 22 119 22zM190 708h35q11 0 18 -8l73 -98q6 -8 -4 -13l-29 -18q-5 -3 -10 4l-65 88l-65 -88q-7 -7 -11 -4l-29 18q-3 2 -4.5 6t1.5 7l72 98q7 8 18 8z" />
<glyph unicode="&#xe3;" horiz-adv-x="418" d="M205 248q-62 0 -77 -18.5t-15 -81.5t15 -81.5t77 -18.5q47 0 91 30v140q-44 30 -91 30zM202 519q87 0 121.5 -44t34.5 -165v-248l12 -46q2 -9 -5 -12l-47 -11q-7 -4 -9 5l-13 51q-13 -25 -43 -44t-64 -19q-80 0 -110.5 38t-30.5 124t30.5 124t110.5 38q34 0 64 -19 t43 -44v63q0 93 -16 120t-78 27q-56 0 -103 -21q-6 -2 -8 6l-12 42q-2 10 4 13q56 22 119 22zM164 636q-12 0 -19.5 -10.5t-15.5 -37.5q-3 -10 -10 -4l-29 19q-5 5 -2 15q29 75 76 75q24 0 50 -27t43 -27q14 0 21.5 10.5t14.5 37.5q4 11 11 4l28 -19q5 -5 2 -15 q-29 -75 -77 -75q-23 0 -40 13.5t-29.5 27t-23.5 13.5z" />
<glyph unicode="&#xe4;" horiz-adv-x="418" d="M205 248q-62 0 -77 -18.5t-15 -81.5t15 -81.5t77 -18.5q47 0 91 30v140q-44 30 -91 30zM202 519q87 0 121.5 -44t34.5 -165v-248l12 -46q2 -9 -5 -12l-47 -11q-7 -4 -9 5l-13 51q-13 -25 -43 -44t-64 -19q-80 0 -110.5 38t-30.5 124t30.5 124t110.5 38q34 0 64 -19 t43 -44v63q0 93 -16 120t-78 27q-56 0 -103 -21q-6 -2 -8 6l-12 42q-2 10 4 13q56 22 119 22zM142 667q20 0 28.5 -7.5t8.5 -31.5q0 -26 -8.5 -34.5t-28.5 -8.5q-21 0 -29.5 8.5t-8.5 34.5q0 24 8.5 31.5t29.5 7.5zM285 667q20 0 28.5 -7.5t8.5 -31.5q0 -26 -8.5 -34.5 t-28.5 -8.5t-28.5 8.5t-8.5 34.5q0 24 8.5 31.5t28.5 7.5z" />
<glyph unicode="&#xe5;" horiz-adv-x="418" d="M205 248q-62 0 -77 -18.5t-15 -81.5t15 -81.5t77 -18.5q47 0 91 30v140q-44 30 -91 30zM202 519q87 0 121.5 -44t34.5 -165v-248l12 -46q2 -9 -5 -12l-47 -11q-7 -4 -9 5l-13 51q-13 -25 -43 -44t-64 -19q-80 0 -110.5 38t-30.5 124t30.5 124t110.5 38q34 0 64 -19 t43 -44v63q0 93 -16 120t-78 27q-56 0 -103 -21q-6 -2 -8 6l-12 42q-2 10 4 13q56 22 119 22zM212 738q88 0 88 -94t-88 -94q-87 0 -87 94q0 48 20 71t67 23zM212 695q-26 0 -32.5 -9.5t-6.5 -43.5q0 -33 6.5 -42.5t32.5 -9.5q27 0 34 9.5t7 42.5q0 34 -7 43.5t-34 9.5z" />
<glyph unicode="&#xe6;" horiz-adv-x="660" d="M609 253h-244q0 -61 2.5 -95t8.5 -58.5t21 -34.5t33 -13.5t52 -3.5q53 0 99 24q6 3 8 -6l12 -43q3 -9 -4 -13q-48 -24 -115 -24q-125 0 -154 78q-51 -78 -131 -78q-85 0 -117 37.5t-32 124.5t32 124.5t117 37.5q29 0 60 -21t44 -45v66q0 92 -18 119.5t-81 27.5 q-58 0 -105 -21q-6 -2 -8 6l-13 42q-2 10 4 13q56 22 122 22q59 0 91 -19t46 -66q15 46 45.5 65.5t83.5 19.5q87 0 119.5 -50.5t32.5 -202.5q0 -13 -11 -13zM205 248q-62 0 -77 -18.5t-15 -81.5t15 -81.5t77 -18.5q48 0 96 33v134q-48 33 -96 33zM366 307h192 q-2 101 -16.5 126.5t-75.5 25.5q-62 0 -79.5 -27t-20.5 -125z" />
<glyph unicode="&#xe7;" horiz-adv-x="341" d="M135 -176l12 26q3 6 7 4q31 -14 66 -14q24 0 31.5 7t7.5 29q0 23 -12 28t-72 5q-3 0 -5 3.5t-1 7.5l22 67q-80 7 -111.5 65.5t-31.5 202.5q0 152 37.5 208t132.5 56q64 0 109 -21q7 -4 4 -13l-14 -43q-2 -9 -8 -6q-42 21 -91 21q-31 0 -47.5 -4.5t-29 -14t-17 -36 t-6.5 -57.5t-2 -92q0 -45 1 -71.5t2.5 -52t7 -37.5t11.5 -23t18.5 -14t26 -5t35.5 -2q49 0 91 21q6 3 8 -6l14 -43q3 -9 -4 -13q-43 -19 -104 -21v-38q54 0 74.5 -16t20.5 -54q0 -43 -21 -62t-74 -19q-60 0 -85 17q-3 2 -3 10z" />
<glyph unicode="&#xe8;" horiz-adv-x="403" d="M352 253h-239q0 -52 1 -81.5t5.5 -55.5t10.5 -37t20.5 -19.5t30.5 -10t44 -1.5q48 0 94 24q6 3 8 -6l15 -43q2 -10 -4 -13q-50 -24 -113 -24q-101 0 -139 57t-38 212q0 149 37.5 206.5t125.5 57.5q87 0 119.5 -50.5t32.5 -202.5q0 -13 -11 -13zM114 307h187 q-2 101 -16 126.5t-76 25.5q-61 0 -76.5 -26t-18.5 -126zM240 561l-95 112q-3 3 -3 8.5t4 6.5l37 21q8 4 13 -3l84 -115q2 -3 1.5 -7.5t-3.5 -5.5l-27 -18q-7 -3 -11 1z" />
<glyph unicode="&#xe9;" horiz-adv-x="403" d="M352 253h-239q0 -52 1 -81.5t5.5 -55.5t10.5 -37t20.5 -19.5t30.5 -10t44 -1.5q48 0 94 24q6 3 8 -6l15 -43q2 -10 -4 -13q-50 -24 -113 -24q-101 0 -139 57t-38 212q0 149 37.5 206.5t125.5 57.5q87 0 119.5 -50.5t32.5 -202.5q0 -13 -11 -13zM114 307h187 q-2 101 -16 126.5t-76 25.5q-61 0 -76.5 -26t-18.5 -126zM304 673l-95 -112q-6 -4 -12 -1l-21 18q-3 2 -5.5 6t-1.5 7l83 115q7 7 14 3l37 -21q4 -1 4 -6.5t-3 -8.5z" />
<glyph unicode="&#xea;" horiz-adv-x="403" d="M352 253h-239q0 -52 1 -81.5t5.5 -55.5t10.5 -37t20.5 -19.5t30.5 -10t44 -1.5q48 0 94 24q6 3 8 -6l15 -43q2 -10 -4 -13q-50 -24 -113 -24q-101 0 -139 57t-38 212q0 149 37.5 206.5t125.5 57.5q87 0 119.5 -50.5t32.5 -202.5q0 -13 -11 -13zM114 307h187 q-2 101 -16 126.5t-76 25.5q-61 0 -76.5 -26t-18.5 -126zM196 708h35q11 0 18 -8l73 -98q6 -8 -4 -13l-29 -18q-5 -3 -10 4l-65 88l-65 -88q-7 -7 -11 -4l-29 18q-3 2 -4.5 6t1.5 7l72 98q7 8 18 8z" />
<glyph unicode="&#xeb;" horiz-adv-x="403" d="M352 253h-239q0 -52 1 -81.5t5.5 -55.5t10.5 -37t20.5 -19.5t30.5 -10t44 -1.5q48 0 94 24q6 3 8 -6l15 -43q2 -10 -4 -13q-50 -24 -113 -24q-101 0 -139 57t-38 212q0 149 37.5 206.5t125.5 57.5q87 0 119.5 -50.5t32.5 -202.5q0 -13 -11 -13zM114 307h187 q-2 101 -16 126.5t-76 25.5q-61 0 -76.5 -26t-18.5 -126zM139 667q20 0 28.5 -7.5t8.5 -31.5q0 -26 -8.5 -34.5t-28.5 -8.5q-21 0 -29.5 8.5t-8.5 34.5q0 24 8.5 31.5t29.5 7.5zM282 667q20 0 28.5 -7.5t8.5 -31.5q0 -26 -8.5 -34.5t-28.5 -8.5t-28.5 8.5t-8.5 34.5 q0 24 8.5 31.5t28.5 7.5z" />
<glyph unicode="&#xec;" horiz-adv-x="175" d="M118 496v-487q0 -9 -7 -9h-48q-7 0 -7 9v487q0 9 7 9h48q7 0 7 -9zM84 561l-95 112q-3 3 -3 8.5t4 6.5l37 21q8 4 13 -3l84 -115q2 -3 1.5 -7.5t-3.5 -5.5l-27 -18q-7 -3 -11 1z" />
<glyph unicode="&#xed;" horiz-adv-x="175" d="M118 496v-487q0 -9 -7 -9h-48q-7 0 -7 9v487q0 9 7 9h48q7 0 7 -9zM172 673l-95 -112q-6 -4 -12 -1l-21 18q-3 2 -5.5 6t-1.5 7l83 115q7 7 14 3l37 -21q4 -1 4 -6.5t-3 -8.5z" />
<glyph unicode="&#xee;" horiz-adv-x="175" d="M118 496v-487q0 -9 -7 -9h-48q-7 0 -7 9v487q0 9 7 9h48q7 0 7 -9zM69 708h35q11 0 18 -8l73 -98q6 -8 -4 -13l-29 -18q-5 -3 -10 4l-65 88l-65 -88q-8 -7 -11 -4l-29 18q-3 2 -4.5 6t1.5 7l72 98q7 8 18 8z" />
<glyph unicode="&#xef;" horiz-adv-x="175" d="M118 496v-487q0 -9 -7 -9h-48q-7 0 -7 9v487q0 9 7 9h48q7 0 7 -9zM16 667q20 0 28.5 -7.5t8.5 -31.5q0 -26 -8.5 -34.5t-28.5 -8.5q-21 0 -29.5 8.5t-8.5 34.5q0 24 8.5 31.5t29.5 7.5zM159 667q20 0 28.5 -7.5t8.5 -31.5q0 -26 -8.5 -34.5t-28.5 -8.5t-28.5 8.5 t-8.5 34.5q0 24 8.5 31.5t28.5 7.5z" />
<glyph unicode="&#xf0;" horiz-adv-x="443" d="M321 652l-59 -44l79 -105q73 -97 73 -276q0 -127 -39.5 -184t-148.5 -57q-103 0 -147 51t-44 167q0 114 39 164t131 50q48 0 78.5 -16.5t56.5 -49.5q-4 47 -46 104l-85 116l-72 -53q-5 -5 -9 3l-15 29q-4 6 2 12l65 48l-48 66q-6 8 1 13l41 26q6 5 11 -2l49 -66l64 48 q6 5 10 -4l16 -28q4 -8 -3 -12zM342 323q-49 34 -120 34q-36 0 -56 -4.5t-33 -11.5t-18 -30t-6.5 -44.5t-1.5 -71.5q0 -36 1 -55t5 -38.5t11 -28t21 -15.5t32.5 -9t48.5 -2t47 1.5t32 9t21.5 17.5t11 33t5.5 48.5t1 71.5q0 71 -2 95z" />
<glyph unicode="&#xf1;" horiz-adv-x="418" d="M118 496v-43q49 66 113 66q51 0 79.5 -17.5t44 -69t15.5 -147.5v-276q0 -9 -7 -9h-47q-8 0 -8 9v263q0 130 -13.5 157.5t-84.5 27.5q-44 0 -92 -33v-415q0 -9 -7 -9h-48q-7 0 -7 9v487q0 9 7 9h48q7 0 7 -9zM166 636q-12 0 -19.5 -10.5t-15.5 -37.5q-3 -10 -10 -4l-29 19 q-5 5 -2 15q29 75 76 75q24 0 50 -27t43 -27q14 0 21.5 10.5t14.5 37.5q4 11 11 4l28 -19q5 -5 2 -15q-29 -75 -77 -75q-23 0 -40 13.5t-29.5 27t-23.5 13.5z" />
<glyph unicode="&#xf2;" horiz-adv-x="434" d="M217 457q-25 0 -40.5 -2t-28 -11t-18 -20t-9.5 -37.5t-4.5 -54.5t-0.5 -79q0 -53 0.5 -81.5t4.5 -55.5t9.5 -37.5t18.5 -19t27.5 -10t40.5 -1.5t40.5 1.5t27.5 10t18 19.5t9.5 37t5 55t0.5 82q0 61 -2 92t-6.5 57.5t-16.5 36t-29 14t-47 4.5zM217 -14q-95 0 -132 57.5 t-37 211.5q0 152 37 208t132 56t132 -56t37 -208q0 -154 -37 -211.5t-132 -57.5zM245 561l-95 112q-3 3 -3 8.5t4 6.5l37 21q8 4 13 -3l84 -115q2 -3 1.5 -7.5t-3.5 -5.5l-27 -18q-7 -3 -11 1z" />
<glyph unicode="&#xf3;" horiz-adv-x="434" d="M217 457q-25 0 -40.5 -2t-28 -11t-18 -20t-9.5 -37.5t-4.5 -54.5t-0.5 -79q0 -53 0.5 -81.5t4.5 -55.5t9.5 -37.5t18.5 -19t27.5 -10t40.5 -1.5t40.5 1.5t27.5 10t18 19.5t9.5 37t5 55t0.5 82q0 61 -2 92t-6.5 57.5t-16.5 36t-29 14t-47 4.5zM217 -14q-95 0 -132 57.5 t-37 211.5q0 152 37 208t132 56t132 -56t37 -208q0 -154 -37 -211.5t-132 -57.5zM301 673l-95 -112q-6 -4 -12 -1l-21 18q-3 2 -5.5 6t-1.5 7l83 115q7 7 14 3l37 -21q4 -1 4 -6.5t-3 -8.5z" />
<glyph unicode="&#xf4;" horiz-adv-x="434" d="M217 457q-25 0 -40.5 -2t-28 -11t-18 -20t-9.5 -37.5t-4.5 -54.5t-0.5 -79q0 -53 0.5 -81.5t4.5 -55.5t9.5 -37.5t18.5 -19t27.5 -10t40.5 -1.5t40.5 1.5t27.5 10t18 19.5t9.5 37t5 55t0.5 82q0 61 -2 92t-6.5 57.5t-16.5 36t-29 14t-47 4.5zM217 -14q-95 0 -132 57.5 t-37 211.5q0 152 37 208t132 56t132 -56t37 -208q0 -154 -37 -211.5t-132 -57.5zM199 708h35q11 0 18 -8l73 -98q6 -8 -4 -13l-29 -18q-5 -3 -10 4l-65 88l-65 -88q-8 -7 -11 -4l-29 18q-3 2 -4.5 6t1.5 7l72 98q7 8 18 8z" />
<glyph unicode="&#xf5;" horiz-adv-x="434" d="M217 457q-25 0 -40.5 -2t-28 -11t-18 -20t-9.5 -37.5t-4.5 -54.5t-0.5 -79q0 -53 0.5 -81.5t4.5 -55.5t9.5 -37.5t18.5 -19t27.5 -10t40.5 -1.5t40.5 1.5t27.5 10t18 19.5t9.5 37t5 55t0.5 82q0 61 -2 92t-6.5 57.5t-16.5 36t-29 14t-47 4.5zM217 -14q-95 0 -132 57.5 t-37 211.5q0 152 37 208t132 56t132 -56t37 -208q0 -154 -37 -211.5t-132 -57.5zM170 636q-12 0 -19.5 -10.5t-15.5 -37.5q-3 -10 -10 -4l-29 19q-5 5 -2 15q29 75 76 75q24 0 50 -27t43 -27q14 0 21.5 10.5t14.5 37.5q4 11 11 4l28 -19q5 -5 2 -15q-29 -75 -77 -75 q-23 0 -40 13.5t-29.5 27t-23.5 13.5z" />
<glyph unicode="&#xf6;" horiz-adv-x="434" d="M217 457q-25 0 -40.5 -2t-28 -11t-18 -20t-9.5 -37.5t-4.5 -54.5t-0.5 -79q0 -53 0.5 -81.5t4.5 -55.5t9.5 -37.5t18.5 -19t27.5 -10t40.5 -1.5t40.5 1.5t27.5 10t18 19.5t9.5 37t5 55t0.5 82q0 61 -2 92t-6.5 57.5t-16.5 36t-29 14t-47 4.5zM217 -14q-95 0 -132 57.5 t-37 211.5q0 152 37 208t132 56t132 -56t37 -208q0 -154 -37 -211.5t-132 -57.5zM146 667q20 0 28.5 -7.5t8.5 -31.5q0 -26 -8.5 -34.5t-28.5 -8.5q-21 0 -29.5 8.5t-8.5 34.5q0 24 8.5 31.5t29.5 7.5zM289 667q20 0 28.5 -7.5t8.5 -31.5q0 -26 -8.5 -34.5t-28.5 -8.5 t-28.5 8.5t-8.5 34.5q0 24 8.5 31.5t28.5 7.5z" />
<glyph unicode="&#xf7;" horiz-adv-x="435" d="M386 245h-336q-8 0 -8 9v43q0 9 8 9h336q7 0 7 -9v-43q0 -9 -7 -9zM220 176q26 0 34.5 -9t8.5 -37q0 -31 -9 -41t-34 -10q-23 0 -32.5 10.5t-9.5 40.5q0 28 9 37t33 9zM220 472q26 0 34.5 -9t8.5 -37q0 -31 -9 -41t-34 -10q-23 0 -32.5 10.5t-9.5 40.5q0 28 9 37t33 9z " />
<glyph unicode="&#xf8;" horiz-adv-x="434" d="M392 536l-41 -77q35 -60 35 -204q0 -154 -37 -211.5t-132 -57.5q-65 0 -102 25l-39 -74q-3 -9 -8 -4l-29 17q-6 6 -2 10l45 87q-34 60 -34 208q0 152 37 208t132 56q66 0 101 -24l35 66q2 7 8 3l29 -18q6 -3 2 -10zM318 253q0 94 -10 133l-166 -324q19 -14 75 -14 q26 0 40.5 1.5t27.5 10t18 19.5t9.5 37t5 55t0.5 82zM217 457q-25 0 -40.5 -2t-28 -11t-18 -20t-9.5 -37.5t-4.5 -54.5t-0.5 -79q0 -100 8 -135l166 324q-20 15 -73 15z" />
<glyph unicode="&#xf9;" horiz-adv-x="422" d="M362 62l12 -46q2 -9 -5 -12l-47 -11q-7 -4 -9 5l-13 54q-47 -66 -113 -66q-51 0 -79.5 17.5t-44 69t-15.5 147.5v276q0 9 7 9h48q7 0 7 -9v-263v-57t2 -43t4 -33.5t7.5 -22t11.5 -16.5t17.5 -8.5t24 -5t32.5 -0.5q42 0 91 34v415q0 9 8 9h47q7 0 7 -9v-434zM228 561 l-95 112q-3 3 -3 8.5t4 6.5l37 21q8 4 13 -3l84 -115q2 -3 1.5 -7.5t-3.5 -5.5l-27 -18q-7 -3 -11 1z" />
<glyph unicode="&#xfa;" horiz-adv-x="422" d="M362 62l12 -46q2 -9 -5 -12l-47 -11q-7 -4 -9 5l-13 54q-47 -66 -113 -66q-51 0 -79.5 17.5t-44 69t-15.5 147.5v276q0 9 7 9h48q7 0 7 -9v-263v-57t2 -43t4 -33.5t7.5 -22t11.5 -16.5t17.5 -8.5t24 -5t32.5 -0.5q42 0 91 34v415q0 9 8 9h47q7 0 7 -9v-434zM296 673 l-95 -112q-6 -4 -12 -1l-21 18q-3 2 -5.5 6t-1.5 7l83 115q7 7 14 3l37 -21q4 -1 4 -6.5t-3 -8.5z" />
<glyph unicode="&#xfb;" horiz-adv-x="422" d="M362 62l12 -46q2 -9 -5 -12l-47 -11q-7 -4 -9 5l-13 54q-47 -66 -113 -66q-51 0 -79.5 17.5t-44 69t-15.5 147.5v276q0 9 7 9h48q7 0 7 -9v-263v-57t2 -43t4 -33.5t7.5 -22t11.5 -16.5t17.5 -8.5t24 -5t32.5 -0.5q42 0 91 34v415q0 9 8 9h47q7 0 7 -9v-434zM195 708h35 q11 0 18 -8l73 -98q6 -8 -4 -13l-29 -18q-5 -3 -10 4l-65 88l-65 -88q-8 -7 -11 -4l-29 18q-3 2 -4.5 6t1.5 7l72 98q7 8 18 8z" />
<glyph unicode="&#xfc;" horiz-adv-x="422" d="M362 62l12 -46q2 -9 -5 -12l-47 -11q-7 -4 -9 5l-13 54q-47 -66 -113 -66q-51 0 -79.5 17.5t-44 69t-15.5 147.5v276q0 9 7 9h48q7 0 7 -9v-263v-57t2 -43t4 -33.5t7.5 -22t11.5 -16.5t17.5 -8.5t24 -5t32.5 -0.5q42 0 91 34v415q0 9 8 9h47q7 0 7 -9v-434zM139 667 q20 0 28.5 -7.5t8.5 -31.5q0 -26 -8.5 -34.5t-28.5 -8.5q-21 0 -29.5 8.5t-8.5 34.5q0 24 8.5 31.5t29.5 7.5zM282 667q20 0 28.5 -7.5t8.5 -31.5q0 -26 -8.5 -34.5t-28.5 -8.5t-28.5 8.5t-8.5 34.5q0 24 8.5 31.5t28.5 7.5z" />
<glyph unicode="&#xfd;" horiz-adv-x="369" d="M351 488l-151 -567q-34 -124 -120 -124q-8 0 -9 10l-10 43q-1 3 -0.5 5t1.5 3.5t3 1.5q43 0 60.5 24.5t38.5 115.5h-6q-7 0 -10 8l-130 480q-4 9 4 11l49 12q7 2 9 -5l93 -371l12 -90l15 90l91 371q2 7 9 5l46 -12q9 -2 5 -11zM284 673l-95 -112q-6 -4 -12 -1l-21 18 q-3 2 -5.5 6t-1.5 7l83 115q7 7 14 3l37 -21q4 -1 4 -6.5t-3 -8.5z" />
<glyph unicode="&#xfe;" horiz-adv-x="431" d="M118 424v-343q48 -33 92 -33q26 0 41 1.5t28 10.5t18.5 20t9.5 38t4.5 55t0.5 80q0 44 -1 69.5t-2.5 51t-6.5 37.5t-11.5 23t-18.5 15t-26 6t-36 2q-44 0 -92 -33zM56 -194v899q0 9 7 9h48q7 0 7 -9v-252q19 30 48 48t60 18q84 0 119 -57.5t35 -208.5t-35 -209t-119 -58 q-31 0 -60 18t-48 48v-246q0 -9 -7 -9h-48q-7 0 -7 9z" />
<glyph unicode="&#xff;" horiz-adv-x="369" d="M351 488l-151 -567q-34 -124 -120 -124q-8 0 -9 10l-10 43q-1 3 -0.5 5t1.5 3.5t3 1.5q43 0 60.5 24.5t38.5 115.5h-6q-7 0 -10 8l-130 480q-4 9 4 11l49 12q7 2 9 -5l93 -371l12 -90l15 90l91 371q2 7 9 5l46 -12q9 -2 5 -11zM114 667q20 0 28.5 -7.5t8.5 -31.5 q0 -26 -8.5 -34.5t-28.5 -8.5q-21 0 -29.5 8.5t-8.5 34.5q0 24 8.5 31.5t29.5 7.5zM257 667q20 0 28.5 -7.5t8.5 -31.5q0 -26 -8.5 -34.5t-28.5 -8.5t-28.5 8.5t-8.5 34.5q0 24 8.5 31.5t28.5 7.5z" />
<glyph unicode="&#x100;" horiz-adv-x="452" d="M325 210h-201l-55 -213q-2 -7 -9 -5l-46 12q-9 2 -5 11l178 673q4 9 8 9h63q4 0 8 -9l177 -673q4 -9 -5 -11l-48 -12q-7 -2 -9 5zM311 267l-76 310l-11 79l-11 -79l-75 -310h173zM318 771h-184q-7 0 -7 9v40q0 9 7 9h184q7 0 7 -9v-40q0 -9 -7 -9z" />
<glyph unicode="&#x101;" horiz-adv-x="418" d="M205 248q-62 0 -77 -18.5t-15 -81.5t15 -81.5t77 -18.5q47 0 91 30v140q-44 30 -91 30zM202 519q87 0 121.5 -44t34.5 -165v-248l12 -46q2 -9 -5 -12l-47 -11q-7 -4 -9 5l-13 51q-13 -25 -43 -44t-64 -19q-80 0 -110.5 38t-30.5 124t30.5 124t110.5 38q34 0 64 -19 t43 -44v63q0 93 -16 120t-78 27q-56 0 -103 -21q-6 -2 -8 6l-12 42q-2 10 4 13q56 22 119 22zM305 598h-184q-7 0 -7 9v40q0 9 7 9h184q8 0 8 -9v-40q0 -9 -8 -9z" />
<glyph unicode="&#x102;" horiz-adv-x="452" d="M325 210h-201l-55 -213q-2 -7 -9 -5l-46 12q-9 2 -5 11l178 673q4 9 8 9h63q4 0 8 -9l177 -673q4 -9 -5 -11l-48 -12q-7 -2 -9 5zM311 267l-76 310l-11 79l-11 -79l-75 -310h173zM225 745q-54 0 -80.5 27t-26.5 90q0 9 9 9h34q8 0 8 -9q0 -42 8.5 -51t48.5 -9t48.5 9 t8.5 51q0 9 8 9h34q9 0 9 -9q0 -63 -27 -90t-82 -27z" />
<glyph unicode="&#x103;" horiz-adv-x="418" d="M205 248q-62 0 -77 -18.5t-15 -81.5t15 -81.5t77 -18.5q47 0 91 30v140q-44 30 -91 30zM202 519q87 0 121.5 -44t34.5 -165v-248l12 -46q2 -9 -5 -12l-47 -11q-7 -4 -9 5l-13 51q-13 -25 -43 -44t-64 -19q-80 0 -110.5 38t-30.5 124t30.5 124t110.5 38q34 0 64 -19 t43 -44v63q0 93 -16 120t-78 27q-56 0 -103 -21q-6 -2 -8 6l-12 42q-2 10 4 13q56 22 119 22zM219 579q-52 0 -77 28.5t-25 90.5q0 9 9 9h32q8 0 8 -9q0 -41 8.5 -53t45.5 -12t45.5 12t8.5 53q0 9 8 9h32q9 0 9 -9q0 -62 -25 -90.5t-79 -28.5z" />
<glyph unicode="&#x104;" horiz-adv-x="452" d="M325 210h-201l-55 -213q-2 -7 -9 -5l-46 12q-9 2 -5 11l178 673q4 9 8 9h63q4 0 8 -9l177 -673q4 -9 -5 -11l-24 -6q-32 -26 -41 -45t-9 -51t9 -43t37 -11q34 0 58 10q9 3 11 -4l9 -27q3 -13 -4 -16q-38 -14 -78 -14q-57 0 -79 22t-22 73q0 74 75 109zM311 267l-76 310 l-11 79l-11 -79l-75 -310h173z" />
<glyph unicode="&#x105;" horiz-adv-x="418" d="M402 -146l9 -27q3 -13 -4 -16q-38 -14 -78 -14q-57 0 -79 22t-22 73q0 76 79 111l-11 46q-13 -25 -43 -44t-64 -19q-80 0 -110.5 38t-30.5 124t30.5 124t110.5 38q34 0 64 -19t43 -44v63q0 93 -16 120t-78 27q-56 0 -103 -21q-6 -2 -8 6l-12 42q-2 10 4 13q56 22 119 22 q87 0 121.5 -44t34.5 -165v-248l12 -46q2 -9 -5 -12l-29 -7q-32 -26 -40.5 -45t-8.5 -50q0 -32 9 -43t37 -11q34 0 58 10q9 3 11 -4zM205 248q-62 0 -77 -18.5t-15 -81.5t15 -81.5t77 -18.5q47 0 91 30v140q-44 30 -91 30z" />
<glyph unicode="&#x106;" horiz-adv-x="442" d="M282 652q-38 0 -61 -3t-42.5 -15.5t-29 -30t-16 -53.5t-8.5 -80t-2 -115q0 -73 2 -118.5t8.5 -82.5t16 -55.5t29.5 -31t42.5 -15.5t60.5 -3q71 0 124 24q8 3 8 -6l11 -43q2 -10 -4 -13q-67 -25 -139 -25q-65 0 -106.5 15t-71 55.5t-42 112.5t-12.5 186q0 110 12.5 180 t42 110t71 54.5t106.5 14.5q72 0 139 -25q6 -3 4 -13l-11 -43q0 -9 -8 -6q-55 25 -124 25zM368 855l-104 -112q-6 -4 -12 -1l-29 15q-3 1 -3.5 5.5t1.5 7.5l92 113q5 7 14 3l40 -16q4 -1 4 -6.5t-3 -8.5z" />
<glyph unicode="&#x107;" horiz-adv-x="341" d="M218 48q49 0 91 21q6 3 8 -6l14 -43q3 -9 -4 -13q-45 -21 -109 -21q-95 0 -132.5 57.5t-37.5 211.5q0 152 37.5 208t132.5 56q64 0 109 -21q7 -4 4 -13l-14 -43q-2 -9 -8 -6q-42 21 -91 21q-31 0 -47.5 -4.5t-29 -14t-17 -36t-6.5 -57.5t-2 -92q0 -45 1 -71.5t2.5 -52 t7 -37.5t11.5 -23t18.5 -14t26 -5t35.5 -2zM303 673l-95 -112q-6 -4 -12 -1l-21 18q-3 2 -5.5 6t-1.5 7l83 115q7 7 14 3l37 -21q4 -1 4 -6.5t-3 -8.5z" />
<glyph unicode="&#x108;" horiz-adv-x="442" d="M282 652q-38 0 -61 -3t-42.5 -15.5t-29 -30t-16 -53.5t-8.5 -80t-2 -115q0 -73 2 -118.5t8.5 -82.5t16 -55.5t29.5 -31t42.5 -15.5t60.5 -3q71 0 124 24q8 3 8 -6l11 -43q2 -10 -4 -13q-67 -25 -139 -25q-65 0 -106.5 15t-71 55.5t-42 112.5t-12.5 186q0 110 12.5 180 t42 110t71 54.5t106.5 14.5q72 0 139 -25q6 -3 4 -13l-11 -43q0 -9 -8 -6q-55 25 -124 25zM254 876h35q11 0 18 -8l81 -84q6 -8 -4 -13l-29 -22q-5 -3 -10 4l-73 79l-73 -79q-7 -7 -11 -4l-29 22q-3 2 -4.5 6t1.5 7l80 84q7 8 18 8z" />
<glyph unicode="&#x109;" horiz-adv-x="341" d="M218 48q49 0 91 21q6 3 8 -6l14 -43q3 -9 -4 -13q-45 -21 -109 -21q-95 0 -132.5 57.5t-37.5 211.5q0 152 37.5 208t132.5 56q64 0 109 -21q7 -4 4 -13l-14 -43q-2 -9 -8 -6q-42 21 -91 21q-31 0 -47.5 -4.5t-29 -14t-17 -36t-6.5 -57.5t-2 -92q0 -45 1 -71.5t2.5 -52 t7 -37.5t11.5 -23t18.5 -14t26 -5t35.5 -2zM202 708h35q11 0 18 -8l73 -98q6 -8 -4 -13l-29 -18q-5 -3 -10 4l-65 88l-65 -88q-7 -7 -11 -4l-29 18q-3 2 -4.5 6t1.5 7l72 98q7 8 18 8z" />
<glyph unicode="&#x10a;" horiz-adv-x="442" d="M282 652q-38 0 -61 -3t-42.5 -15.5t-29 -30t-16 -53.5t-8.5 -80t-2 -115q0 -73 2 -118.5t8.5 -82.5t16 -55.5t29.5 -31t42.5 -15.5t60.5 -3q71 0 124 24q8 3 8 -6l11 -43q2 -10 -4 -13q-67 -25 -139 -25q-65 0 -106.5 15t-71 55.5t-42 112.5t-12.5 186q0 110 12.5 180 t42 110t71 54.5t106.5 14.5q72 0 139 -25q6 -3 4 -13l-11 -43q0 -9 -8 -6q-55 25 -124 25zM276 847q21 0 29.5 -7.5t8.5 -31.5q0 -26 -9 -34.5t-29 -8.5t-29 8.5t-9 34.5q0 24 8.5 31.5t29.5 7.5z" />
<glyph unicode="&#x10b;" horiz-adv-x="341" d="M218 48q49 0 91 21q6 3 8 -6l14 -43q3 -9 -4 -13q-45 -21 -109 -21q-95 0 -132.5 57.5t-37.5 211.5q0 152 37.5 208t132.5 56q64 0 109 -21q7 -4 4 -13l-14 -43q-2 -9 -8 -6q-42 21 -91 21q-31 0 -47.5 -4.5t-29 -14t-17 -36t-6.5 -57.5t-2 -92q0 -45 1 -71.5t2.5 -52 t7 -37.5t11.5 -23t18.5 -14t26 -5t35.5 -2zM215 666q21 0 29.5 -7.5t8.5 -31.5q0 -26 -9 -34.5t-29 -8.5q-21 0 -30 8.5t-9 34.5q0 24 9 31.5t30 7.5z" />
<glyph unicode="&#x10c;" horiz-adv-x="442" d="M282 652q-38 0 -61 -3t-42.5 -15.5t-29 -30t-16 -53.5t-8.5 -80t-2 -115q0 -73 2 -118.5t8.5 -82.5t16 -55.5t29.5 -31t42.5 -15.5t60.5 -3q71 0 124 24q8 3 8 -6l11 -43q2 -10 -4 -13q-67 -25 -139 -25q-65 0 -106.5 15t-71 55.5t-42 112.5t-12.5 186q0 110 12.5 180 t42 110t71 54.5t106.5 14.5q72 0 139 -25q6 -3 4 -13l-11 -43q0 -9 -8 -6q-55 25 -124 25zM297 747h-35q-11 0 -18 8l-80 84q-3 3 -1.5 7t4.5 6l29 22q4 3 11 -4l73 -79l73 79q6 8 10 4l29 -22q10 -5 4 -13l-81 -84q-7 -8 -18 -8z" />
<glyph unicode="&#x10d;" horiz-adv-x="341" d="M218 48q49 0 91 21q6 3 8 -6l14 -43q3 -9 -4 -13q-45 -21 -109 -21q-95 0 -132.5 57.5t-37.5 211.5q0 152 37.5 208t132.5 56q64 0 109 -21q7 -4 4 -13l-14 -43q-2 -9 -8 -6q-42 21 -91 21q-31 0 -47.5 -4.5t-29 -14t-17 -36t-6.5 -57.5t-2 -92q0 -45 1 -71.5t2.5 -52 t7 -37.5t11.5 -23t18.5 -14t26 -5t35.5 -2zM235 568h-35q-11 0 -18 8l-72 98q-3 3 -1.5 7t4.5 6l29 18q4 3 11 -4l65 -88l65 88q6 8 10 4l29 -18q10 -5 4 -13l-73 -98q-7 -8 -18 -8z" />
<glyph unicode="&#x10e;" horiz-adv-x="512" d="M79 0q-7 0 -7 9v679q0 9 7 9h147q90 0 139.5 -30.5t73 -105.5t23.5 -211q0 -200 -51.5 -275t-184.5 -75h-147zM226 637h-87v-577h87q46 0 74 8t47.5 24.5t28 53.5t11.5 81.5t3 122.5q0 82 -3.5 127.5t-11.5 81.5t-28 50.5t-47 21t-74 6.5zM259 747h-35q-11 0 -18 8 l-80 84q-3 3 -1.5 7t4.5 6l29 22q4 3 11 -4l73 -79l73 79q6 8 10 4l29 -22q10 -5 4 -13l-81 -84q-7 -8 -18 -8z" />
<glyph unicode="&#x10f;" horiz-adv-x="428" d="M310 81v343q-48 33 -92 33q-26 0 -41 -1.5t-28 -10.5t-18.5 -20t-9.5 -38t-4.5 -55t-0.5 -80q0 -44 1 -69.5t2.5 -51t6.5 -37.5t11.5 -23t18.5 -15t26 -6t36 -2q44 0 92 33zM372 705v-696q0 -9 -7 -9h-48q-7 0 -7 9v43q-19 -30 -48 -48t-60 -18q-84 0 -119 57.5 t-35 208.5t35 209t119 58q31 0 60 -18t48 -48v252q0 9 7 9h48q7 0 7 -9zM480 700l-37 -147q-4 -11 -10 -11h-22q-8 0 -6 11l11 148q2 13 10 13h45q11 0 9 -14z" />
<glyph unicode="&#x110;" horiz-adv-x="512" d="M79 0q-7 0 -7 9v679q0 9 7 9h147q90 0 139.5 -30.5t73 -105.5t23.5 -211q0 -200 -51.5 -275t-184.5 -75h-147zM226 637h-87v-577h87q46 0 74 8t47.5 24.5t28 53.5t11.5 81.5t3 122.5q0 82 -3.5 127.5t-11.5 81.5t-28 50.5t-47 21t-74 6.5zM332 771h-184q-7 0 -7 9v40 q0 9 7 9h184q7 0 7 -9v-40q0 -9 -7 -9z" />
<glyph unicode="&#x111;" horiz-adv-x="428" d="M417 598h-45v-589q0 -9 -7 -9h-48q-7 0 -7 9v43q-19 -30 -48 -48t-60 -18q-84 0 -119 57.5t-35 208.5t35 209t119 58q31 0 60 -18t48 -48v145h-77q-7 0 -7 9v40q0 9 7 9h77v49q0 9 7 9h48q7 0 7 -9v-49h45q7 0 7 -9v-40q0 -9 -7 -9zM310 81v343q-48 33 -92 33 q-26 0 -41 -1.5t-28 -10.5t-18.5 -20t-9.5 -38t-4.5 -55t-0.5 -80q0 -44 1 -69.5t2.5 -51t6.5 -37.5t11.5 -23t18.5 -15t26 -6t36 -2q44 0 92 33z" />
<glyph unicode="&#x112;" horiz-adv-x="422" d="M390 0h-311q-7 0 -7 9v679q0 9 7 9h311q8 0 8 -9v-42q0 -9 -8 -9h-251v-237h203q8 0 8 -9v-42q0 -9 -8 -9h-203v-280h251q8 0 8 -9v-42q0 -9 -8 -9zM331 771h-184q-7 0 -7 9v40q0 9 7 9h184q7 0 7 -9v-40q0 -9 -7 -9z" />
<glyph unicode="&#x113;" horiz-adv-x="403" d="M352 253h-239q0 -52 1 -81.5t5.5 -55.5t10.5 -37t20.5 -19.5t30.5 -10t44 -1.5q48 0 94 24q6 3 8 -6l15 -43q2 -10 -4 -13q-50 -24 -113 -24q-101 0 -139 57t-38 212q0 149 37.5 206.5t125.5 57.5q87 0 119.5 -50.5t32.5 -202.5q0 -13 -11 -13zM114 307h187 q-2 101 -16 126.5t-76 25.5q-61 0 -76.5 -26t-18.5 -126zM305 598h-184q-7 0 -7 9v40q0 9 7 9h184q8 0 8 -9v-40q0 -9 -8 -9z" />
<glyph unicode="&#x114;" horiz-adv-x="422" d="M390 0h-311q-7 0 -7 9v679q0 9 7 9h311q8 0 8 -9v-42q0 -9 -8 -9h-251v-237h203q8 0 8 -9v-42q0 -9 -8 -9h-203v-280h251q8 0 8 -9v-42q0 -9 -8 -9zM239 745q-54 0 -80.5 27t-26.5 90q0 9 9 9h34q8 0 8 -9q0 -42 8.5 -51t48.5 -9t48.5 9t8.5 51q0 9 8 9h34q9 0 9 -9 q0 -63 -27 -90t-82 -27z" />
<glyph unicode="&#x115;" horiz-adv-x="403" d="M352 253h-239q0 -52 1 -81.5t5.5 -55.5t10.5 -37t20.5 -19.5t30.5 -10t44 -1.5q48 0 94 24q6 3 8 -6l15 -43q2 -10 -4 -13q-50 -24 -113 -24q-101 0 -139 57t-38 212q0 149 37.5 206.5t125.5 57.5q87 0 119.5 -50.5t32.5 -202.5q0 -13 -11 -13zM114 307h187 q-2 101 -16 126.5t-76 25.5q-61 0 -76.5 -26t-18.5 -126zM213 579q-52 0 -77 28.5t-25 90.5q0 9 9 9h32q8 0 8 -9q0 -41 8.5 -53t45.5 -12t45.5 12t8.5 53q0 9 8 9h32q9 0 9 -9q0 -62 -25 -90.5t-79 -28.5z" />
<glyph unicode="&#x116;" horiz-adv-x="422" d="M390 0h-311q-7 0 -7 9v679q0 9 7 9h311q8 0 8 -9v-42q0 -9 -8 -9h-251v-237h203q8 0 8 -9v-42q0 -9 -8 -9h-203v-280h251q8 0 8 -9v-42q0 -9 -8 -9zM241 847q21 0 29.5 -7.5t8.5 -31.5q0 -26 -9 -34.5t-29 -8.5t-29 8.5t-9 34.5q0 24 8.5 31.5t29.5 7.5z" />
<glyph unicode="&#x117;" horiz-adv-x="403" d="M352 253h-239q0 -52 1 -81.5t5.5 -55.5t10.5 -37t20.5 -19.5t30.5 -10t44 -1.5q48 0 94 24q6 3 8 -6l15 -43q2 -10 -4 -13q-50 -24 -113 -24q-101 0 -139 57t-38 212q0 149 37.5 206.5t125.5 57.5q87 0 119.5 -50.5t32.5 -202.5q0 -13 -11 -13zM114 307h187 q-2 101 -16 126.5t-76 25.5q-61 0 -76.5 -26t-18.5 -126zM216 666q21 0 29.5 -7.5t8.5 -31.5q0 -26 -9 -34.5t-29 -8.5q-21 0 -30 8.5t-9 34.5q0 24 9 31.5t30 7.5z" />
<glyph unicode="&#x118;" horiz-adv-x="422" d="M410 -146l9 -27q3 -13 -4 -16q-38 -14 -78 -14q-57 0 -79 22t-22 73q0 71 72 108h-229q-7 0 -7 9v679q0 9 7 9h311q8 0 8 -9v-42q0 -9 -8 -9h-251v-237h203q8 0 8 -9v-42q0 -9 -8 -9h-203v-280h251q8 0 8 -9v-42q0 -9 -8 -9h-43q-34 -27 -43 -46.5t-9 -51.5t9 -43t37 -11 q34 0 58 10q9 3 11 -4z" />
<glyph unicode="&#x119;" horiz-adv-x="403" d="M336 -146l9 -27q3 -13 -4 -16q-38 -14 -78 -14q-57 0 -79 22t-22 73q0 58 49 94q-92 3 -127.5 61t-35.5 208q0 149 37.5 206.5t125.5 57.5q87 0 119.5 -50.5t32.5 -202.5q0 -13 -11 -13h-239q0 -52 1 -81.5t5.5 -55.5t10.5 -37t20.5 -19.5t30.5 -10t44 -1.5q48 0 94 24 q6 3 8 -6l15 -43q2 -10 -4 -13q-36 -16 -79 -21q-24 -22 -31 -40t-7 -47q0 -32 9 -43t37 -11q34 0 58 10q9 3 11 -4zM114 307h187q-2 101 -16 126.5t-76 25.5q-61 0 -76.5 -26t-18.5 -126z" />
<glyph unicode="&#x11a;" horiz-adv-x="422" d="M390 0h-311q-7 0 -7 9v679q0 9 7 9h311q8 0 8 -9v-42q0 -9 -8 -9h-251v-237h203q8 0 8 -9v-42q0 -9 -8 -9h-203v-280h251q8 0 8 -9v-42q0 -9 -8 -9zM258 747h-35q-11 0 -18 8l-80 84q-3 3 -1.5 7t4.5 6l29 22q4 3 11 -4l73 -79l73 79q6 8 10 4l29 -22q10 -5 4 -13 l-81 -84q-7 -8 -18 -8z" />
<glyph unicode="&#x11b;" horiz-adv-x="403" d="M352 253h-239q0 -52 1 -81.5t5.5 -55.5t10.5 -37t20.5 -19.5t30.5 -10t44 -1.5q48 0 94 24q6 3 8 -6l15 -43q2 -10 -4 -13q-50 -24 -113 -24q-101 0 -139 57t-38 212q0 149 37.5 206.5t125.5 57.5q87 0 119.5 -50.5t32.5 -202.5q0 -13 -11 -13zM114 307h187 q-2 101 -16 126.5t-76 25.5q-61 0 -76.5 -26t-18.5 -126zM229 568h-35q-11 0 -18 8l-72 98q-3 3 -1.5 7t4.5 6l29 18q4 3 11 -4l65 -88l65 88q6 8 10 4l29 -18q10 -5 4 -13l-73 -98q-7 -8 -18 -8z" />
<glyph unicode="&#x11c;" horiz-adv-x="506" d="M441 358v-333q0 -11 -7 -14q-69 -25 -152 -25q-65 0 -106.5 15t-71 55.5t-42 112.5t-12.5 186q0 110 12.5 180t42 110t71 54.5t106.5 14.5q88 0 155 -25q6 -3 4 -13l-11 -43q0 -9 -8 -6q-55 25 -140 25q-38 0 -61 -3t-42.5 -15.5t-29 -30t-16 -53.5t-8.5 -80t-2 -115 q0 -73 2 -118.5t8.5 -83t16 -55.5t29 -31t42.5 -16t61 -3q50 0 92 11v299q0 9 7 9h53q7 0 7 -9zM266 876h35q11 0 18 -8l81 -84q6 -8 -4 -13l-29 -22q-5 -3 -10 4l-73 79l-73 -79q-7 -7 -11 -4l-29 22q-3 2 -4.5 6t1.5 7l80 84q7 8 18 8z" />
<glyph unicode="&#x11d;" horiz-adv-x="438" d="M403 450h-86q56 -62 56 -126q0 -82 -40 -117t-124 -35q-47 0 -77 11q-4 -24 -4 -36q0 -33 16 -43.5t82 -10.5q99 0 138 -28t39 -111q0 -84 -42 -120.5t-143 -36.5q-91 0 -132 30t-41 100q0 76 66 123q-39 18 -39 69q0 39 40 71q-63 30 -63 147q0 94 40 131t120 37h194 q7 0 7 -9v-37q0 -9 -7 -9zM306 339q0 66 -19 111h-76q-63 0 -79.5 -19.5t-16.5 -88.5t15.5 -90t78.5 -21q29 0 47 3.5t28.5 9t15 21t5.5 29.5t1 45zM226 35q-58 0 -93 11q-18 -43 -18 -101q0 -52 19.5 -69t88.5 -17t90.5 19t21.5 67q0 33 -1.5 46t-12.5 25.5t-32 15.5t-63 3 zM205 708h35q11 0 18 -8l73 -98q6 -8 -4 -13l-29 -18q-5 -3 -10 4l-65 88l-65 -88q-8 -7 -11 -4l-29 18q-3 2 -4.5 6t1.5 7l72 98q7 8 18 8z" />
<glyph unicode="&#x11e;" horiz-adv-x="506" d="M441 358v-333q0 -11 -7 -14q-69 -25 -152 -25q-65 0 -106.5 15t-71 55.5t-42 112.5t-12.5 186q0 110 12.5 180t42 110t71 54.5t106.5 14.5q88 0 155 -25q6 -3 4 -13l-11 -43q0 -9 -8 -6q-55 25 -140 25q-38 0 -61 -3t-42.5 -15.5t-29 -30t-16 -53.5t-8.5 -80t-2 -115 q0 -73 2 -118.5t8.5 -83t16 -55.5t29 -31t42.5 -16t61 -3q50 0 92 11v299q0 9 7 9h53q7 0 7 -9zM273 745q-54 0 -80.5 27t-26.5 90q0 9 9 9h34q8 0 8 -9q0 -42 8.5 -51t48.5 -9t48.5 9t8.5 51q0 9 8 9h34q9 0 9 -9q0 -63 -27 -90t-82 -27z" />
<glyph unicode="&#x11f;" horiz-adv-x="438" d="M403 450h-86q56 -62 56 -126q0 -82 -40 -117t-124 -35q-47 0 -77 11q-4 -24 -4 -36q0 -33 16 -43.5t82 -10.5q99 0 138 -28t39 -111q0 -84 -42 -120.5t-143 -36.5q-91 0 -132 30t-41 100q0 76 66 123q-39 18 -39 69q0 39 40 71q-63 30 -63 147q0 94 40 131t120 37h194 q7 0 7 -9v-37q0 -9 -7 -9zM306 339q0 66 -19 111h-76q-63 0 -79.5 -19.5t-16.5 -88.5t15.5 -90t78.5 -21q29 0 47 3.5t28.5 9t15 21t5.5 29.5t1 45zM226 35q-58 0 -93 11q-18 -43 -18 -101q0 -52 19.5 -69t88.5 -17t90.5 19t21.5 67q0 33 -1.5 46t-12.5 25.5t-32 15.5t-63 3 zM221 579q-52 0 -77 28.5t-25 90.5q0 9 9 9h32q8 0 8 -9q0 -41 8.5 -53t45.5 -12t45.5 12t8.5 53q0 9 8 9h32q9 0 9 -9q0 -62 -25 -90.5t-79 -28.5z" />
<glyph unicode="&#x120;" horiz-adv-x="506" d="M441 358v-333q0 -11 -7 -14q-69 -25 -152 -25q-65 0 -106.5 15t-71 55.5t-42 112.5t-12.5 186q0 110 12.5 180t42 110t71 54.5t106.5 14.5q88 0 155 -25q6 -3 4 -13l-11 -43q0 -9 -8 -6q-55 25 -140 25q-38 0 -61 -3t-42.5 -15.5t-29 -30t-16 -53.5t-8.5 -80t-2 -115 q0 -73 2 -118.5t8.5 -83t16 -55.5t29 -31t42.5 -16t61 -3q50 0 92 11v299q0 9 7 9h53q7 0 7 -9zM274 847q21 0 29.5 -7.5t8.5 -31.5q0 -26 -9 -34.5t-29 -8.5t-29 8.5t-9 34.5q0 24 8.5 31.5t29.5 7.5z" />
<glyph unicode="&#x121;" horiz-adv-x="438" d="M403 450h-86q56 -62 56 -126q0 -82 -40 -117t-124 -35q-47 0 -77 11q-4 -24 -4 -36q0 -33 16 -43.5t82 -10.5q99 0 138 -28t39 -111q0 -84 -42 -120.5t-143 -36.5q-91 0 -132 30t-41 100q0 76 66 123q-39 18 -39 69q0 39 40 71q-63 30 -63 147q0 94 40 131t120 37h194 q7 0 7 -9v-37q0 -9 -7 -9zM306 339q0 66 -19 111h-76q-63 0 -79.5 -19.5t-16.5 -88.5t15.5 -90t78.5 -21q29 0 47 3.5t28.5 9t15 21t5.5 29.5t1 45zM226 35q-58 0 -93 11q-18 -43 -18 -101q0 -52 19.5 -69t88.5 -17t90.5 19t21.5 67q0 33 -1.5 46t-12.5 25.5t-32 15.5t-63 3 zM223 666q21 0 29.5 -7.5t8.5 -31.5q0 -26 -9 -34.5t-29 -8.5q-21 0 -30 8.5t-9 34.5q0 24 9 31.5t30 7.5z" />
<glyph unicode="&#x122;" horiz-adv-x="506" d="M213 -176l12 26q3 6 7 4q31 -14 66 -14q24 0 31.5 7t7.5 29q0 23 -12 28t-72 5q-3 0 -5 3.5t-1 7.5l21 66q-82 2 -127 32t-68 110t-23 227q0 110 12.5 180t42 110t71 54.5t106.5 14.5q88 0 155 -25q6 -3 4 -13l-11 -43q0 -9 -8 -6q-55 25 -140 25q-38 0 -61 -3 t-42.5 -15.5t-29 -30t-16 -53.5t-8.5 -80t-2 -115q0 -73 2 -118.5t8.5 -83t16 -55.5t29 -31t42.5 -16t61 -3q50 0 92 11v299q0 9 7 9h53q7 0 7 -9v-333q0 -11 -7 -14q-57 -21 -133 -24v-39q54 0 74.5 -16t20.5 -54q0 -43 -21 -62t-74 -19q-60 0 -85 17q-3 2 -3 10z" />
<glyph unicode="&#x123;" horiz-adv-x="438" d="M181 576l50 155q4 11 10 11h21q8 0 6 -11l-29 -166q-1 -5 -4 -8.5t-7 -2.5l-38 8q-13 2 -9 14zM403 450h-86q56 -62 56 -126q0 -82 -40 -117t-124 -35q-47 0 -77 11q-4 -24 -4 -36q0 -33 16 -43.5t82 -10.5q99 0 138 -28t39 -111q0 -84 -42 -120.5t-143 -36.5 q-91 0 -132 30t-41 100q0 76 66 123q-39 18 -39 69q0 39 40 71q-63 30 -63 147q0 94 40 131t120 37h194q7 0 7 -9v-37q0 -9 -7 -9zM306 339q0 66 -19 111h-76q-63 0 -79.5 -19.5t-16.5 -88.5t15.5 -90t78.5 -21q29 0 47 3.5t28.5 9t15 21t5.5 29.5t1 45zM226 35 q-58 0 -93 11q-18 -43 -18 -101q0 -52 19.5 -69t88.5 -17t90.5 19t21.5 67q0 33 -1.5 46t-12.5 25.5t-32 15.5t-63 3z" />
<glyph unicode="&#x124;" horiz-adv-x="520" d="M448 688v-679q0 -9 -7 -9h-53q-7 0 -7 9v332h-242v-332q0 -9 -7 -9h-53q-7 0 -7 9v679q0 9 7 9h53q7 0 7 -9v-287h242v287q0 9 7 9h53q7 0 7 -9zM242 876h35q11 0 18 -8l81 -84q6 -8 -4 -13l-29 -22q-5 -3 -10 4l-73 79l-73 -79q-7 -7 -11 -4l-29 22q-3 2 -4.5 6t1.5 7 l80 84q7 8 18 8z" />
<glyph unicode="&#x125;" horiz-adv-x="418" d="M370 285v-276q0 -9 -7 -9h-47q-8 0 -8 9v263q0 130 -13.5 157.5t-84.5 27.5q-44 0 -92 -33v-415q0 -9 -7 -9h-48q-7 0 -7 9v696q0 9 7 9h48q7 0 7 -9v-252q49 66 113 66q51 0 79.5 -17.5t44 -69t15.5 -147.5zM118 876h35q11 0 18 -8l81 -84q6 -8 -4 -13l-29 -22 q-5 -3 -10 4l-73 79l-73 -79q-7 -7 -11 -4l-29 22q-3 2 -4.5 6t1.5 7l80 84q7 8 18 8z" />
<glyph unicode="&#x126;" horiz-adv-x="520" d="M498 537h-50v-528q0 -9 -7 -9h-53q-7 0 -7 9v334h-242v-334q0 -9 -7 -9h-53q-7 0 -7 9v528h-50q-7 0 -7 9v33q0 9 7 9h50v100q0 9 7 9h53q7 0 7 -9v-100h242v100q0 9 7 9h53q7 0 7 -9v-100h50q7 0 7 -9v-33q0 -9 -7 -9zM139 401h242v136h-242v-136z" />
<glyph unicode="&#x127;" horiz-adv-x="430" d="M211 598h-82v-145q49 66 113 66q51 0 79.5 -17.5t44.5 -69.5t16 -147v-276q0 -9 -8 -9h-47q-7 0 -7 9v263v58.5t-2 43.5t-4 33.5t-7.5 22t-11.5 15.5t-18 7t-24 4.5t-32 0.5q-44 0 -92 -33v-415q0 -9 -7 -9h-48q-7 0 -7 9v589h-40q-7 0 -7 9v40q0 9 7 9h40v49q0 9 7 9h48 q7 0 7 -9v-49h82q7 0 7 -9v-40q0 -9 -7 -9z" />
<glyph unicode="&#x128;" horiz-adv-x="211" d="M139 688v-679q0 -9 -7 -9h-53q-7 0 -7 9v679q0 9 7 9h53q7 0 7 -9zM52 808q-20 0 -28.5 -9.5t-16.5 -35.5q-3 -11 -10 -4l-29 16q-5 5 -2 15q29 75 87 75q26 0 43 -13.5t31 -27t31 -13.5q20 0 29 9.5t16 35.5q4 11 11 4l28 -16q5 -5 2 -15q-29 -75 -84 -75 q-26 0 -44.5 13.5t-33.5 27t-30 13.5z" />
<glyph unicode="&#x129;" horiz-adv-x="175" d="M118 496v-487q0 -9 -7 -9h-48q-7 0 -7 9v487q0 9 7 9h48q7 0 7 -9zM40 636q-12 0 -19.5 -10.5t-15.5 -37.5q-3 -10 -10 -4l-29 19q-5 5 -2 15q29 75 76 75q24 0 50 -27t43 -27q14 0 21.5 10.5t14.5 37.5q4 11 11 4l28 -19q5 -5 2 -15q-29 -75 -77 -75q-23 0 -40 13.5 t-29.5 27t-23.5 13.5z" />
<glyph unicode="&#x12a;" horiz-adv-x="211" d="M139 688v-679q0 -9 -7 -9h-53q-7 0 -7 9v679q0 9 7 9h53q7 0 7 -9zM197 771h-184q-7 0 -7 9v40q0 9 7 9h184q7 0 7 -9v-40q0 -9 -7 -9z" />
<glyph unicode="&#x12b;" horiz-adv-x="175" d="M118 496v-487q0 -9 -7 -9h-48q-7 0 -7 9v487q0 9 7 9h48q7 0 7 -9zM179 598h-184q-7 0 -7 9v40q0 9 7 9h184q8 0 8 -9v-40q0 -9 -8 -9z" />
<glyph unicode="&#x12c;" horiz-adv-x="211" d="M139 688v-679q0 -9 -7 -9h-53q-7 0 -7 9v679q0 9 7 9h53q7 0 7 -9zM104 745q-54 0 -80.5 27t-26.5 90q0 9 9 9h34q8 0 8 -9q0 -42 8.5 -51t48.5 -9t48.5 9t8.5 51q0 9 8 9h34q9 0 9 -9q0 -63 -27 -90t-82 -27z" />
<glyph unicode="&#x12d;" horiz-adv-x="175" d="M118 496v-487q0 -9 -7 -9h-48q-7 0 -7 9v487q0 9 7 9h48q7 0 7 -9zM86 579q-52 0 -77 28.5t-25 90.5q0 9 9 9h32q8 0 8 -9q0 -41 8.5 -53t45.5 -12t45.5 12t8.5 53q0 9 8 9h32q9 0 9 -9q0 -62 -25 -90.5t-79 -28.5z" />
<glyph unicode="&#x12e;" horiz-adv-x="211" d="M179 -146l9 -27q3 -13 -4 -16q-38 -14 -78 -14q-57 0 -79 22t-22 73q0 71 72 108q-5 2 -5 9v679q0 9 7 9h53q7 0 7 -9v-679q0 -9 -7 -9h-16q-34 -27 -43 -46.5t-9 -51.5t9 -43t37 -11q34 0 58 10q9 3 11 -4z" />
<glyph unicode="&#x12f;" horiz-adv-x="175" d="M150 -146l9 -27q3 -13 -4 -16q-38 -14 -78 -14q-57 0 -79 22t-22 73q0 77 81 112q-1 2 -1 5v487q0 9 7 9h48q7 0 7 -9v-487q0 -9 -7 -9h-24q-34 -27 -43 -46.5t-9 -51.5t9 -43t37 -11q34 0 58 10q9 3 11 -4zM87 695q21 0 29.5 -7t8.5 -31q0 -26 -8.5 -34t-29.5 -8 q-20 0 -28.5 8t-8.5 34q0 24 8 31t29 7z" />
<glyph unicode="&#x130;" horiz-adv-x="211" d="M139 688v-679q0 -9 -7 -9h-53q-7 0 -7 9v679q0 9 7 9h53q7 0 7 -9zM101 847q21 0 29.5 -7.5t8.5 -31.5q0 -26 -9 -34.5t-29 -8.5t-29 8.5t-9 34.5q0 24 8.5 31.5t29.5 7.5z" />
<glyph unicode="&#x131;" horiz-adv-x="175" d="M118 496v-487q0 -9 -7 -9h-48q-7 0 -7 9v487q0 9 7 9h48q7 0 7 -9z" />
<glyph unicode="&#x132;" horiz-adv-x="544" d="M139 688v-679q0 -9 -7 -9h-53q-7 0 -7 9v679q0 9 7 9h53q7 0 7 -9zM405 192v496q0 9 7 9h53q7 0 7 -9v-496q0 -106 -40 -156t-110 -50q-60 0 -115 25q-1 1 1 13l11 43q0 9 8 6q45 -24 95 -24q56 0 69.5 24.5t13.5 118.5z" />
<glyph unicode="&#x133;" horiz-adv-x="331" d="M82 695q21 0 29.5 -7t8.5 -31q0 -26 -8.5 -34t-29.5 -8q-20 0 -28.5 8t-8.5 34q0 24 8 31t29 7zM113 496v-487q0 -9 -7 -9h-48q-7 0 -7 9v487q0 9 7 9h48q7 0 7 -9zM248 695q21 0 29.5 -7t8.5 -31q0 -26 -8.5 -34t-29.5 -8q-20 0 -28.5 8t-8.5 34q0 24 8 31t29 7z M147 -140q47 7 58.5 25.5t11.5 86.5v524q0 9 7 9h48q7 0 7 -9v-524q0 -81 -35.5 -128t-87.5 -47q-8 0 -8 10l-6 43q-3 7 5 10z" />
<glyph unicode="&#x134;" horiz-adv-x="341" d="M202 192v496q0 9 7 9h53q7 0 7 -9v-496q0 -106 -40 -156t-110 -50q-60 0 -115 25q-7 4 -4 13l14 43q2 9 8 6q46 -24 96 -24q54 0 69 25.5t15 117.5zM223 876h35q11 0 18 -8l81 -84q6 -8 -4 -13l-29 -22q-5 -3 -10 4l-73 79l-73 -79q-8 -7 -11 -4l-29 22q-3 2 -4.5 6 t1.5 7l80 84q7 8 18 8z" />
<glyph unicode="&#x135;" horiz-adv-x="175" d="M57 708h35q11 0 18 -8l72 -98q3 -3 1.5 -7t-4.5 -6l-26 -18q-4 -3 -11 4l-68 87l-68 -87q-6 -8 -10 -4l-26 18q-10 5 -4 13l73 98q7 8 18 8zM-19 -140q47 7 58.5 25.5t11.5 86.5v524q0 9 7 9h48q7 0 7 -9v-524q0 -81 -35.5 -128t-87.5 -47q-8 0 -8 10l-6 43q-3 7 5 10z " />
<glyph unicode="&#x136;" horiz-adv-x="448" d="M411 667l-203 -300l214 -337q3 -8 -2 -13l-40 -30q-2 -2 -6 -1.5t-5 3.5l-229 373l219 346q6 7 11 2l40 -29q5 -7 1 -14zM139 688v-679q0 -9 -7 -9h-53q-7 0 -7 9v679q0 9 7 9h53q7 0 7 -9zM269 -73l-56 -155q-2 -11 -9 -11h-26q-7 0 -7 11l29 166q1 5 4.5 8.5t6.5 2.5 l49 -8q11 -2 9 -14z" />
<glyph unicode="&#x137;" horiz-adv-x="356" d="M118 705v-438l171 251q4 8 10 2l37 -25q6 -5 1 -13l-150 -212l167 -244q4 -7 -1 -13l-39 -26q-6 -6 -10 2l-186 278v-258q0 -9 -7 -9h-48q-7 0 -7 9v696q0 9 7 9h48q7 0 7 -9zM218 -73l-56 -155q-2 -11 -9 -11h-26q-7 0 -7 11l29 166q1 5 4.5 8.5t6.5 2.5l49 -8 q11 -2 9 -14z" />
<glyph unicode="&#x139;" horiz-adv-x="374" d="M139 60h227q8 0 8 -9v-42q0 -9 -8 -9h-287q-7 0 -7 9v679q0 9 7 9h53q7 0 7 -9v-628zM219 855l-104 -112q-6 -4 -12 -1l-29 15q-3 1 -3.5 5.5t1.5 7.5l92 113q5 7 14 3l40 -16q4 -1 4 -6.5t-3 -8.5z" />
<glyph unicode="&#x13a;" horiz-adv-x="175" d="M51 89v616q0 9 7 9h48q7 0 7 -9v-623l19 -66q3 -8 -5 -12l-46 -11q-7 -3 -9 5l-18 62q-3 18 -3 29zM209 855l-104 -112q-6 -4 -12 -1l-29 15q-3 1 -3.5 5.5t1.5 7.5l92 113q5 7 14 3l40 -16q4 -1 4 -6.5t-3 -8.5z" />
<glyph unicode="&#x13b;" horiz-adv-x="374" d="M139 60h227q8 0 8 -9v-42q0 -9 -8 -9h-287q-7 0 -7 9v679q0 9 7 9h53q7 0 7 -9v-628zM260 -73l-56 -155q-2 -11 -9 -11h-26q-7 0 -7 11l29 166q1 5 4.5 8.5t6.5 2.5l49 -8q11 -2 9 -14z" />
<glyph unicode="&#x13c;" horiz-adv-x="175" d="M51 89v616q0 9 7 9h48q7 0 7 -9v-623l19 -66q3 -8 -5 -12l-46 -11q-7 -3 -9 5l-18 62q-3 18 -3 29zM134 -73l-56 -155q-2 -11 -9 -11h-26q-7 0 -7 11l29 166q1 5 4.5 8.5t6.5 2.5l49 -8q11 -2 9 -14z" />
<glyph unicode="&#x13d;" horiz-adv-x="374" d="M139 60h227q8 0 8 -9v-42q0 -9 -8 -9h-287q-7 0 -7 9v679q0 9 7 9h53q7 0 7 -9v-628zM268 700l-37 -147q-4 -11 -10 -11h-22q-8 0 -6 11l11 148q2 13 10 13h45q11 0 9 -14z" />
<glyph unicode="&#x13e;" horiz-adv-x="175" d="M51 89v616q0 9 7 9h48q7 0 7 -9v-623l19 -66q3 -8 -5 -12l-46 -11q-7 -3 -9 5l-18 62q-3 18 -3 29zM216 700l-37 -147q-4 -11 -10 -11h-22q-8 0 -6 11l11 148q2 13 10 13h45q11 0 9 -14z" />
<glyph unicode="&#x13f;" horiz-adv-x="374" d="M139 60h227q8 0 8 -9v-42q0 -9 -8 -9h-287q-7 0 -7 9v679q0 9 7 9h53q7 0 7 -9v-628zM252 416q21 0 29.5 -7.5t8.5 -31.5q0 -26 -9 -34.5t-29 -8.5q-21 0 -30 8.5t-9 34.5q0 24 9 31.5t30 7.5z" />
<glyph unicode="&#x140;" horiz-adv-x="175" d="M51 89v616q0 9 7 9h48q7 0 7 -9v-623l19 -66q3 -8 -5 -12l-46 -11q-7 -3 -9 5l-18 62q-3 18 -3 29zM177 423q21 0 29.5 -7.5t8.5 -31.5q0 -26 -9 -34.5t-29 -8.5q-21 0 -30 8.5t-9 34.5q0 24 9 31.5t30 7.5z" />
<glyph unicode="&#x141;" horiz-adv-x="374" d="M139 60h227q8 0 8 -9v-42q0 -9 -8 -9h-287q-7 0 -7 9v204l-38 -45q-6 -6 -8 -2l-21 32q-5 5 -2 11l69 84v395q0 9 7 9h53q7 0 7 -9v-316l111 150q5 4 8 1l21 -32q4 -4 2 -11l-142 -188v-232z" />
<glyph unicode="&#x142;" horiz-adv-x="187" d="M213 487l-86 -119v-286l19 -66q3 -8 -5 -12l-47 -11q-2 -2 -5 0t-3 5l-18 62q-3 18 -3 29v208l-61 -86q-2 -3 -5 -3.5t-5 2.5l-20 34q-6 6 -1 12l92 130v319q0 9 7 9h48q7 0 7 -9v-247l54 76q6 6 11 1l20 -35q3 -2 3 -6.5t-2 -6.5z" />
<glyph unicode="&#x143;" horiz-adv-x="521" d="M163 688l198 -521l26 -101l-3 105v517q0 9 7 9h51q7 0 7 -9v-679q-4 -9 -8 -9h-71q-7 0 -12 9l-198 521l-27 92l4 -96v-517q0 -9 -7 -9h-51q-7 0 -7 9v679q4 9 8 9h71q7 0 12 -9zM367 855l-104 -112q-6 -4 -12 -1l-29 15q-3 1 -3.5 5.5t1.5 7.5l92 113q5 7 14 3l40 -16 q4 -1 4 -6.5t-3 -8.5z" />
<glyph unicode="&#x144;" horiz-adv-x="418" d="M118 496v-43q49 66 113 66q51 0 79.5 -17.5t44 -69t15.5 -147.5v-276q0 -9 -7 -9h-47q-8 0 -8 9v263q0 130 -13.5 157.5t-84.5 27.5q-44 0 -92 -33v-415q0 -9 -7 -9h-48q-7 0 -7 9v487q0 9 7 9h48q7 0 7 -9zM294 673l-95 -112q-6 -4 -12 -1l-21 18q-3 2 -5.5 6t-1.5 7 l83 115q7 7 14 3l37 -21q4 -1 4 -6.5t-3 -8.5z" />
<glyph unicode="&#x145;" horiz-adv-x="521" d="M163 688l198 -521l26 -101l-3 105v517q0 9 7 9h51q7 0 7 -9v-679q-4 -9 -8 -9h-71q-7 0 -12 9l-198 521l-27 92l4 -96v-517q0 -9 -7 -9h-51q-7 0 -7 9v679q4 9 8 9h71q7 0 12 -9zM300 -73l-56 -155q-2 -11 -9 -11h-26q-7 0 -7 11l29 166q1 5 4.5 8.5t6.5 2.5l49 -8 q11 -2 9 -14z" />
<glyph unicode="&#x146;" horiz-adv-x="418" d="M118 496v-43q49 66 113 66q51 0 79.5 -17.5t44 -69t15.5 -147.5v-276q0 -9 -7 -9h-47q-8 0 -8 9v263q0 130 -13.5 157.5t-84.5 27.5q-44 0 -92 -33v-415q0 -9 -7 -9h-48q-7 0 -7 9v487q0 9 7 9h48q7 0 7 -9zM250 -73l-56 -155q-2 -11 -9 -11h-26q-7 0 -7 11l29 166 q1 5 4.5 8.5t6.5 2.5l49 -8q11 -2 9 -14z" />
<glyph unicode="&#x147;" horiz-adv-x="521" d="M163 688l198 -521l26 -101l-3 105v517q0 9 7 9h51q7 0 7 -9v-679q-4 -9 -8 -9h-71q-7 0 -12 9l-198 521l-27 92l4 -96v-517q0 -9 -7 -9h-51q-7 0 -7 9v679q4 9 8 9h71q7 0 12 -9zM293 747h-35q-11 0 -18 8l-80 84q-3 3 -1.5 7t4.5 6l29 22q4 3 11 -4l73 -79l73 79 q6 8 10 4l29 -22q10 -5 4 -13l-81 -84q-7 -8 -18 -8z" />
<glyph unicode="&#x148;" horiz-adv-x="418" d="M118 496v-43q49 66 113 66q51 0 79.5 -17.5t44 -69t15.5 -147.5v-276q0 -9 -7 -9h-47q-8 0 -8 9v263q0 130 -13.5 157.5t-84.5 27.5q-44 0 -92 -33v-415q0 -9 -7 -9h-48q-7 0 -7 9v487q0 9 7 9h48q7 0 7 -9zM237 568h-35q-11 0 -18 8l-72 98q-3 3 -1.5 7t4.5 6l29 18 q4 3 11 -4l65 -88l65 88q6 8 10 4l29 -18q10 -5 4 -13l-73 -98q-7 -8 -18 -8z" />
<glyph unicode="&#x149;" horiz-adv-x="418" d="M118 496v-43q49 66 113 66q51 0 79.5 -17.5t44 -69t15.5 -147.5v-276q0 -9 -7 -9h-47q-8 0 -8 9v263q0 130 -13.5 157.5t-84.5 27.5q-44 0 -92 -33v-415q0 -9 -7 -9h-48q-7 0 -7 9v487q0 9 7 9h48q7 0 7 -9zM148 713l-56 -155q-2 -11 -9 -11h-26q-7 0 -7 11l29 166 q1 5 4.5 8.5t6.5 2.5l49 -8q11 -2 9 -14z" />
<glyph unicode="&#x14a;" horiz-adv-x="521" d="M158 688l203 -516l26 -100l-3 104v512q0 9 7 9h51q7 0 7 -9v-685q0 -106 -40 -156t-110 -50q-63 0 -118 25q-7 4 -4 13l16 43q2 9 8 6q46 -24 97 -24q56 0 70.5 24.5t15.5 115.5h-9q-7 0 -12 9l-203 516l-27 92l4 -96v-512q0 -9 -7 -9h-51q-7 0 -7 9v679q4 9 8 9h66 q7 0 12 -9z" />
<glyph unicode="&#x14b;" horiz-adv-x="418" d="M308 -28v300q0 48 -0.5 74.5t-5 50.5t-9.5 33.5t-17.5 17t-26.5 8.5t-39 1q-44 0 -92 -33v-415q0 -9 -7 -9h-48q-7 0 -7 9v487q0 9 7 9h48q7 0 7 -9v-43q49 66 113 66q51 0 79.5 -17.5t44 -69t15.5 -147.5v-313q0 -80 -37.5 -127.5t-89.5 -47.5q-8 0 -9 10l-6 43 q-2 8 5 10q48 8 61.5 27t13.5 85z" />
<glyph unicode="&#x14c;" horiz-adv-x="531" d="M266 52q63 0 90 19t39.5 81.5t12.5 202.5q0 135 -12.5 196t-39.5 79.5t-90 18.5q-38 0 -60 -5.5t-40 -21t-26.5 -49.5t-12.5 -85t-4 -133q0 -85 4 -137.5t12.5 -87.5t26.5 -51t40 -21.5t60 -5.5zM266 -14q-56 0 -93.5 15t-66.5 55t-42.5 113.5t-13.5 185.5 q0 109 13.5 180t42.5 110t66.5 54t93.5 15t93.5 -15t66 -54t42 -110t13.5 -180q0 -112 -13.5 -185.5t-42 -113.5t-66 -55t-93.5 -15zM357 771h-184q-7 0 -7 9v40q0 9 7 9h184q7 0 7 -9v-40q0 -9 -7 -9z" />
<glyph unicode="&#x14d;" horiz-adv-x="434" d="M217 457q-25 0 -40.5 -2t-28 -11t-18 -20t-9.5 -37.5t-4.5 -54.5t-0.5 -79q0 -53 0.5 -81.5t4.5 -55.5t9.5 -37.5t18.5 -19t27.5 -10t40.5 -1.5t40.5 1.5t27.5 10t18 19.5t9.5 37t5 55t0.5 82q0 61 -2 92t-6.5 57.5t-16.5 36t-29 14t-47 4.5zM217 -14q-95 0 -132 57.5 t-37 211.5q0 152 37 208t132 56t132 -56t37 -208q0 -154 -37 -211.5t-132 -57.5zM309 598h-184q-7 0 -7 9v40q0 9 7 9h184q8 0 8 -9v-40q0 -9 -8 -9z" />
<glyph unicode="&#x14e;" horiz-adv-x="531" d="M266 52q63 0 90 19t39.5 81.5t12.5 202.5q0 135 -12.5 196t-39.5 79.5t-90 18.5q-38 0 -60 -5.5t-40 -21t-26.5 -49.5t-12.5 -85t-4 -133q0 -85 4 -137.5t12.5 -87.5t26.5 -51t40 -21.5t60 -5.5zM266 -14q-56 0 -93.5 15t-66.5 55t-42.5 113.5t-13.5 185.5 q0 109 13.5 180t42.5 110t66.5 54t93.5 15t93.5 -15t66 -54t42 -110t13.5 -180q0 -112 -13.5 -185.5t-42 -113.5t-66 -55t-93.5 -15zM264 745q-54 0 -80.5 27t-26.5 90q0 9 9 9h34q8 0 8 -9q0 -42 8.5 -51t48.5 -9t48.5 9t8.5 51q0 9 8 9h34q9 0 9 -9q0 -63 -27 -90t-82 -27 z" />
<glyph unicode="&#x14f;" horiz-adv-x="434" d="M217 457q-25 0 -40.5 -2t-28 -11t-18 -20t-9.5 -37.5t-4.5 -54.5t-0.5 -79q0 -53 0.5 -81.5t4.5 -55.5t9.5 -37.5t18.5 -19t27.5 -10t40.5 -1.5t40.5 1.5t27.5 10t18 19.5t9.5 37t5 55t0.5 82q0 61 -2 92t-6.5 57.5t-16.5 36t-29 14t-47 4.5zM217 -14q-95 0 -132 57.5 t-37 211.5q0 152 37 208t132 56t132 -56t37 -208q0 -154 -37 -211.5t-132 -57.5zM216 579q-52 0 -77 28.5t-25 90.5q0 9 9 9h32q8 0 8 -9q0 -41 8.5 -53t45.5 -12t45.5 12t8.5 53q0 9 8 9h32q9 0 9 -9q0 -62 -25 -90.5t-79 -28.5z" />
<glyph unicode="&#x150;" horiz-adv-x="531" d="M266 52q63 0 90 19t39.5 81.5t12.5 202.5q0 135 -12.5 196t-39.5 79.5t-90 18.5q-38 0 -60 -5.5t-40 -21t-26.5 -49.5t-12.5 -85t-4 -133q0 -85 4 -137.5t12.5 -87.5t26.5 -51t40 -21.5t60 -5.5zM266 -14q-56 0 -93.5 15t-66.5 55t-42.5 113.5t-13.5 185.5 q0 109 13.5 180t42.5 110t66.5 54t93.5 15t93.5 -15t66 -54t42 -110t13.5 -180q0 -112 -13.5 -185.5t-42 -113.5t-66 -55t-93.5 -15zM297 854l-88 -112q-3 -5 -9 -1l-26 15q-2 1 -2.5 5.5t1.5 7.5l78 113q3 7 11 3l34 -16q3 -1 3 -6.5t-2 -8.5zM418 854l-88 -112 q-3 -5 -9 -1l-26 15q-2 1 -2.5 5.5t1.5 7.5l78 113q3 7 11 3l35 -16q3 -1 3 -6.5t-3 -8.5z" />
<glyph unicode="&#x151;" horiz-adv-x="434" d="M217 457q-25 0 -40.5 -2t-28 -11t-18 -20t-9.5 -37.5t-4.5 -54.5t-0.5 -79q0 -53 0.5 -81.5t4.5 -55.5t9.5 -37.5t18.5 -19t27.5 -10t40.5 -1.5t40.5 1.5t27.5 10t18 19.5t9.5 37t5 55t0.5 82q0 61 -2 92t-6.5 57.5t-16.5 36t-29 14t-47 4.5zM217 -14q-95 0 -132 57.5 t-37 211.5q0 152 37 208t132 56t132 -56t37 -208q0 -154 -37 -211.5t-132 -57.5zM231 674l-80 -112q-3 -5 -9 -1l-26 15q-2 1 -2.5 5.5t1.5 7.5l70 113q3 7 11 3l34 -16q3 -1 3 -6.5t-2 -8.5zM352 674l-80 -112q-3 -5 -9 -1l-26 15q-2 1 -2.5 5.5t1.5 7.5l70 113q3 7 11 3 l35 -16q3 -1 3 -6.5t-3 -8.5z" />
<glyph unicode="&#x152;" horiz-adv-x="778" d="M746 0h-390q-36 -14 -90 -14q-56 0 -93.5 15t-66.5 55t-42.5 113.5t-13.5 185.5q0 109 13.5 180t42.5 110t66.5 54t93.5 15q58 0 98 -17h382q8 0 8 -9v-42q0 -9 -8 -9h-316q46 -73 50 -237h218q8 0 8 -9v-42q0 -9 -8 -9h-217q-3 -202 -53 -280h318q8 0 8 -9v-42 q0 -9 -8 -9zM266 52q63 0 90 19t39.5 81.5t12.5 202.5q0 135 -12.5 196t-39.5 79.5t-90 18.5q-38 0 -60 -5.5t-40 -21t-26.5 -49.5t-12.5 -85t-4 -133q0 -85 4 -137.5t12.5 -87.5t26.5 -51t40 -21.5t60 -5.5z" />
<glyph unicode="&#x153;" horiz-adv-x="677" d="M626 253h-244q0 -61 2.5 -95t8.5 -58.5t21 -34.5t32.5 -13.5t51.5 -3.5q52 0 98 24q6 3 8 -6l14 -43q3 -9 -4 -13q-48 -24 -116 -24q-61 0 -95.5 19t-50.5 64q-16 -45 -47.5 -64t-87.5 -19q-95 0 -132 57.5t-37 211.5q0 152 37 208t132 56q57 0 88.5 -18.5t46.5 -63.5 q17 44 49 63t84 19q87 0 119.5 -50.5t32.5 -202.5q0 -6 -3.5 -9.5t-7.5 -3.5zM217 457q-25 0 -40.5 -2t-28 -11t-18 -20t-9.5 -37.5t-4.5 -54.5t-0.5 -79q0 -53 0.5 -81.5t4.5 -55.5t9.5 -37.5t18.5 -19t27.5 -10t40.5 -1.5q31 0 47.5 3.5t30 13t18.5 34.5t7.5 59t2.5 95 q0 59 -2.5 92t-7.5 58t-18.5 35t-30.5 14.5t-47 4.5zM383 307h192q-2 101 -16.5 126.5t-76.5 25.5q-61 0 -78.5 -27t-20.5 -125z" />
<glyph unicode="&#x154;" horiz-adv-x="494" d="M139 297v-288q0 -9 -7 -9h-53q-7 0 -7 9v679q0 9 7 9h222q67 0 103.5 -50.5t36.5 -147.5q0 -188 -124 -200l139 -274q3 -7 -3 -13l-44 -24q-7 -5 -11 4l-151 305h-108zM139 637v-280h162q41 0 54.5 26t13.5 116q0 86 -13.5 112t-54.5 26h-162zM329 855l-104 -112 q-6 -4 -12 -1l-29 15q-3 1 -3.5 5.5t1.5 7.5l92 113q5 7 14 3l40 -16q4 -1 4 -6.5t-3 -8.5z" />
<glyph unicode="&#x155;" horiz-adv-x="280" d="M267 442q-26 11 -54 11q-45 0 -89 -29v-415q0 -9 -7 -9h-47q-8 0 -8 9v424l-14 55q-3 8 5 12l46 12q7 4 9 -5l12 -54q53 66 102 66q36 0 56 -10q7 -2 5 -11l-7 -49q-2 -10 -9 -7zM259 673l-95 -112q-6 -4 -12 -1l-21 18q-3 2 -5.5 6t-1.5 7l83 115q7 7 14 3l37 -21 q4 -1 4 -6.5t-3 -8.5z" />
<glyph unicode="&#x156;" horiz-adv-x="494" d="M139 297v-288q0 -9 -7 -9h-53q-7 0 -7 9v679q0 9 7 9h222q67 0 103.5 -50.5t36.5 -147.5q0 -188 -124 -200l139 -274q3 -7 -3 -13l-44 -24q-7 -5 -11 4l-151 305h-108zM139 637v-280h162q41 0 54.5 26t13.5 116q0 86 -13.5 112t-54.5 26h-162zM283 -73l-56 -155 q-2 -11 -9 -11h-26q-7 0 -7 11l29 166q1 5 4.5 8.5t6.5 2.5l49 -8q11 -2 9 -14z" />
<glyph unicode="&#x157;" horiz-adv-x="280" d="M267 442q-26 11 -54 11q-45 0 -89 -29v-415q0 -9 -7 -9h-47q-8 0 -8 9v424l-14 55q-3 8 5 12l46 12q7 4 9 -5l12 -54q53 66 102 66q36 0 56 -10q7 -2 5 -11l-7 -49q-2 -10 -9 -7zM144 -73l-56 -155q-2 -11 -9 -11h-26q-7 0 -7 11l29 166q1 5 4.5 8.5t6.5 2.5l49 -8 q11 -2 9 -14z" />
<glyph unicode="&#x158;" horiz-adv-x="494" d="M139 297v-288q0 -9 -7 -9h-53q-7 0 -7 9v679q0 9 7 9h222q67 0 103.5 -50.5t36.5 -147.5q0 -188 -124 -200l139 -274q3 -7 -3 -13l-44 -24q-7 -5 -11 4l-151 305h-108zM139 637v-280h162q41 0 54.5 26t13.5 116q0 86 -13.5 112t-54.5 26h-162zM257 747h-35q-11 0 -18 8 l-80 84q-3 3 -1.5 7t4.5 6l29 22q4 3 11 -4l73 -79l73 79q6 8 10 4l29 -22q10 -5 4 -13l-81 -84q-7 -8 -18 -8z" />
<glyph unicode="&#x159;" horiz-adv-x="280" d="M267 442q-26 11 -54 11q-45 0 -89 -29v-415q0 -9 -7 -9h-47q-8 0 -8 9v424l-14 55q-3 8 5 12l46 12q7 4 9 -5l12 -54q53 66 102 66q36 0 56 -10q7 -2 5 -11l-7 -49q-2 -10 -9 -7zM185 568h-35q-11 0 -18 8l-72 98q-3 3 -1.5 7t4.5 6l29 18q4 3 11 -4l65 -88l65 88 q6 8 10 4l29 -18q10 -5 4 -13l-73 -98q-7 -8 -18 -8z" />
<glyph unicode="&#x15a;" horiz-adv-x="466" d="M210 48q88 0 111 27.5t23 113.5q0 35 -1.5 52t-7 35t-18 26t-33 14.5t-54.5 10.5q-103 12 -141 50t-38 133q0 110 46 157t149 47q75 0 142 -25q7 -4 4 -13l-13 -43q-2 -9 -8 -6q-57 25 -125 25q-23 0 -40.5 -1t-30.5 -6t-22 -8.5t-15 -14.5t-9 -18t-4.5 -25t-1.5 -29.5 v-37.5q0 -76 16.5 -94.5t98.5 -28.5q101 -13 139 -57t38 -142q0 -109 -50.5 -156.5t-154.5 -47.5q-75 0 -142 25q-7 4 -4 13l13 43q2 9 8 6q57 -25 125 -25zM329 855l-104 -112q-6 -4 -12 -1l-29 15q-3 1 -3.5 5.5t1.5 7.5l92 113q5 7 14 3l40 -16q4 -1 4 -6.5t-3 -8.5z" />
<glyph unicode="&#x15b;" horiz-adv-x="354" d="M41 7q-6 1 -4 13l15 43q2 8 8 6q53 -24 115 -24q50 0 63.5 18t13.5 80q0 45 -12 60t-64 25q-75 15 -108 45.5t-33 95.5q0 150 145 150q55 0 115 -21q6 -3 4 -13l-15 -43q-2 -8 -8 -6q-47 23 -98 23q-52 0 -64 -16.5t-12 -73.5q0 -43 13 -57.5t67 -23.5q77 -13 107 -46.5 t30 -97.5q0 -79 -34.5 -118.5t-112.5 -39.5q-71 0 -131 21zM262 673l-95 -112q-6 -4 -12 -1l-21 18q-3 2 -5.5 6t-1.5 7l83 115q7 7 14 3l37 -21q4 -1 4 -6.5t-3 -8.5z" />
<glyph unicode="&#x15c;" horiz-adv-x="466" d="M210 48q88 0 111 27.5t23 113.5q0 35 -1.5 52t-7 35t-18 26t-33 14.5t-54.5 10.5q-103 12 -141 50t-38 133q0 110 46 157t149 47q75 0 142 -25q7 -4 4 -13l-13 -43q-2 -9 -8 -6q-57 25 -125 25q-23 0 -40.5 -1t-30.5 -6t-22 -8.5t-15 -14.5t-9 -18t-4.5 -25t-1.5 -29.5 v-37.5q0 -76 16.5 -94.5t98.5 -28.5q101 -13 139 -57t38 -142q0 -109 -50.5 -156.5t-154.5 -47.5q-75 0 -142 25q-7 4 -4 13l13 43q2 9 8 6q57 -25 125 -25zM224 876h35q11 0 18 -8l81 -84q6 -8 -4 -13l-29 -22q-5 -3 -10 4l-73 79l-73 -79q-7 -7 -11 -4l-29 22q-3 2 -4.5 6 t1.5 7l80 84q7 8 18 8z" />
<glyph unicode="&#x15d;" horiz-adv-x="354" d="M41 7q-6 1 -4 13l15 43q2 8 8 6q53 -24 115 -24q50 0 63.5 18t13.5 80q0 45 -12 60t-64 25q-75 15 -108 45.5t-33 95.5q0 150 145 150q55 0 115 -21q6 -3 4 -13l-15 -43q-2 -8 -8 -6q-47 23 -98 23q-52 0 -64 -16.5t-12 -73.5q0 -43 13 -57.5t67 -23.5q77 -13 107 -46.5 t30 -97.5q0 -79 -34.5 -118.5t-112.5 -39.5q-71 0 -131 21zM164 708h35q11 0 18 -8l73 -98q6 -8 -4 -13l-29 -18q-5 -3 -10 4l-65 88l-65 -88q-7 -7 -11 -4l-29 18q-3 2 -4.5 6t1.5 7l72 98q7 8 18 8z" />
<glyph unicode="&#x15e;" horiz-adv-x="466" d="M146 -176l12 26q3 6 7 4q31 -14 66 -14q24 0 31.5 7t7.5 29q0 23 -12 28t-72 5q-3 0 -5 3.5t-1 7.5l21 66q-70 2 -133 25q-7 4 -4 13l13 43q2 9 8 6q57 -25 125 -25q88 0 111 27.5t23 113.5q0 35 -1.5 52t-7 35t-18 26t-33 14.5t-54.5 10.5q-103 12 -141 50t-38 133 q0 110 46 157t149 47q75 0 142 -25q7 -4 4 -13l-13 -43q-2 -9 -8 -6q-57 25 -125 25q-23 0 -40.5 -1t-30.5 -6t-22 -8.5t-15 -14.5t-9 -18t-4.5 -25t-1.5 -29.5v-37.5q0 -76 16.5 -94.5t98.5 -28.5q101 -13 139 -57t38 -142q0 -102 -44.5 -150t-136.5 -53v-39q54 0 74.5 -16 t20.5 -54q0 -43 -21 -62t-74 -19q-60 0 -85 17q-3 2 -3 10z" />
<glyph unicode="&#x15f;" horiz-adv-x="354" d="M86 -176l12 26q3 6 7 4q31 -14 66 -14q24 0 31.5 7t7.5 29q0 23 -12 28t-72 5q-3 0 -5 3.5t-1 7.5l21 67q-57 5 -100 20q-6 1 -4 13l15 43q2 8 8 6q53 -24 115 -24q50 0 63.5 18t13.5 80q0 45 -12 60t-64 25q-75 15 -108 45.5t-33 95.5q0 150 145 150q55 0 115 -21 q6 -3 4 -13l-15 -43q-2 -8 -8 -6q-47 23 -98 23q-52 0 -64 -16.5t-12 -73.5q0 -43 13 -57.5t67 -23.5q77 -13 107 -46.5t30 -97.5q0 -78 -34 -117.5t-111 -40.5v-38q54 0 74.5 -16t20.5 -54q0 -43 -21 -62t-74 -19q-60 0 -85 17q-3 2 -3 10z" />
<glyph unicode="&#x160;" horiz-adv-x="466" d="M210 48q88 0 111 27.5t23 113.5q0 35 -1.5 52t-7 35t-18 26t-33 14.5t-54.5 10.5q-103 12 -141 50t-38 133q0 110 46 157t149 47q75 0 142 -25q7 -4 4 -13l-13 -43q-2 -9 -8 -6q-57 25 -125 25q-23 0 -40.5 -1t-30.5 -6t-22 -8.5t-15 -14.5t-9 -18t-4.5 -25t-1.5 -29.5 v-37.5q0 -76 16.5 -94.5t98.5 -28.5q101 -13 139 -57t38 -142q0 -109 -50.5 -156.5t-154.5 -47.5q-75 0 -142 25q-7 4 -4 13l13 43q2 9 8 6q57 -25 125 -25zM261 747h-35q-11 0 -18 8l-80 84q-3 3 -1.5 7t4.5 6l29 22q4 3 11 -4l73 -79l73 79q6 8 10 4l29 -22q10 -5 4 -13 l-81 -84q-7 -8 -18 -8z" />
<glyph unicode="&#x161;" horiz-adv-x="354" d="M41 7q-6 1 -4 13l15 43q2 8 8 6q53 -24 115 -24q50 0 63.5 18t13.5 80q0 45 -12 60t-64 25q-75 15 -108 45.5t-33 95.5q0 150 145 150q55 0 115 -21q6 -3 4 -13l-15 -43q-2 -8 -8 -6q-47 23 -98 23q-52 0 -64 -16.5t-12 -73.5q0 -43 13 -57.5t67 -23.5q77 -13 107 -46.5 t30 -97.5q0 -79 -34.5 -118.5t-112.5 -39.5q-71 0 -131 21zM195 568h-35q-11 0 -18 8l-72 98q-3 3 -1.5 7t4.5 6l29 18q4 3 11 -4l65 -88l65 88q6 8 10 4l29 -18q10 -5 4 -13l-73 -98q-7 -8 -18 -8z" />
<glyph unicode="&#x162;" horiz-adv-x="399" d="M392 697q7 0 7 -9v-42q0 -9 -7 -9h-159v-628q0 -9 -7 -9h-53q-7 0 -7 9v628h-159q-7 0 -7 9v42q0 9 7 9h385zM247 -73l-56 -155q-2 -11 -9 -11h-26q-7 0 -7 11l29 166q1 5 4.5 8.5t6.5 2.5l49 -8q11 -2 9 -14z" />
<glyph unicode="&#x163;" horiz-adv-x="295" d="M135 631v-126h120q7 0 7 -9v-37q0 -9 -7 -9h-120v-280q0 -83 9.5 -102t47.5 -19q28 0 57 12q6 2 8 -6l13 -38q4 -11 -4 -14q-28 -17 -76 -17q-65 0 -91 37.5t-26 145.5v281h-47q-7 0 -7 9v37q0 9 7 9h47v102q0 10 4 12l50 18q8 4 8 -6zM174 -73l-56 -155q-2 -11 -9 -11 h-26q-7 0 -7 11l29 166q1 5 4.5 8.5t6.5 2.5l49 -8q11 -2 9 -14z" />
<glyph unicode="&#x164;" horiz-adv-x="399" d="M392 697q7 0 7 -9v-42q0 -9 -7 -9h-159v-628q0 -9 -7 -9h-53q-7 0 -7 9v628h-159q-7 0 -7 9v42q0 9 7 9h385zM216 747h-35q-11 0 -18 8l-80 84q-3 3 -1.5 7t4.5 6l29 22q4 3 11 -4l73 -79l73 79q6 8 10 4l29 -22q10 -5 4 -13l-81 -84q-7 -8 -18 -8z" />
<glyph unicode="&#x165;" horiz-adv-x="295" d="M135 631v-126h120q7 0 7 -9v-37q0 -9 -7 -9h-120v-280q0 -83 9.5 -102t47.5 -19q28 0 57 12q6 2 8 -6l13 -38q4 -11 -4 -14q-28 -17 -76 -17q-65 0 -91 37.5t-26 145.5v281h-47q-7 0 -7 9v37q0 9 7 9h47v102q0 10 4 12l50 18q8 4 8 -6zM245 700l-37 -147q-4 -11 -10 -11 h-22q-8 0 -6 11l11 148q2 13 10 13h45q11 0 9 -14z" />
<glyph unicode="&#x166;" horiz-adv-x="399" d="M325 295h-92v-286q0 -9 -7 -9h-53q-7 0 -7 9v286h-92q-8 0 -8 9v43q0 9 8 9h92v281h-159q-7 0 -7 9v42q0 9 7 9h385q7 0 7 -9v-42q0 -9 -7 -9h-159v-281h92q7 0 7 -9v-43q0 -9 -7 -9z" />
<glyph unicode="&#x167;" horiz-adv-x="299" d="M227 230h-88v-60q0 -83 9.5 -102t47.5 -19q29 0 57 12q6 3 8 -6l12 -39q4 -11 -4 -13q-28 -17 -75 -17q-65 0 -91 37.5t-26 145.5v61h-34q-7 0 -7 9v40q0 9 7 9h34v162h-47q-7 0 -7 9v37q0 9 7 9h47v102q0 10 4 12l50 18q8 4 8 -6v-126h120q7 0 7 -9v-37q0 -9 -7 -9h-120 v-162h88q7 0 7 -9v-40q0 -9 -7 -9z" />
<glyph unicode="&#x168;" horiz-adv-x="510" d="M380 247v441q0 9 7 9h52q7 0 7 -9v-441q0 -141 -43 -201t-148 -60t-148 60t-43 201v441q0 9 7 9h53q7 0 7 -9v-441q0 -56 2 -85.5t8 -55t21 -35t36 -14.5t58 -5q30 0 49 2.5t34 11.5t22.5 20t12 36t5.5 51.5t1 73.5zM202 808q-20 0 -28.5 -9.5t-16.5 -35.5q-3 -11 -10 -4 l-29 16q-5 5 -2 15q29 75 87 75q26 0 43 -13.5t31 -27t31 -13.5q20 0 29 9.5t16 35.5q4 11 11 4l28 -16q5 -5 2 -15q-29 -75 -84 -75q-26 0 -44.5 13.5t-33.5 27t-30 13.5z" />
<glyph unicode="&#x169;" horiz-adv-x="422" d="M362 62l12 -46q2 -9 -5 -12l-47 -11q-7 -4 -9 5l-13 54q-47 -66 -113 -66q-51 0 -79.5 17.5t-44 69t-15.5 147.5v276q0 9 7 9h48q7 0 7 -9v-263v-57t2 -43t4 -33.5t7.5 -22t11.5 -16.5t17.5 -8.5t24 -5t32.5 -0.5q42 0 91 34v415q0 9 8 9h47q7 0 7 -9v-434zM160 636 q-12 0 -19.5 -10.5t-15.5 -37.5q-3 -10 -10 -4l-29 19q-5 5 -2 15q29 75 76 75q24 0 50 -27t43 -27q14 0 21.5 10.5t14.5 37.5q4 11 11 4l28 -19q5 -5 2 -15q-29 -75 -77 -75q-23 0 -40 13.5t-29.5 27t-23.5 13.5z" />
<glyph unicode="&#x16a;" horiz-adv-x="510" d="M380 247v441q0 9 7 9h52q7 0 7 -9v-441q0 -141 -43 -201t-148 -60t-148 60t-43 201v441q0 9 7 9h53q7 0 7 -9v-441q0 -56 2 -85.5t8 -55t21 -35t36 -14.5t58 -5q30 0 49 2.5t34 11.5t22.5 20t12 36t5.5 51.5t1 73.5zM347 771h-184q-7 0 -7 9v40q0 9 7 9h184q7 0 7 -9v-40 q0 -9 -7 -9z" />
<glyph unicode="&#x16b;" horiz-adv-x="422" d="M362 62l12 -46q2 -9 -5 -12l-47 -11q-7 -4 -9 5l-13 54q-47 -66 -113 -66q-51 0 -79.5 17.5t-44 69t-15.5 147.5v276q0 9 7 9h48q7 0 7 -9v-263v-57t2 -43t4 -33.5t7.5 -22t11.5 -16.5t17.5 -8.5t24 -5t32.5 -0.5q42 0 91 34v415q0 9 8 9h47q7 0 7 -9v-434zM300 598h-184 q-7 0 -7 9v40q0 9 7 9h184q8 0 8 -9v-40q0 -9 -8 -9z" />
<glyph unicode="&#x16c;" horiz-adv-x="510" d="M380 247v441q0 9 7 9h52q7 0 7 -9v-441q0 -141 -43 -201t-148 -60t-148 60t-43 201v441q0 9 7 9h53q7 0 7 -9v-441q0 -56 2 -85.5t8 -55t21 -35t36 -14.5t58 -5q30 0 49 2.5t34 11.5t22.5 20t12 36t5.5 51.5t1 73.5zM254 745q-54 0 -80.5 27t-26.5 90q0 9 9 9h34 q8 0 8 -9q0 -42 8.5 -51t48.5 -9t48.5 9t8.5 51q0 9 8 9h34q9 0 9 -9q0 -63 -27 -90t-82 -27z" />
<glyph unicode="&#x16d;" horiz-adv-x="422" d="M362 62l12 -46q2 -9 -5 -12l-47 -11q-7 -4 -9 5l-13 54q-47 -66 -113 -66q-51 0 -79.5 17.5t-44 69t-15.5 147.5v276q0 9 7 9h48q7 0 7 -9v-263v-57t2 -43t4 -33.5t7.5 -22t11.5 -16.5t17.5 -8.5t24 -5t32.5 -0.5q42 0 91 34v415q0 9 8 9h47q7 0 7 -9v-434zM203 579 q-52 0 -77 28.5t-25 90.5q0 9 9 9h32q8 0 8 -9q0 -41 8.5 -53t45.5 -12t45.5 12t8.5 53q0 9 8 9h32q9 0 9 -9q0 -62 -25 -90.5t-79 -28.5z" />
<glyph unicode="&#x16e;" horiz-adv-x="510" d="M380 247v441q0 9 7 9h52q7 0 7 -9v-441q0 -141 -43 -201t-148 -60t-148 60t-43 201v441q0 9 7 9h53q7 0 7 -9v-441q0 -56 2 -85.5t8 -55t21 -35t36 -14.5t58 -5q30 0 49 2.5t34 11.5t22.5 20t12 36t5.5 51.5t1 73.5zM255 873q88 0 88 -94t-88 -94q-87 0 -87 94 q0 48 20 71t67 23zM255 832q-24 0 -31.5 -13.5t-7.5 -41.5t7.5 -42t31.5 -14q25 0 32.5 14t7.5 42q0 19 -2 29.5t-11 18t-27 7.5z" />
<glyph unicode="&#x16f;" horiz-adv-x="422" d="M362 62l12 -46q2 -9 -5 -12l-47 -11q-7 -4 -9 5l-13 54q-47 -66 -113 -66q-51 0 -79.5 17.5t-44 69t-15.5 147.5v276q0 9 7 9h48q7 0 7 -9v-263v-57t2 -43t4 -33.5t7.5 -22t11.5 -16.5t17.5 -8.5t24 -5t32.5 -0.5q42 0 91 34v415q0 9 8 9h47q7 0 7 -9v-434zM206 738 q88 0 88 -94t-88 -94q-87 0 -87 94q0 48 20 71t67 23zM206 695q-26 0 -32.5 -9.5t-6.5 -43.5q0 -33 6.5 -42.5t32.5 -9.5q27 0 34 9.5t7 42.5q0 34 -7 43.5t-34 9.5z" />
<glyph unicode="&#x170;" horiz-adv-x="510" d="M380 247v441q0 9 7 9h52q7 0 7 -9v-441q0 -141 -43 -201t-148 -60t-148 60t-43 201v441q0 9 7 9h53q7 0 7 -9v-441q0 -56 2 -85.5t8 -55t21 -35t36 -14.5t58 -5q30 0 49 2.5t34 11.5t22.5 20t12 36t5.5 51.5t1 73.5zM277 854l-88 -112q-3 -5 -9 -1l-26 15q-2 1 -2.5 5.5 t1.5 7.5l78 113q3 7 11 3l34 -16q3 -1 3 -6.5t-2 -8.5zM398 854l-88 -112q-3 -5 -9 -1l-26 15q-2 1 -2.5 5.5t1.5 7.5l78 113q3 7 11 3l35 -16q3 -1 3 -6.5t-3 -8.5z" />
<glyph unicode="&#x171;" horiz-adv-x="422" d="M362 62l12 -46q2 -9 -5 -12l-47 -11q-7 -4 -9 5l-13 54q-47 -66 -113 -66q-51 0 -79.5 17.5t-44 69t-15.5 147.5v276q0 9 7 9h48q7 0 7 -9v-263v-57t2 -43t4 -33.5t7.5 -22t11.5 -16.5t17.5 -8.5t24 -5t32.5 -0.5q42 0 91 34v415q0 9 8 9h47q7 0 7 -9v-434zM219 674 l-80 -112q-3 -5 -9 -1l-26 15q-2 1 -2.5 5.5t1.5 7.5l70 113q3 7 11 3l34 -16q3 -1 3 -6.5t-2 -8.5zM340 674l-80 -112q-3 -5 -9 -1l-26 15q-2 1 -2.5 5.5t1.5 7.5l70 113q3 7 11 3l35 -16q3 -1 3 -6.5t-3 -8.5z" />
<glyph unicode="&#x172;" horiz-adv-x="510" d="M364 -146l9 -27q3 -13 -4 -16q-38 -14 -78 -14q-57 0 -79 22t-22 73q0 58 49 94q-96 4 -135.5 64.5t-39.5 196.5v441q0 9 7 9h53q7 0 7 -9v-441q0 -56 2 -85.5t8 -55t21 -35t36 -14.5t58 -5q30 0 49 2.5t34 11.5t22.5 20t12 36t5.5 51.5t1 73.5v441q0 9 7 9h52q7 0 7 -9 v-441q0 -130 -36.5 -190.5t-122.5 -68.5q-24 -22 -31 -39.5t-7 -46.5q0 -32 9 -43t37 -11q34 0 58 10q9 3 11 -4z" />
<glyph unicode="&#x173;" horiz-adv-x="422" d="M409 -146l9 -27q3 -13 -4 -16q-38 -14 -78 -14q-57 0 -79 22t-22 73q0 75 77 110l-12 50q-47 -66 -113 -66q-51 0 -79.5 17.5t-44 69t-15.5 147.5v276q0 9 7 9h48q7 0 7 -9v-263v-57t2 -43t4 -33.5t7.5 -22t11.5 -16.5t17.5 -8.5t24 -5t32.5 -0.5q42 0 91 34v415q0 9 8 9 h47q7 0 7 -9v-434l12 -46q2 -9 -5 -12l-25 -6q-32 -26 -41 -45t-9 -51t9 -43t37 -11q34 0 58 10q9 3 11 -4z" />
<glyph unicode="&#x174;" horiz-adv-x="692" d="M332 561l-117 -552q-2 -9 -8 -9h-58q-4 0 -8 9l-124 676q-4 9 5 11l50 6q7 2 9 -5l89 -523l13 -112l14 112l106 514q2 9 8 9h73q6 0 8 -9l106 -514l14 -112l13 112l88 523q2 7 9 5l48 -6q9 -2 5 -11l-125 -676q-4 -9 -8 -9h-58q-4 0 -8 9l-117 552l-14 91zM328 876h35 q11 0 18 -8l81 -84q6 -8 -4 -13l-29 -22q-5 -3 -10 4l-73 79l-73 -79q-7 -7 -11 -4l-29 22q-3 2 -4.5 6t1.5 7l80 84q7 8 18 8z" />
<glyph unicode="&#x175;" horiz-adv-x="599" d="M334 496l86 -381l9 -61l7 61l79 391q2 7 9 5l45 -12q5 -1 5 -11l-111 -479q-2 -9 -8 -9h-55q-4 0 -8 9l-83 357l-11 69l-10 -69l-82 -357q-2 -9 -8 -9h-55q-4 0 -8 9l-109 479q-4 9 4 11l47 12q7 2 9 -5l83 -391l5 -61l8 61l84 381q0 9 8 9h52q6 0 8 -9zM281 708h35 q11 0 18 -8l73 -98q6 -8 -4 -13l-29 -18q-5 -3 -10 4l-65 88l-65 -88q-8 -7 -11 -4l-29 18q-3 2 -4.5 6t1.5 7l72 98q7 8 18 8z" />
<glyph unicode="&#x176;" horiz-adv-x="436" d="M185 341l-175 329q-5 8 1 14l37 25q6 6 11 -1l138 -264l22 -54l22 54l136 264q2 2 5 2.5t5 -1.5l38 -25q6 -6 1 -14l-174 -329v-332q0 -9 -7 -9h-52q-8 0 -8 9v332zM200 876h35q11 0 18 -8l81 -84q6 -8 -4 -13l-29 -22q-5 -3 -10 4l-73 79l-73 -79q-7 -7 -11 -4l-29 22 q-3 2 -4.5 6t1.5 7l80 84q7 8 18 8z" />
<glyph unicode="&#x177;" horiz-adv-x="369" d="M351 488l-151 -567q-34 -124 -120 -124q-8 0 -9 10l-10 43q-1 3 -0.5 5t1.5 3.5t3 1.5q43 0 60.5 24.5t38.5 115.5h-6q-7 0 -10 8l-130 480q-4 9 4 11l49 12q7 2 9 -5l93 -371l12 -90l15 90l91 371q2 7 9 5l46 -12q9 -2 5 -11zM166 708h35q11 0 18 -8l73 -98q6 -8 -4 -13 l-29 -18q-5 -3 -10 4l-65 88l-65 -88q-7 -7 -11 -4l-29 18q-3 2 -4.5 6t1.5 7l72 98q7 8 18 8z" />
<glyph unicode="&#x178;" horiz-adv-x="436" d="M185 341l-175 329q-5 8 1 14l37 25q6 6 11 -1l138 -264l22 -54l22 54l136 264q2 2 5 2.5t5 -1.5l38 -25q6 -6 1 -14l-174 -329v-332q0 -9 -7 -9h-52q-8 0 -8 9v332zM143 847q20 0 28.5 -7.5t8.5 -31.5q0 -26 -8.5 -34.5t-28.5 -8.5t-28.5 8.5t-8.5 34.5q0 24 8.5 31.5 t28.5 7.5zM295 847q20 0 28 -7.5t8 -31.5q0 -26 -8 -34.5t-28 -8.5q-21 0 -29.5 8.5t-8.5 34.5q0 24 8.5 31.5t29.5 7.5z" />
<glyph unicode="&#x179;" horiz-adv-x="446" d="M22 42l322 595h-307q-8 0 -8 10v40q0 10 8 10h384q8 0 8 -10v-11q0 -11 -6 -21l-320 -595h319q8 0 8 -10v-40q0 -10 -8 -10h-398q-8 0 -8 10v11q0 11 6 21zM327 855l-104 -112q-6 -4 -12 -1l-29 15q-3 1 -3.5 5.5t1.5 7.5l92 113q5 7 14 3l40 -16q4 -1 4 -6.5t-3 -8.5z " />
<glyph unicode="&#x17a;" horiz-adv-x="358" d="M30 39l223 411h-210q-7 0 -7 9v37q0 9 7 9h285q7 0 7 -9v-11q0 -9 -5 -19l-221 -411h220q7 0 7 -9v-37q0 -9 -7 -9h-298q-7 0 -7 9v11q0 11 6 19zM268 673l-95 -112q-6 -4 -12 -1l-21 18q-3 2 -5.5 6t-1.5 7l83 115q7 7 14 3l37 -21q4 -1 4 -6.5t-3 -8.5z" />
<glyph unicode="&#x17b;" horiz-adv-x="446" d="M22 42l322 595h-307q-8 0 -8 10v40q0 10 8 10h384q8 0 8 -10v-11q0 -11 -6 -21l-320 -595h319q8 0 8 -10v-40q0 -10 -8 -10h-398q-8 0 -8 10v11q0 11 6 21zM230 847q21 0 29.5 -7.5t8.5 -31.5q0 -26 -9 -34.5t-29 -8.5t-29 8.5t-9 34.5q0 24 8.5 31.5t29.5 7.5z" />
<glyph unicode="&#x17c;" horiz-adv-x="358" d="M30 39l223 411h-210q-7 0 -7 9v37q0 9 7 9h285q7 0 7 -9v-11q0 -9 -5 -19l-221 -411h220q7 0 7 -9v-37q0 -9 -7 -9h-298q-7 0 -7 9v11q0 11 6 19zM190 666q21 0 29.5 -7.5t8.5 -31.5q0 -26 -9 -34.5t-29 -8.5q-21 0 -30 8.5t-9 34.5q0 24 9 31.5t30 7.5z" />
<glyph unicode="&#x17d;" horiz-adv-x="446" d="M22 42l322 595h-307q-8 0 -8 10v40q0 10 8 10h384q8 0 8 -10v-11q0 -11 -6 -21l-320 -595h319q8 0 8 -10v-40q0 -10 -8 -10h-398q-8 0 -8 10v11q0 11 6 21zM252 747h-35q-11 0 -18 8l-80 84q-3 3 -1.5 7t4.5 6l29 22q4 3 11 -4l73 -79l73 79q6 8 10 4l29 -22q10 -5 4 -13 l-81 -84q-7 -8 -18 -8z" />
<glyph unicode="&#x17e;" horiz-adv-x="358" d="M30 39l223 411h-210q-7 0 -7 9v37q0 9 7 9h285q7 0 7 -9v-11q0 -9 -5 -19l-221 -411h220q7 0 7 -9v-37q0 -9 -7 -9h-298q-7 0 -7 9v11q0 11 6 19zM204 568h-35q-11 0 -18 8l-72 98q-3 3 -1.5 7t4.5 6l29 18q4 3 11 -4l65 -88l65 88q6 8 10 4l29 -18q10 -5 4 -13l-73 -98 q-7 -8 -18 -8z" />
<glyph unicode="&#x192;" horiz-adv-x="443" d="M177 -28v478h-43q-8 0 -8 9v37q0 9 8 9h43v47q0 170 120 170q41 0 81 -10q7 -4 4 -13l-13 -43q-2 -9 -8 -6q-34 12 -64 12q-41 0 -49.5 -18t-8.5 -92v-47h115q8 0 8 -9v-37q0 -9 -8 -9h-115v-478q0 -80 -37.5 -127.5t-89.5 -47.5q-8 0 -9 10l-8 43q-3 8 4 10 q49 8 63.5 27t14.5 85z" />
<glyph unicode="&#x1a0;" horiz-adv-x="531" d="M587 697l-43 -195q-2 -11 -9 -11h-31q-8 0 -6 11l20 206q2 11 12 11l48 -8q11 0 9 -14zM266 52q63 0 90 19t39.5 81.5t12.5 202.5q0 135 -12.5 196t-39.5 79.5t-90 18.5q-38 0 -60 -5.5t-40 -21t-26.5 -49.5t-12.5 -85t-4 -133q0 -85 4 -137.5t12.5 -87.5t26.5 -51 t40 -21.5t60 -5.5zM266 -14q-56 0 -93.5 15t-66.5 55t-42.5 113.5t-13.5 185.5q0 109 13.5 180t42.5 110t66.5 54t93.5 15t93.5 -15t66 -54t42 -110t13.5 -180q0 -112 -13.5 -185.5t-42 -113.5t-66 -55t-93.5 -15z" />
<glyph unicode="&#x1a1;" horiz-adv-x="434" d="M477 697l-42 -195q-4 -11 -10 -11h-31q-8 0 -6 11l21 206q2 11 11 11l48 -8q6 0 8.5 -4.5t0.5 -9.5zM217 457q-25 0 -40.5 -2t-28 -11t-18 -20t-9.5 -37.5t-4.5 -54.5t-0.5 -79q0 -53 0.5 -81.5t4.5 -55.5t9.5 -37.5t18.5 -19t27.5 -10t40.5 -1.5t40.5 1.5t27.5 10 t18 19.5t9.5 37t5 55t0.5 82q0 61 -2 92t-6.5 57.5t-16.5 36t-29 14t-47 4.5zM217 -14q-95 0 -132 57.5t-37 211.5q0 152 37 208t132 56t132 -56t37 -208q0 -154 -37 -211.5t-132 -57.5z" />
<glyph unicode="&#x1af;" horiz-adv-x="510" d="M571 697l-43 -195q-2 -11 -9 -11h-31q-8 0 -6 11l20 206q2 11 12 11l48 -8q11 0 9 -14zM380 247v441q0 9 7 9h52q7 0 7 -9v-441q0 -141 -43 -201t-148 -60t-148 60t-43 201v441q0 9 7 9h53q7 0 7 -9v-441q0 -56 2 -85.5t8 -55t21 -35t36 -14.5t58 -5q30 0 49 2.5t34 11.5 t22.5 20t12 36t5.5 51.5t1 73.5z" />
<glyph unicode="&#x1b0;" horiz-adv-x="422" d="M490 697l-42 -195q-4 -11 -10 -11h-31q-8 0 -6 11l21 206q0 11 11 11l48 -8q5 0 8 -4.5t1 -9.5zM362 62l12 -46q2 -9 -5 -12l-47 -11q-7 -4 -9 5l-13 54q-47 -66 -113 -66q-51 0 -79.5 17.5t-44 69t-15.5 147.5v276q0 9 7 9h48q7 0 7 -9v-263v-57t2 -43t4 -33.5t7.5 -22 t11.5 -16.5t17.5 -8.5t24 -5t32.5 -0.5q42 0 91 34v415q0 9 8 9h47q7 0 7 -9v-434z" />
<glyph unicode="&#x1f5;" horiz-adv-x="438" d="M403 450h-86q56 -62 56 -126q0 -82 -40 -117t-124 -35q-47 0 -77 11q-4 -24 -4 -36q0 -33 16 -43.5t82 -10.5q99 0 138 -28t39 -111q0 -84 -42 -120.5t-143 -36.5q-91 0 -132 30t-41 100q0 76 66 123q-39 18 -39 69q0 39 40 71q-63 30 -63 147q0 94 40 131t120 37h194 q7 0 7 -9v-37q0 -9 -7 -9zM306 339q0 66 -19 111h-76q-63 0 -79.5 -19.5t-16.5 -88.5t15.5 -90t78.5 -21q29 0 47 3.5t28.5 9t15 21t5.5 29.5t1 45zM226 35q-58 0 -93 11q-18 -43 -18 -101q0 -52 19.5 -69t88.5 -17t90.5 19t21.5 67q0 33 -1.5 46t-12.5 25.5t-32 15.5t-63 3 zM293 673l-95 -112q-6 -4 -12 -1l-21 18q-3 2 -5.5 6t-1.5 7l83 115q7 7 14 3l37 -21q4 -1 4 -6.5t-3 -8.5z" />
<glyph unicode="&#x1fc;" horiz-adv-x="657" d="M626 0h-312q-7 0 -7 9v201h-215l-110 -213q-4 -7 -10 -5l-48 12q-7 2 -2 11l356 673q5 9 10 9h338q7 0 7 -9v-42q0 -9 -7 -9h-252v-237h204q7 0 7 -9v-42q0 -9 -7 -9h-204v-280h252q7 0 7 -9v-42q0 -9 -7 -9zM307 634l-186 -367h186v367zM546 855l-104 -112q-6 -4 -12 -1 l-29 15q-3 1 -3.5 5.5t1.5 7.5l92 113q5 7 14 3l40 -16q4 -1 4 -6.5t-3 -8.5z" />
<glyph unicode="&#x1fd;" horiz-adv-x="660" d="M609 253h-244q0 -61 2.5 -95t8.5 -58.5t21 -34.5t33 -13.5t52 -3.5q53 0 99 24q6 3 8 -6l12 -43q3 -9 -4 -13q-48 -24 -115 -24q-125 0 -154 78q-51 -78 -131 -78q-85 0 -117 37.5t-32 124.5t32 124.5t117 37.5q29 0 60 -21t44 -45v66q0 92 -18 119.5t-81 27.5 q-58 0 -105 -21q-6 -2 -8 6l-13 42q-2 10 4 13q56 22 122 22q59 0 91 -19t46 -66q15 46 45.5 65.5t83.5 19.5q87 0 119.5 -50.5t32.5 -202.5q0 -13 -11 -13zM205 248q-62 0 -77 -18.5t-15 -81.5t15 -81.5t77 -18.5q48 0 96 33v134q-48 33 -96 33zM366 307h192 q-2 101 -16.5 126.5t-75.5 25.5q-62 0 -79.5 -27t-20.5 -125zM427 673l-95 -112q-6 -4 -12 -1l-21 18q-3 2 -5.5 6t-1.5 7l83 115q7 7 14 3l37 -21q4 -1 4 -6.5t-3 -8.5z" />
<glyph unicode="&#x1fe;" horiz-adv-x="531" d="M480 715l-45 -86q46 -82 46 -274q0 -112 -13.5 -185.5t-42 -113.5t-66 -55t-93.5 -15q-92 0 -139 44l-40 -77q-1 -4 -4 -5t-5 1l-32 19q-7 5 -3 11l51 97q-44 85 -44 279q0 109 13.5 180t42.5 110t66.5 54t93.5 15q89 0 134 -40l35 68q5 7 10 4l32 -20q6 -4 3 -11z M266 52q63 0 90 19t39.5 81.5t12.5 202.5q0 146 -14 197l-238 -466q28 -34 110 -34zM123 355q0 -143 14 -200l235 464q-28 30 -106 30q-38 0 -60 -5.5t-40 -21t-26.5 -49.5t-12.5 -85t-4 -133zM357 855l-104 -112q-6 -4 -12 -1l-29 15q-3 1 -3.5 5.5t1.5 7.5l92 113 q5 7 14 3l40 -16q4 -1 4 -6.5t-3 -8.5z" />
<glyph unicode="&#x1ff;" horiz-adv-x="434" d="M392 536l-41 -77q35 -60 35 -204q0 -154 -37 -211.5t-132 -57.5q-65 0 -102 25l-39 -74q-3 -9 -8 -4l-29 17q-6 6 -2 10l45 87q-34 60 -34 208q0 152 37 208t132 56q66 0 101 -24l35 66q2 7 8 3l29 -18q6 -3 2 -10zM318 253q0 94 -10 133l-166 -324q19 -14 75 -14 q26 0 40.5 1.5t27.5 10t18 19.5t9.5 37t5 55t0.5 82zM217 457q-25 0 -40.5 -2t-28 -11t-18 -20t-9.5 -37.5t-4.5 -54.5t-0.5 -79q0 -100 8 -135l166 324q-20 15 -73 15zM306 673l-95 -112q-6 -4 -12 -1l-21 18q-3 2 -5.5 6t-1.5 7l83 115q7 7 14 3l37 -21q4 -1 4 -6.5 t-3 -8.5z" />
<glyph unicode="&#x218;" horiz-adv-x="466" d="M210 48q88 0 111 27.5t23 113.5q0 35 -1.5 52t-7 35t-18 26t-33 14.5t-54.5 10.5q-103 12 -141 50t-38 133q0 110 46 157t149 47q75 0 142 -25q7 -4 4 -13l-13 -43q-2 -9 -8 -6q-57 25 -125 25q-23 0 -40.5 -1t-30.5 -6t-22 -8.5t-15 -14.5t-9 -18t-4.5 -25t-1.5 -29.5 v-37.5q0 -76 16.5 -94.5t98.5 -28.5q101 -13 139 -57t38 -142q0 -109 -50.5 -156.5t-154.5 -47.5q-75 0 -142 25q-7 4 -4 13l13 43q2 9 8 6q57 -25 125 -25zM280 -73l-56 -155q-2 -11 -9 -11h-26q-7 0 -7 11l29 166q1 5 4.5 8.5t6.5 2.5l49 -8q11 -2 9 -14z" />
<glyph unicode="&#x219;" horiz-adv-x="354" d="M41 7q-6 1 -4 13l15 43q2 8 8 6q53 -24 115 -24q50 0 63.5 18t13.5 80q0 45 -12 60t-64 25q-75 15 -108 45.5t-33 95.5q0 150 145 150q55 0 115 -21q6 -3 4 -13l-15 -43q-2 -8 -8 -6q-47 23 -98 23q-52 0 -64 -16.5t-12 -73.5q0 -43 13 -57.5t67 -23.5q77 -13 107 -46.5 t30 -97.5q0 -79 -34.5 -118.5t-112.5 -39.5q-71 0 -131 21zM219 -73l-56 -155q-2 -11 -9 -11h-26q-7 0 -7 11l29 166q1 5 4.5 8.5t6.5 2.5l49 -8q11 -2 9 -14z" />
<glyph unicode="&#x2c6;" horiz-adv-x="534" d="M264 708h35q11 0 18 -8l73 -98q6 -8 -4 -13l-29 -18q-5 -3 -10 4l-65 88l-65 -88q-7 -7 -11 -4l-29 18q-3 2 -4.5 6t1.5 7l72 98q7 8 18 8z" />
<glyph unicode="&#x2c7;" horiz-adv-x="534" d="M299 568h-35q-11 0 -18 8l-72 98q-3 3 -1.5 7t4.5 6l29 18q4 3 11 -4l65 -88l65 88q6 8 10 4l29 -18q10 -5 4 -13l-73 -98q-7 -8 -18 -8z" />
<glyph unicode="&#x2d8;" horiz-adv-x="430" d="M203 579q-52 0 -77 28.5t-25 90.5q0 9 9 9h32q8 0 8 -9q0 -41 8.5 -53t45.5 -12t45.5 12t8.5 53q0 9 8 9h32q9 0 9 -9q0 -62 -25 -90.5t-79 -28.5z" />
<glyph unicode="&#x2d9;" horiz-adv-x="326" d="M88 666q21 0 29.5 -7.5t8.5 -31.5q0 -26 -9 -34.5t-29 -8.5q-21 0 -30 8.5t-9 34.5q0 24 9 31.5t30 7.5z" />
<glyph unicode="&#x2da;" horiz-adv-x="582" d="M288 738q88 0 88 -94t-88 -94q-87 0 -87 94q0 48 20 71t67 23zM288 695q-26 0 -32.5 -9.5t-6.5 -43.5q0 -33 6.5 -42.5t32.5 -9.5q27 0 34 9.5t7 42.5q0 34 -7 43.5t-34 9.5z" />
<glyph unicode="&#x2db;" horiz-adv-x="523" d="M388 -146l9 -27q3 -13 -4 -16q-38 -14 -78 -14q-57 0 -79 22t-22 73q0 85 100 120h27q-44 -33 -56 -54t-12 -56q0 -32 9 -43t37 -11q34 0 58 10q9 3 11 -4z" />
<glyph unicode="&#x2dc;" horiz-adv-x="426" d="M166 636q-12 0 -19.5 -10.5t-15.5 -37.5q-3 -10 -10 -4l-29 19q-5 5 -2 15q29 75 76 75q24 0 50 -27t43 -27q14 0 21.5 10.5t14.5 37.5q4 11 11 4l28 -19q5 -5 2 -15q-29 -75 -77 -75q-23 0 -40 13.5t-29.5 27t-23.5 13.5z" />
<glyph unicode="&#x2dd;" horiz-adv-x="395" d="M216 674l-80 -112q-3 -5 -9 -1l-26 15q-2 1 -2.5 5.5t1.5 7.5l70 113q3 7 11 3l34 -16q3 -1 3 -6.5t-2 -8.5zM337 674l-80 -112q-3 -5 -9 -1l-26 15q-2 1 -2.5 5.5t1.5 7.5l70 113q3 7 11 3l35 -16q3 -1 3 -6.5t-3 -8.5z" />
<glyph unicode="&#x300;" horiz-adv-x="395" d="M198 561l-95 112q-3 3 -3 8.5t4 6.5l37 21q8 4 13 -3l84 -115q2 -3 1.5 -7.5t-3.5 -5.5l-27 -18q-7 -3 -11 1z" />
<glyph unicode="&#x301;" horiz-adv-x="395" d="M242 673l-95 -112q-6 -4 -12 -1l-21 18q-3 2 -5.5 6t-1.5 7l83 115q7 7 14 3l37 -21q4 -1 4 -6.5t-3 -8.5z" />
<glyph unicode="&#x303;" horiz-adv-x="426" d="M166 636q-12 0 -19.5 -10.5t-15.5 -37.5q-3 -10 -10 -4l-29 19q-5 5 -2 15q29 75 76 75q24 0 50 -27t43 -27q14 0 21.5 10.5t14.5 37.5q4 11 11 4l28 -19q5 -5 2 -15q-29 -75 -77 -75q-23 0 -40 13.5t-29.5 27t-23.5 13.5z" />
<glyph unicode="&#x309;" horiz-adv-x="523" d="M209 583l9 29q3 6 8 4q31 -14 61 -14q27 0 34 7t7 30q0 22 -13.5 27.5t-72.5 5.5q-3 0 -5 3.5t-1 7.5l9 31h45q53 0 74 -17t21 -56q0 -43 -21 -62t-74 -19q-54 0 -79 17q-3 3 -2 6z" />
<glyph unicode="&#x323;" horiz-adv-x="326" d="M162 -67q21 0 29.5 -7.5t8.5 -31.5q0 -26 -9 -34.5t-29 -8.5t-29 8.5t-9 34.5q0 24 8.5 31.5t29.5 7.5z" />
<glyph unicode="&#x3a9;" horiz-adv-x="621" d="M34 55h143q-103 84 -103 327q0 181 57.5 256.5t178.5 75.5q122 0 180 -75.5t58 -256.5q0 -241 -104 -327h143q10 0 10 -12v-31q0 -12 -10 -12h-217q-10 0 -10 12v37q0 11 10 11q64 26 86.5 105.5t22.5 214.5q0 115 -14.5 172t-49 79t-105.5 22q-69 0 -103.5 -22t-49 -79 t-14.5 -172q0 -136 22 -215t86 -105q10 0 10 -11v-37q0 -12 -11 -12h-216q-10 0 -10 12v31q0 12 10 12z" />
<glyph unicode="&#x3c0;" horiz-adv-x="406" d="M26 49q48 8 61.5 27t13.5 85v289h-49q-7 0 -7 9v37q0 9 7 9h334q7 0 7 -9v-37q0 -9 -7 -9h-44v-441q0 -9 -7 -9h-47q-8 0 -8 9v441h-117v-289q0 -82 -34.5 -128.5t-93.5 -46.5q-8 0 -9 10l-5 43q-3 8 5 10z" />
<glyph unicode="&#x401;" horiz-adv-x="422" d="M390 0h-311q-7 0 -7 9v679q0 9 7 9h311q8 0 8 -9v-42q0 -9 -8 -9h-251v-237h203q8 0 8 -9v-42q0 -9 -8 -9h-203v-280h251q8 0 8 -9v-42q0 -9 -8 -9zM167 847q20 0 28.5 -7.5t8.5 -31.5q0 -26 -8.5 -34.5t-28.5 -8.5t-28.5 8.5t-8.5 34.5q0 24 8.5 31.5t28.5 7.5zM319 847 q20 0 28 -7.5t8 -31.5q0 -26 -8 -34.5t-28 -8.5q-21 0 -29.5 8.5t-8.5 34.5q0 24 8.5 31.5t29.5 7.5z" />
<glyph unicode="&#x402;" horiz-adv-x="538" d="M428 -28v300q0 48 -0.5 75t-4.5 51.5t-9.5 34.5t-18 18t-26.5 9.5t-39 1.5q-42 0 -97 -38v-415q0 -9 -7 -9h-53q-7 0 -7 9v628h-159q-7 0 -7 9v42q0 9 7 9h385q7 0 7 -9v-42q0 -9 -7 -9h-159v-184q49 66 118 66q51 0 79.5 -17.5t44 -69t15.5 -147.5v-313q0 -81 -33 -128 t-84 -47q-8 0 -9 10l-16 43q-2 8 5 10q48 8 61.5 27t13.5 85z" />
<glyph unicode="&#x403;" horiz-adv-x="374" d="M366 637h-227v-628q0 -9 -7 -9h-53q-7 0 -7 9v679q0 9 7 9h287q8 0 8 -9v-42q0 -9 -8 -9zM343 855l-104 -112q-6 -4 -12 -1l-29 15q-3 1 -3.5 5.5t1.5 7.5l92 113q5 7 14 3l40 -16q4 -1 4 -6.5t-3 -8.5z" />
<glyph unicode="&#x404;" horiz-adv-x="442" d="M282 652q-53 0 -80.5 -7t-46.5 -35.5t-24.5 -75t-6.5 -134.5h218q8 0 8 -9v-42q0 -9 -8 -9h-219q0 -69 2 -112.5t9.5 -78.5t17 -52.5t29 -29.5t42 -15t59.5 -3q68 0 119 23q8 3 8 -6l16 -42q2 -10 -4 -13q-67 -25 -139 -25q-65 0 -106.5 15t-71 55.5t-42 112.5t-12.5 186 q0 110 12.5 180t42 110t71 54.5t106.5 14.5q72 0 139 -25q6 -3 4 -13l-16 -42q0 -9 -8 -6q-53 24 -119 24z" />
<glyph unicode="&#x405;" horiz-adv-x="466" d="M210 48q88 0 111 27.5t23 113.5q0 35 -1.5 52t-7 35t-18 26t-33 14.5t-54.5 10.5q-103 12 -141 50t-38 133q0 110 46 157t149 47q75 0 142 -25q7 -4 4 -13l-13 -43q-2 -9 -8 -6q-57 25 -125 25q-23 0 -40.5 -1t-30.5 -6t-22 -8.5t-15 -14.5t-9 -18t-4.5 -25t-1.5 -29.5 v-37.5q0 -76 16.5 -94.5t98.5 -28.5q101 -13 139 -57t38 -142q0 -109 -50.5 -156.5t-154.5 -47.5q-75 0 -142 25q-7 4 -4 13l13 43q2 9 8 6q57 -25 125 -25z" />
<glyph unicode="&#x406;" horiz-adv-x="211" d="M139 688v-679q0 -9 -7 -9h-53q-7 0 -7 9v679q0 9 7 9h53q7 0 7 -9z" />
<glyph unicode="&#x407;" horiz-adv-x="211" d="M139 688v-679q0 -9 -7 -9h-53q-7 0 -7 9v679q0 9 7 9h53q7 0 7 -9zM30 847q20 0 28.5 -7.5t8.5 -31.5q0 -26 -8.5 -34.5t-28.5 -8.5t-28.5 8.5t-8.5 34.5q0 24 8.5 31.5t28.5 7.5zM182 847q20 0 28 -7.5t8 -31.5q0 -26 -8 -34.5t-28 -8.5q-21 0 -29.5 8.5t-8.5 34.5 q0 24 8.5 31.5t29.5 7.5z" />
<glyph unicode="&#x408;" horiz-adv-x="341" d="M202 192v496q0 9 7 9h53q7 0 7 -9v-496q0 -106 -40 -156t-110 -50q-60 0 -115 25q-7 4 -4 13l14 43q2 9 8 6q46 -24 96 -24q54 0 69 25.5t15 117.5z" />
<glyph unicode="&#x409;" horiz-adv-x="773" d="M437 340v-280h172q43 0 55.5 26t12.5 112q0 88 -12.5 115t-55.5 27h-172zM609 0h-232q-7 0 -7 9v628h-178q-5 -364 -82 -627q-4 -10 -8 -10h-59q-7 0 -7 9q93 311 93 679q0 9 7 9h294q7 0 7 -9v-288h172q75 0 107.5 -52t32.5 -150q0 -97 -36.5 -147.5t-103.5 -50.5z" />
<glyph unicode="&#x40a;" horiz-adv-x="744" d="M413 341v-281h167q43 0 55.5 26t12.5 112q0 89 -12.5 116t-55.5 27h-167zM580 0h-227q-7 0 -7 9v332h-207v-332q0 -9 -7 -9h-53q-7 0 -7 9v679q0 9 7 9h53q7 0 7 -9v-288h207v288q0 9 7 9h53q7 0 7 -9v-288h167q76 0 108 -51.5t32 -150.5q0 -97 -36 -147.5t-104 -50.5z " />
<glyph unicode="&#x40b;" horiz-adv-x="538" d="M490 285v-276q0 -9 -7 -9h-47q-8 0 -8 9v263q0 51 -0.5 75t-4 50.5t-8.5 35.5t-17.5 18t-27 10t-40.5 1q-42 0 -97 -38v-415q0 -9 -7 -9h-53q-7 0 -7 9v628h-159q-7 0 -7 9v42q0 9 7 9h385q7 0 7 -9v-42q0 -9 -7 -9h-159v-184q49 66 118 66q51 0 79.5 -17.5t44 -69 t15.5 -147.5z" />
<glyph unicode="&#x40c;" horiz-adv-x="448" d="M139 362v-353q0 -9 -7 -9h-53q-7 0 -7 9v679q0 9 7 9h53q7 0 7 -9v-316q32 25 60 71t47.5 91t41.5 86.5t53.5 67.5t73.5 26q7 0 7 -9l12 -42q0 -9 -7 -9q-35 0 -66.5 -37.5t-51.5 -84t-46.5 -97t-49.5 -68.5q25 -18 53 -73.5t49 -109t51.5 -96t60.5 -42.5q7 0 7 -9 l-12 -42q0 -9 -7 -9q-42 0 -74 29.5t-53.5 76t-41 96.5t-47 99t-60.5 75zM342 855l-104 -112q-6 -4 -12 -1l-29 15q-3 1 -3.5 5.5t1.5 7.5l92 113q5 7 14 3l40 -16q4 -1 4 -6.5t-3 -8.5z" />
<glyph unicode="&#x40e;" horiz-adv-x="378" d="M190 750q-54 0 -79 26.5t-25 89.5q0 9 8 9h43q8 0 8 -9q0 -45 7.5 -59t38.5 -14t39 14t8 59q0 9 8 9h42q9 0 9 -9q0 -64 -25.5 -90t-81.5 -26zM373 687l-172 -577q-36 -124 -138 -124q-9 0 -10 10l-10 43q-1 3 1 6.5t4 3.5q49 0 73.5 29t48.5 118h-12q-8 0 -11 8 l-145 483q-2 9 6 11l49 12q8 2 10 -5l104 -366l18 -97l19 97l102 366q2 7 10 5l47 -12q8 -2 6 -11z" />
<glyph unicode="&#x40f;" horiz-adv-x="520" d="M448 688v-679q0 -9 -7 -9h-148l-7 -117q0 -9 -7 -9h-38q-7 0 -7 9l-8 117h-147q-7 0 -7 9v679q0 9 7 9h53q7 0 7 -9v-628h242v628q0 9 7 9h53q7 0 7 -9z" />
<glyph unicode="&#x410;" horiz-adv-x="452" d="M325 210h-201l-55 -213q-2 -7 -9 -5l-46 12q-9 2 -5 11l178 673q4 9 8 9h63q4 0 8 -9l177 -673q4 -9 -5 -11l-48 -12q-7 -2 -9 5zM311 267l-76 310l-11 79l-11 -79l-75 -310h173z" />
<glyph unicode="&#x411;" horiz-adv-x="465" d="M139 340v-280h162q43 0 55.5 26t12.5 112q0 88 -12.5 115t-55.5 27h-162zM139 637v-237h162q75 0 107.5 -52t32.5 -150q0 -97 -36.5 -147.5t-103.5 -50.5h-222q-7 0 -7 9v679q0 9 7 9h321q7 0 7 -9v-42q0 -9 -7 -9h-261z" />
<glyph unicode="&#x412;" horiz-adv-x="494" d="M139 340v-280h167q41 0 54.5 25.5t13.5 110.5q0 86 -15 115t-57 29h-163zM306 0h-227q-7 0 -7 9v679q0 9 7 9h219q76 0 104 -45t28 -122q0 -72 -21 -111.5t-89 -47.5q73 -4 99.5 -50t26.5 -126q0 -195 -140 -195zM139 637v-237h159q38 0 50.5 25t12.5 96q0 75 -11.5 95.5 t-51.5 20.5h-159z" />
<glyph unicode="&#x413;" horiz-adv-x="374" d="M366 637h-227v-628q0 -9 -7 -9h-53q-7 0 -7 9v679q0 9 7 9h287q8 0 8 -9v-42q0 -9 -8 -9z" />
<glyph unicode="&#x414;" horiz-adv-x="566" d="M476 0h-393v-138q0 -9 -7 -9h-44q-7 0 -7 9l-16 189q0 9 7 9h76q42 141 54 280.5t12 347.5q0 9 8 9h281q7 0 7 -9v-628h89q7 0 7 -9l-16 -189q0 -9 -7 -9h-43q-8 0 -8 9v138zM226 637q-3 -181 -17.5 -314t-57.5 -263h237v577h-162z" />
<glyph unicode="&#x415;" horiz-adv-x="422" d="M390 0h-311q-7 0 -7 9v679q0 9 7 9h311q8 0 8 -9v-42q0 -9 -8 -9h-251v-237h203q8 0 8 -9v-42q0 -9 -8 -9h-203v-280h251q8 0 8 -9v-42q0 -9 -8 -9z" />
<glyph unicode="&#x416;" horiz-adv-x="691" d="M312 688q0 9 7 9h53q7 0 7 -9v-316q32 25 60 71t48 91t42 86.5t54 67.5t73 26q8 0 8 -9l11 -42q0 -9 -7 -9q-33 0 -64.5 -37.5t-52 -84t-48 -97t-50.5 -68.5q25 -19 53.5 -74t50 -108.5t51.5 -96t60 -42.5q7 0 7 -9l-11 -42q0 -9 -8 -9q-41 0 -73 29.5t-54 76t-42 96.5 t-47.5 99t-60.5 75v-353q0 -9 -7 -9h-53q-7 0 -7 9v353q-33 -26 -60.5 -75t-47.5 -99t-42 -96.5t-54 -76t-74 -29.5q-7 0 -7 9l-11 42q0 9 7 9q30 0 59.5 42.5t51 96t50.5 108.5t54 74q-24 18 -51 68t-47.5 97t-52 84.5t-64.5 37.5q-7 0 -7 9l11 42q0 9 7 9q42 0 74 -26 t54 -67.5t42 -86.5t48 -91t60 -71v316z" />
<glyph unicode="&#x417;" horiz-adv-x="434" d="M193 340h-64q-7 0 -7 9v42q0 9 7 9h64q75 0 93.5 25t18.5 110q0 42 -2 60.5t-14.5 34.5t-35 19.5t-66.5 3.5q-76 0 -127 -20q-6 -3 -8 6l-12 39q-3 9 4 13q62 23 143 23q108 0 147.5 -40.5t39.5 -129.5q0 -155 -102 -169q114 -8 114 -183q0 -116 -45 -161t-158 -45 q-72 0 -139 25q-7 4 -4 13l14 40q2 9 8 6q50 -22 120 -22q50 0 74.5 4t38.5 22.5t16.5 42.5t2.5 77q0 36 -1 54.5t-5 38t-11 27.5t-21.5 15.5t-33.5 9t-49 1.5z" />
<glyph unicode="&#x418;" horiz-adv-x="521" d="M152 156l215 532q5 9 12 9h62q4 0 8 -9v-679q0 -9 -7 -9h-49q-7 0 -7 9v528l7 80l-24 -76l-215 -532q-5 -9 -12 -9h-62q-4 0 -8 9v679q0 9 7 9h49q7 0 7 -9v-528l-6 -88z" />
<glyph unicode="&#x419;" horiz-adv-x="521" d="M152 156l215 532q5 9 12 9h62q4 0 8 -9v-679q0 -9 -7 -9h-49q-7 0 -7 9v528l7 80l-24 -76l-215 -532q-5 -9 -12 -9h-62q-4 0 -8 9v679q0 9 7 9h49q7 0 7 -9v-528l-6 -88zM272 750q-54 0 -79 26.5t-25 89.5q0 9 8 9h43q8 0 8 -9q0 -45 7.5 -59t38.5 -14t39 14t8 59 q0 9 8 9h42q9 0 9 -9q0 -64 -25.5 -90t-81.5 -26z" />
<glyph unicode="&#x41a;" horiz-adv-x="448" d="M139 362v-353q0 -9 -7 -9h-53q-7 0 -7 9v679q0 9 7 9h53q7 0 7 -9v-316q32 25 60 71t47.5 91t41.5 86.5t53.5 67.5t73.5 26q7 0 7 -9l12 -42q0 -9 -7 -9q-35 0 -66.5 -37.5t-51.5 -84t-46.5 -97t-49.5 -68.5q25 -18 53 -73.5t49 -109t51.5 -96t60.5 -42.5q7 0 7 -9 l-12 -42q0 -9 -7 -9q-42 0 -74 29.5t-53.5 76t-41 96.5t-47 99t-60.5 75z" />
<glyph unicode="&#x41b;" horiz-adv-x="509" d="M36 14q46 135 69.5 315t23.5 359q0 9 7 9h294q7 0 7 -9v-679q0 -9 -7 -9h-53q-7 0 -7 9v628h-178q-5 -369 -82 -632q-4 -10 -8 -10l-59 10q-7 0 -7 9z" />
<glyph unicode="&#x41c;" horiz-adv-x="610" d="M322 203l114 485q3 9 12 9h82q4 0 8 -9v-679q0 -9 -8 -9h-50q-7 0 -7 9v519l4 95l-19 -94l-118 -467q-4 -9 -8 -9h-53q-4 0 -8 9l-119 467l-19 94l4 -95v-519q0 -9 -7 -9h-51q-7 0 -7 9v679q4 9 8 9h81q11 0 12 -9l121 -485l14 -85z" />
<glyph unicode="&#x41d;" horiz-adv-x="520" d="M448 688v-679q0 -9 -7 -9h-53q-7 0 -7 9v332h-242v-332q0 -9 -7 -9h-53q-7 0 -7 9v679q0 9 7 9h53q7 0 7 -9v-287h242v287q0 9 7 9h53q7 0 7 -9z" />
<glyph unicode="&#x41e;" horiz-adv-x="531" d="M266 52q63 0 90 19t39.5 81.5t12.5 202.5q0 135 -12.5 196t-39.5 79.5t-90 18.5q-38 0 -60 -5.5t-40 -21t-26.5 -49.5t-12.5 -85t-4 -133q0 -85 4 -137.5t12.5 -87.5t26.5 -51t40 -21.5t60 -5.5zM266 -14q-56 0 -93.5 15t-66.5 55t-42.5 113.5t-13.5 185.5 q0 109 13.5 180t42.5 110t66.5 54t93.5 15t93.5 -15t66 -54t42 -110t13.5 -180q0 -112 -13.5 -185.5t-42 -113.5t-66 -55t-93.5 -15z" />
<glyph unicode="&#x41f;" horiz-adv-x="520" d="M448 688v-679q0 -9 -7 -9h-53q-7 0 -7 9v628h-242v-628q0 -9 -7 -9h-53q-7 0 -7 9v679q0 9 7 9h362q7 0 7 -9z" />
<glyph unicode="&#x420;" horiz-adv-x="465" d="M139 637v-280h162q40 0 54 28t14 114q0 84 -13.5 111t-54.5 27h-162zM139 297v-288q0 -9 -7 -9h-53q-7 0 -7 9v679q0 9 7 9h222q67 0 103.5 -50.5t36.5 -147.5q0 -99 -32.5 -150.5t-107.5 -51.5h-162z" />
<glyph unicode="&#x421;" horiz-adv-x="442" d="M282 652q-38 0 -61 -3t-42.5 -15.5t-29 -30t-16 -53.5t-8.5 -80t-2 -115q0 -73 2 -118.5t8.5 -82.5t16 -55.5t29.5 -31t42.5 -15.5t60.5 -3q71 0 124 24q8 3 8 -6l11 -43q2 -10 -4 -13q-67 -25 -139 -25q-65 0 -106.5 15t-71 55.5t-42 112.5t-12.5 186q0 110 12.5 180 t42 110t71 54.5t106.5 14.5q72 0 139 -25q6 -3 4 -13l-11 -43q0 -9 -8 -6q-55 25 -124 25z" />
<glyph unicode="&#x422;" horiz-adv-x="399" d="M392 697q7 0 7 -9v-42q0 -9 -7 -9h-159v-628q0 -9 -7 -9h-53q-7 0 -7 9v628h-159q-7 0 -7 9v42q0 9 7 9h385z" />
<glyph unicode="&#x423;" horiz-adv-x="378" d="M373 687l-172 -577q-36 -124 -138 -124q-9 0 -10 10l-10 43q-1 3 1 6.5t4 3.5q49 0 73.5 29t48.5 118h-12q-8 0 -11 8l-145 483q-2 9 6 11l49 12q8 2 10 -5l104 -366l18 -97l19 97l102 366q2 7 10 5l47 -12q8 -2 6 -11z" />
<glyph unicode="&#x424;" horiz-adv-x="716" d="M392 523v-343q48 -33 101 -33q31 0 48 4.5t29.5 13.5t17.5 35.5t6.5 57.5t1.5 93q0 52 -0.5 80t-4.5 55t-10 38t-18.5 20t-28 10.5t-41.5 1.5q-53 0 -101 -33zM325 180v343q-48 33 -102 33q-26 0 -41.5 -1.5t-28 -10.5t-18.5 -20t-10 -38t-4.5 -55t-0.5 -80 q0 -62 1.5 -93t6.5 -57.5t17.5 -35.5t29.5 -13.5t48 -4.5q54 0 102 33zM384 0h-52q-7 0 -7 9v142q-18 -29 -54.5 -47.5t-68.5 -18.5q-84 0 -119 57.5t-35 208.5q0 152 35 209.5t119 57.5q32 0 68.5 -18.5t54.5 -47.5v136q0 9 7 9h52q8 0 8 -9v-136q17 29 53.5 47.5 t69.5 18.5q84 0 118.5 -58t34.5 -209t-34.5 -208.5t-118.5 -57.5q-33 0 -69.5 18.5t-53.5 47.5v-142q0 -9 -8 -9z" />
<glyph unicode="&#x425;" horiz-adv-x="455" d="M19 28l179 325l-174 317q-2 3 -1.5 7.5t3.5 6.5l42 25q6 6 11 -1l130 -253l18 -53l19 53l131 253q5 7 11 1l42 -25q7 -7 1 -14l-174 -317l179 -325q4 -10 -2 -14l-41 -25q-4 -6 -11 1l-132 253l-23 60l-21 -60l-132 -253q-2 -2 -5 -2.5t-5 1.5l-43 25q-5 5 -2 14z" />
<glyph unicode="&#x426;" horiz-adv-x="558" d="M448 60h95q7 0 7 -9l-16 -189q0 -9 -7 -9h-43q-8 0 -8 9v138h-397q-7 0 -7 9v679q0 9 7 9h53q7 0 7 -9v-628h242v628q0 9 7 9h53q7 0 7 -9v-628z" />
<glyph unicode="&#x427;" horiz-adv-x="485" d="M119 688v-205q0 -48 0.5 -74.5t5 -51t10 -34.5t19 -18t28.5 -9.5t42 -1.5q72 0 122 33v361q0 9 7 9h53q7 0 7 -9v-679q0 -9 -7 -9h-53q-7 0 -7 9v289q-21 -28 -57 -47.5t-75 -19.5q-86 0 -124 50t-38 189v218q0 9 7 9h53q7 0 7 -9z" />
<glyph unicode="&#x428;" horiz-adv-x="711" d="M389 60h183v628q0 9 8 9h52q7 0 7 -9v-679q0 -9 -7 -9h-553q-7 0 -7 9v679q0 9 7 9h53q7 0 7 -9v-628h183v628q0 9 7 9h53q7 0 7 -9v-628z" />
<glyph unicode="&#x429;" horiz-adv-x="750" d="M668 0h-589q-7 0 -7 9v679q0 9 7 9h53q7 0 7 -9v-628h183v628q0 9 7 9h53q7 0 7 -9v-628h183v628q0 9 8 9h52q7 0 7 -9v-628h95q8 0 8 -9l-16 -189q0 -9 -8 -9h-43q-7 0 -7 9v138z" />
<glyph unicode="&#x42a;" horiz-adv-x="481" d="M155 340v-280h162q43 0 55.5 26t12.5 112q0 88 -12.5 115t-55.5 27h-162zM155 688v-288h162q75 0 107.5 -52t32.5 -150q0 -97 -36.5 -147.5t-103.5 -50.5h-222q-7 0 -7 9v628h-73q-7 0 -7 9v42q0 9 7 9h133q7 0 7 -9z" />
<glyph unicode="&#x42b;" horiz-adv-x="624" d="M139 340v-280h155q43 0 55.5 26t12.5 112q0 88 -12.5 115t-55.5 27h-155zM72 9v679q0 9 7 9h53q7 0 7 -9v-288h155q75 0 107.5 -52t32.5 -150q0 -97 -36.5 -147.5t-103.5 -50.5h-215q-7 0 -7 9zM552 688v-679q0 -9 -7 -9h-53q-7 0 -7 9v679q0 9 7 9h53q7 0 7 -9z" />
<glyph unicode="&#x42c;" horiz-adv-x="465" d="M139 340v-280h162q43 0 55.5 26t12.5 112q0 88 -12.5 115t-55.5 27h-162zM72 9v679q0 9 7 9h53q7 0 7 -9v-288h162q75 0 107.5 -52t32.5 -150q0 -97 -36.5 -147.5t-103.5 -50.5h-222q-7 0 -7 9z" />
<glyph unicode="&#x42d;" horiz-adv-x="442" d="M159 652q-69 0 -121 -23q-6 -3 -8 6l-13 41q-3 9 4 13q67 25 139 25q65 0 106 -14.5t70.5 -54.5t42 -110t12.5 -180q0 -151 -24.5 -231.5t-72 -109t-134.5 -28.5q-72 0 -139 25q-7 4 -4 13l13 41q2 9 8 6q50 -22 121 -22q37 0 60 3t42.5 15t29 29.5t16.5 52.5t9 78.5 t3 112.5h-220q-7 0 -7 9v42q0 9 7 9h219q-1 71 -5.5 113t-13.5 72t-28.5 43.5t-44 18.5t-67.5 5z" />
<glyph unicode="&#x42e;" horiz-adv-x="724" d="M458 -14q-74 0 -118 27t-70 106t-27 222h-104v-332q0 -9 -7 -9h-53q-7 0 -7 9v679q0 9 7 9h53q7 0 7 -9v-287h105q4 122 30.5 192t70 95.5t113.5 25.5q56 0 93.5 -15t66.5 -54t42.5 -110t13.5 -180q0 -112 -13.5 -185.5t-42.5 -113.5t-66.5 -55t-93.5 -15zM459 52 q62 0 89.5 19t40 81.5t12.5 202.5q0 135 -12.5 196t-40 79.5t-89.5 18.5q-63 0 -90.5 -18.5t-40 -79t-12.5 -196.5q0 -140 12.5 -202.5t40 -81.5t90.5 -19z" />
<glyph unicode="&#x42f;" horiz-adv-x="494" d="M193 697h221q8 0 8 -9v-679q0 -9 -8 -9h-52q-7 0 -7 9v288h-86q-33 0 -57 -32t-40 -77.5t-32.5 -90.5t-46 -77t-70.5 -32q-7 0 -7 9l-8 42q0 9 8 9q27 0 48.5 34.5t33.5 77.5t31.5 84.5t42.5 52.5q-59 0 -89 55t-30 147q0 97 36 147.5t104 50.5zM355 357v280h-162 q-44 0 -56.5 -25.5t-12.5 -112.5q0 -92 12.5 -117t56.5 -25h162z" />
<glyph unicode="&#x430;" horiz-adv-x="418" d="M205 248q-62 0 -77 -18.5t-15 -81.5t15 -81.5t77 -18.5q47 0 91 30v140q-44 30 -91 30zM202 519q87 0 121.5 -44t34.5 -165v-248l12 -46q2 -9 -5 -12l-47 -11q-7 -4 -9 5l-13 51q-13 -25 -43 -44t-64 -19q-80 0 -110.5 38t-30.5 124t30.5 124t110.5 38q34 0 64 -19 t43 -44v63q0 93 -16 120t-78 27q-56 0 -103 -21q-6 -2 -8 6l-12 42q-2 10 4 13q56 22 119 22z" />
<glyph unicode="&#x431;" horiz-adv-x="431" d="M117 344q1 -140 9.5 -200.5t27 -79.5t62.5 -19q71 0 87.5 28t16.5 137q0 112 -15 139.5t-83 27.5q-57 0 -105 -33zM231 684q57 0 112 23q6 3 8 -6l11 -43q1 -9 -5 -12q-57 -23 -126 -23q-70 0 -92 -39t-22 -165v-46q25 33 52 48t71 15q79 0 113 -51t34 -166 q0 -125 -39.5 -179t-131.5 -54q-100 0 -131.5 74.5t-31.5 292.5q0 190 38 260.5t140 70.5z" />
<glyph unicode="&#x432;" horiz-adv-x="407" d="M118 243v-188h123q35 0 44.5 16.5t9.5 72.5q0 61 -10.5 80t-46.5 19h-120zM247 0h-180q-11 0 -11 12v481q0 12 11 12h173q65 0 88.5 -33t23.5 -91q0 -92 -68 -111q80 -21 80 -127q0 -143 -117 -143zM118 450v-153h117q32 0 40.5 15t8.5 64q0 47 -9 60.5t-40 13.5h-117z " />
<glyph unicode="&#x433;" horiz-adv-x="286" d="M293 450h-175v-438q0 -12 -10 -12h-42q-10 0 -10 12v481q0 12 10 12h227q9 0 9 -12v-31q0 -12 -9 -12z" />
<glyph unicode="&#x434;" horiz-adv-x="481" d="M398 0h-326v-128q0 -9 -8 -9h-41q-7 0 -7 9l-16 174q0 9 7 9h71q61 175 61 441q0 9 7 9h229q7 0 7 -9v-441h80q8 0 8 -9l-16 -174q0 -9 -8 -9h-41q-7 0 -7 9v128zM204 450q0 -220 -68 -395h184v395h-116z" />
<glyph unicode="&#x435;" horiz-adv-x="403" d="M352 253h-239q0 -52 1 -81.5t5.5 -55.5t10.5 -37t20.5 -19.5t30.5 -10t44 -1.5q48 0 94 24q6 3 8 -6l15 -43q2 -10 -4 -13q-50 -24 -113 -24q-101 0 -139 57t-38 212q0 149 37.5 206.5t125.5 57.5q87 0 119.5 -50.5t32.5 -202.5q0 -13 -11 -13zM114 307h187 q-2 101 -16 126.5t-76 25.5q-61 0 -76.5 -26t-18.5 -126z" />
<glyph unicode="&#x436;" horiz-adv-x="601" d="M274 496q0 9 8 9h47q7 0 7 -9v-229q37 26 62 62.5t37 68t26 60t38.5 45t63.5 16.5q7 0 7 -9l9 -39q0 -9 -7 -9q-31 0 -51.5 -23t-30.5 -53t-31.5 -65.5t-50.5 -54.5q30 -19 53 -58.5t35 -74.5t31.5 -62.5t44.5 -27.5q7 0 7 -9l-9 -39q0 -9 -7 -9q-39 0 -63.5 18.5 t-38.5 50t-26 65.5t-37 72.5t-62 64.5v-248q0 -9 -7 -9h-47q-8 0 -8 9v248q-37 -26 -61.5 -64.5t-36.5 -72.5t-26 -65.5t-38.5 -50t-63.5 -18.5q-7 0 -7 9l-9 39q0 9 7 9q25 0 44.5 27.5t31.5 62.5t35 74.5t52 58.5q-29 19 -50 54.5t-31 65.5t-30.5 53t-51.5 23q-7 0 -7 9 l9 39q0 9 7 9q39 0 63.5 -16.5t38.5 -45t26 -60t36.5 -68t61.5 -62.5v229z" />
<glyph unicode="&#x437;" horiz-adv-x="357" d="M159 243h-53q-9 0 -9 10v33q0 11 9 11h53q58 0 70 13.5t12 69.5q0 50 -14.5 65.5t-72.5 15.5q-62 0 -106 -15q-2 -1 -6 1.5t-5 5.5l-8 36q-4 10 6 14q54 16 119 16q89 0 121 -34.5t32 -101.5q0 -46 -13.5 -72.5t-50.5 -37.5q74 -18 74 -128q0 -85 -37 -122t-129 -37 q-57 0 -117 19q-7 4 -5 13l10 33q2 11 10 8q41 -16 102 -16q67 0 82.5 17.5t15.5 81.5q0 65 -14 83t-76 18z" />
<glyph unicode="&#x438;" horiz-adv-x="419" d="M363 496v-487q0 -9 -7 -9h-44q-7 0 -7 9v334l6 76l-24 -69l-171 -341q-4 -9 -7 -9h-46q-7 0 -7 9v487q0 9 7 9h44q7 0 7 -9v-333l-4 -71l24 67l168 337q4 9 7 9h47q7 0 7 -9z" />
<glyph unicode="&#x439;" horiz-adv-x="419" d="M210 569q-54 0 -79.5 27.5t-25.5 91.5q0 9 9 9h39q8 0 8 -9q0 -26 1 -36.5t5.5 -22t14.5 -14.5t28 -3q35 0 42.5 14.5t7.5 61.5q0 9 8 9h39q9 0 9 -9q0 -64 -25.5 -91.5t-80.5 -27.5zM363 496v-487q0 -9 -7 -9h-44q-7 0 -7 9v334l6 76l-24 -69l-171 -341q-4 -9 -7 -9h-46 q-7 0 -7 9v487q0 9 7 9h44q7 0 7 -9v-333l-4 -71l24 67l168 337q4 9 7 9h47q7 0 7 -9z" />
<glyph unicode="&#x43a;" horiz-adv-x="395" d="M118 258v-249q0 -9 -7 -9h-48q-7 0 -7 9v487q0 9 7 9h48q7 0 7 -9v-228q37 26 63.5 62.5t41 67.5t30.5 59.5t42 45t65 16.5q8 0 8 -9l8 -39q0 -9 -8 -9q-31 0 -54 -23t-36 -52.5t-37 -65t-53 -54.5q30 -19 55.5 -58.5t40.5 -75t37 -63t47 -27.5q8 0 8 -9l-8 -39 q0 -9 -8 -9q-39 0 -65 18.5t-42 50t-30.5 66t-41 73t-63.5 64.5z" />
<glyph unicode="&#x43b;" horiz-adv-x="414" d="M27 15q49 121 64 223.5t15 257.5q0 9 8 9h236q8 0 8 -9v-487q0 -9 -8 -9h-47q-7 0 -7 9v441h-128q0 -97 -18 -220t-54 -228q-4 -9 -10 -9l-53 10q-3 0 -5 4t-1 8z" />
<glyph unicode="&#x43c;" horiz-adv-x="520" d="M405 434l-108 -385q-2 -9 -9 -9h-56q-6 0 -10 9l-107 385v-425q0 -9 -7 -9h-45q-7 0 -7 9v487q0 9 7 9h81q7 0 7 -9l109 -389l109 389q0 9 7 9h81q7 0 7 -9v-487q0 -9 -7 -9h-45q-7 0 -7 9v425z" />
<glyph unicode="&#x43d;" horiz-adv-x="419" d="M363 496v-487q0 -9 -7 -9h-48q-7 0 -7 9v234h-183v-234q0 -9 -7 -9h-48q-7 0 -7 9v487q0 9 7 9h48q7 0 7 -9v-199h183v199q0 9 7 9h48q7 0 7 -9z" />
<glyph unicode="&#x43e;" horiz-adv-x="434" d="M217 457q-25 0 -40.5 -2t-28 -11t-18 -20t-9.5 -37.5t-4.5 -54.5t-0.5 -79q0 -53 0.5 -81.5t4.5 -55.5t9.5 -37.5t18.5 -19t27.5 -10t40.5 -1.5t40.5 1.5t27.5 10t18 19.5t9.5 37t5 55t0.5 82q0 61 -2 92t-6.5 57.5t-16.5 36t-29 14t-47 4.5zM217 -14q-95 0 -132 57.5 t-37 211.5q0 152 37 208t132 56t132 -56t37 -208q0 -154 -37 -211.5t-132 -57.5z" />
<glyph unicode="&#x43f;" horiz-adv-x="419" d="M363 496v-487q0 -9 -7 -9h-48q-7 0 -7 9v441h-183v-441q0 -9 -7 -9h-48q-7 0 -7 9v487q0 9 7 9h293q7 0 7 -9z" />
<glyph unicode="&#x440;" horiz-adv-x="431" d="M118 424v-343q48 -33 92 -33q26 0 41 1.5t28 10.5t18.5 20t9.5 38t4.5 55t0.5 80q0 44 -1 69.5t-2.5 51t-6.5 37.5t-11.5 23t-18.5 15t-26 6t-36 2q-44 0 -92 -33zM56 -183v679q0 9 7 9h48q7 0 7 -9v-43q19 30 48 48t60 18q84 0 119 -57.5t35 -208.5t-35 -209t-119 -58 q-31 0 -60 18t-48 48v-235q0 -9 -7 -9h-48q-7 0 -7 9z" />
<glyph unicode="&#x441;" horiz-adv-x="341" d="M218 48q49 0 91 21q6 3 8 -6l14 -43q3 -9 -4 -13q-45 -21 -109 -21q-95 0 -132.5 57.5t-37.5 211.5q0 152 37.5 208t132.5 56q64 0 109 -21q7 -4 4 -13l-14 -43q-2 -9 -8 -6q-42 21 -91 21q-31 0 -47.5 -4.5t-29 -14t-17 -36t-6.5 -57.5t-2 -92q0 -45 1 -71.5t2.5 -52 t7 -37.5t11.5 -23t18.5 -14t26 -5t35.5 -2z" />
<glyph unicode="&#x442;" horiz-adv-x="348" d="M341 450h-136v-441q0 -9 -7 -9h-48q-7 0 -7 9v441h-136q-7 0 -7 9v37q0 9 7 9h334q7 0 7 -9v-37q0 -9 -7 -9z" />
<glyph unicode="&#x443;" horiz-adv-x="369" d="M351 488l-151 -567q-34 -124 -120 -124q-8 0 -9 10l-10 43q-1 3 -0.5 5t1.5 3.5t3 1.5q43 0 60.5 24.5t38.5 115.5h-6q-7 0 -10 8l-130 480q-4 9 4 11l49 12q7 2 9 -5l93 -371l12 -90l15 90l91 371q2 7 9 5l46 -12q9 -2 5 -11z" />
<glyph unicode="&#x444;" horiz-adv-x="708" d="M385 424v-343q48 -33 102 -33q31 0 48 4.5t29.5 13.5t17.5 35.5t6.5 57.5t1.5 93q0 52 -0.5 80t-4.5 55t-10 38t-18.5 20t-28 10.5t-41.5 1.5q-54 0 -102 -33zM323 81v343q-48 33 -101 33q-26 0 -41.5 -1.5t-28 -10.5t-18.5 -20t-10 -38t-4.5 -55t-0.5 -80q0 -62 1.5 -93 t6.5 -57.5t17.5 -35.5t29.5 -13.5t48 -4.5q53 0 101 33zM378 -192h-48q-7 0 -7 9v235q-18 -29 -54 -47.5t-69 -18.5q-79 0 -114 58t-35 208t35 208.5t114 58.5q33 0 69 -18.5t54 -47.5v235q0 9 7 9h48q7 0 7 -9v-235q18 29 54.5 47.5t68.5 18.5q79 0 114 -58.5t35 -208.5 t-35 -208t-114 -58q-32 0 -68.5 18.5t-54.5 47.5v-235q0 -9 -7 -9z" />
<glyph unicode="&#x445;" horiz-adv-x="362" d="M24 24l128 232l-123 225q-5 7 1 13l39 23q2 2 5 1.5t4 -2.5l86 -163l17 -51l17 51l86 163q4 7 10 1l38 -23q6 -6 2 -13l-124 -225l128 -232q5 -7 -1 -13l-38 -23q-6 -6 -10 1l-87 163l-21 58l-20 -58l-88 -163q-1 -2 -4 -2.5t-5 1.5l-38 23q-6 5 -2 13z" />
<glyph unicode="&#x446;" horiz-adv-x="450" d="M379 -128v128h-316q-7 0 -7 9v487q0 9 7 9h48q7 0 7 -9v-441h183v441q0 9 7 9h48q7 0 7 -9v-441h80q7 0 7 -9l-16 -174q0 -9 -7 -9h-41q-7 0 -7 9z" />
<glyph unicode="&#x447;" horiz-adv-x="410" d="M292 9v213q-44 -62 -113 -62q-51 0 -79.5 17.5t-44 69t-15.5 147.5v102q0 9 7 9h48q7 0 7 -9v-89q0 -70 1.5 -101.5t11.5 -53t25 -25.5t48 -4q63 0 104 28v245q0 9 8 9h47q7 0 7 -9v-487q0 -9 -7 -9h-47q-8 0 -8 9z" />
<glyph unicode="&#x448;" horiz-adv-x="594" d="M531 0h-468q-7 0 -7 9v487q0 9 7 9h48q7 0 7 -9v-441h148v441q0 9 7 9h48q7 0 7 -9v-441h148v441q0 9 8 9h47q7 0 7 -9v-487q0 -9 -7 -9z" />
<glyph unicode="&#x449;" horiz-adv-x="626" d="M554 -128v128h-491q-7 0 -7 9v487q0 9 7 9h48q7 0 7 -9v-441h148v441q0 9 7 9h48q7 0 7 -9v-441h148v441q0 9 8 9h47q7 0 7 -9v-441h80q8 0 8 -9l-16 -174q0 -9 -8 -9h-41q-7 0 -7 9z" />
<glyph unicode="&#x44a;" horiz-adv-x="433" d="M144 243v-188h126q34 0 41.5 15.5t7.5 73.5q0 63 -8.5 81t-43.5 18h-123zM82 450h-75q-7 0 -7 9v37q0 9 7 9h129q8 0 8 -9v-199h120q63 0 93.5 -33.5t30.5 -112.5q0 -72 -30.5 -111.5t-86.5 -39.5h-178q-11 0 -11 12v438z" />
<glyph unicode="&#x44b;" horiz-adv-x="524" d="M118 243v-188h121q34 0 41.5 15.5t7.5 73.5q0 63 -8.5 81t-42.5 18h-119zM118 496v-199h115q64 0 94 -33.5t30 -112.5q0 -72 -30 -111.5t-86 -39.5h-174q-11 0 -11 12v484q0 9 7 9h48q7 0 7 -9zM468 496v-487q0 -9 -7 -9h-48q-7 0 -7 9v487q0 9 7 9h48q7 0 7 -9z" />
<glyph unicode="&#x44c;" horiz-adv-x="407" d="M118 243v-188h126q34 0 41.5 15.5t7.5 73.5q0 63 -8.5 81t-42.5 18h-124zM118 496v-199h120q64 0 94 -33.5t30 -112.5q0 -72 -30 -111.5t-86 -39.5h-179q-11 0 -11 12v484q0 9 7 9h48q7 0 7 -9z" />
<glyph unicode="&#x44d;" horiz-adv-x="360" d="M142 48q26 0 40.5 1.5t27.5 9.5t18.5 18.5t9.5 35t5 53t1 77.5h-162q-7 0 -7 9v36q0 9 7 9h162q-3 106 -20.5 133t-81.5 27q-54 0 -92 -19q-6 -3 -8 6l-13 41q-3 9 4 13q45 21 109 21q95 0 132.5 -56t37.5 -208q0 -154 -37.5 -211.5t-132.5 -57.5q-64 0 -109 21 q-7 4 -4 13l13 41q2 9 8 6q38 -19 92 -19z" />
<glyph unicode="&#x44e;" horiz-adv-x="581" d="M364 -14q-93 0 -130.5 55t-38.5 202h-77v-234q0 -9 -7 -9h-48q-7 0 -7 9v487q0 9 7 9h48q7 0 7 -9v-199h78q4 127 41.5 174.5t126.5 47.5q95 0 132 -56t37 -208q0 -154 -37 -211.5t-132 -57.5zM364 457q-30 0 -47 -4.5t-29 -14t-16.5 -36t-6.5 -57.5t-2 -92 q0 -53 0.5 -82t5 -55t9.5 -37t18 -19.5t27.5 -10t40.5 -1.5t40.5 1.5t27.5 10t18 19.5t9.5 37t5 55t0.5 82q0 61 -2 92t-6.5 57.5t-16.5 36t-29 14t-47 4.5z" />
<glyph unicode="&#x44f;" horiz-adv-x="419" d="M301 272v178h-122q-26 0 -35 -18t-9 -69q0 -52 9 -71.5t35 -19.5h122zM170 225q-45 0 -74 35.5t-29 97.5q0 147 112 147h173q11 0 11 -12v-484q0 -9 -7 -9h-48q-7 0 -7 9v209h-58q-30 0 -49 -24t-29.5 -58t-22 -67.5t-36 -57.5t-63.5 -24q-7 0 -7 9l-8 39q0 9 7 9 q25 0 41.5 26.5t24 58.5t25 61.5t44.5 34.5z" />
<glyph unicode="&#x451;" horiz-adv-x="403" d="M352 253h-239q0 -52 1 -81.5t5.5 -55.5t10.5 -37t20.5 -19.5t30.5 -10t44 -1.5q48 0 94 24q6 3 8 -6l15 -43q2 -10 -4 -13q-50 -24 -113 -24q-101 0 -139 57t-38 212q0 149 37.5 206.5t125.5 57.5q87 0 119.5 -50.5t32.5 -202.5q0 -13 -11 -13zM114 307h187 q-2 101 -16 126.5t-76 25.5q-61 0 -76.5 -26t-18.5 -126zM140 667q20 0 28.5 -7.5t8.5 -31.5q0 -26 -8.5 -34.5t-28.5 -8.5q-21 0 -29.5 8.5t-8.5 34.5q0 24 8.5 31.5t29.5 7.5zM283 667q20 0 28.5 -7.5t8.5 -31.5q0 -26 -8.5 -34.5t-28.5 -8.5t-28.5 8.5t-8.5 34.5 q0 24 8.5 31.5t28.5 7.5z" />
<glyph unicode="&#x452;" horiz-adv-x="430" d="M320 -28v300v58.5t-2 43.5t-4 33.5t-7.5 22t-11.5 15.5t-18 7t-24 4.5t-32 0.5q-51 0 -92 -28v-420q0 -9 -7 -9h-48q-7 0 -7 9v589h-40q-7 0 -7 9v40q0 9 7 9h40v49q0 9 7 9h48q7 0 7 -9v-49h82q7 0 7 -9v-40q0 -9 -7 -9h-82v-140q45 61 113 61q51 0 79.5 -17.5 t44.5 -69.5t16 -147v-313q0 -82 -35 -128.5t-93 -46.5q-8 0 -9 10l-5 43q-3 8 4 10q49 8 62.5 27t13.5 85z" />
<glyph unicode="&#x453;" horiz-adv-x="280" d="M287 450h-175v-438q0 -12 -10 -12h-42q-10 0 -10 12v481q0 12 10 12h227q9 0 9 -12v-31q0 -12 -9 -12zM276 673l-95 -112q-6 -4 -12 -1l-21 18q-3 2 -5.5 6t-1.5 7l83 115q7 7 14 3l37 -21q4 -1 4 -6.5t-3 -8.5z" />
<glyph unicode="&#x454;" horiz-adv-x="360" d="M218 48q57 0 93 18q6 3 8 -6l12 -40q3 -9 -4 -13q-45 -21 -109 -21q-95 0 -132.5 57.5t-37.5 211.5q0 152 37.5 208t132.5 56q64 0 109 -21q7 -4 4 -13l-12 -40q-2 -9 -8 -6q-36 18 -93 18q-64 0 -81.5 -27t-20.5 -133h162q7 0 7 -9v-36q0 -9 -7 -9h-162q0 -49 1 -77.5 t5 -53t9.5 -35t18.5 -18.5t27.5 -9.5t40.5 -1.5z" />
<glyph unicode="&#x455;" horiz-adv-x="354" d="M41 7q-6 1 -4 13l15 43q2 8 8 6q53 -24 115 -24q50 0 63.5 18t13.5 80q0 45 -12 60t-64 25q-75 15 -108 45.5t-33 95.5q0 150 145 150q55 0 115 -21q6 -3 4 -13l-15 -43q-2 -8 -8 -6q-47 23 -98 23q-52 0 -64 -16.5t-12 -73.5q0 -43 13 -57.5t67 -23.5q77 -13 107 -46.5 t30 -97.5q0 -79 -34.5 -118.5t-112.5 -39.5q-71 0 -131 21z" />
<glyph unicode="&#x456;" horiz-adv-x="175" d="M87 695q21 0 29.5 -7t8.5 -31q0 -26 -8.5 -34t-29.5 -8q-20 0 -28.5 8t-8.5 34q0 24 8 31t29 7zM118 496v-487q0 -9 -7 -9h-48q-7 0 -7 9v487q0 9 7 9h48q7 0 7 -9z" />
<glyph unicode="&#x457;" horiz-adv-x="175" d="M118 496v-487q0 -9 -7 -9h-48q-7 0 -7 9v487q0 9 7 9h48q7 0 7 -9zM16 667q20 0 28.5 -7.5t8.5 -31.5q0 -26 -8.5 -34.5t-28.5 -8.5q-21 0 -29.5 8.5t-8.5 34.5q0 24 8.5 31.5t29.5 7.5zM159 667q20 0 28.5 -7.5t8.5 -31.5q0 -26 -8.5 -34.5t-28.5 -8.5t-28.5 8.5 t-8.5 34.5q0 24 8.5 31.5t28.5 7.5z" />
<glyph unicode="&#x458;" horiz-adv-x="165" d="M82 695q21 0 29.5 -7t8.5 -31q0 -26 -8.5 -34t-29.5 -8q-20 0 -28.5 8t-8.5 34q0 24 8 31t29 7zM-19 -140q47 7 58.5 25.5t11.5 86.5v524q0 9 7 9h48q7 0 7 -9v-524q0 -81 -35.5 -128t-87.5 -47q-8 0 -8 10l-6 43q-3 7 5 10z" />
<glyph unicode="&#x459;" horiz-adv-x="653" d="M114 505h237q8 0 8 -9v-199h125q63 0 93.5 -33.5t30.5 -112.5q0 -72 -30.5 -111.5t-86.5 -39.5h-183q-7 0 -7 9v441h-133q0 -242 -70 -441q-4 -9 -10 -9h-58q-3 0 -5 4t0 8q49 121 65 226t16 258q0 9 8 9zM359 243v-188h131q34 0 41.5 15.5t7.5 73.5q0 63 -8.5 81 t-43.5 18h-128z" />
<glyph unicode="&#x45a;" horiz-adv-x="658" d="M313 505h44q7 0 7 -9v-199h126q63 0 93.5 -33.5t30.5 -112.5q0 -72 -30.5 -111.5t-86.5 -39.5h-184q-7 0 -7 9v234h-188v-234q0 -9 -7 -9h-48q-7 0 -7 9v487q0 9 7 9h48q7 0 7 -9v-199h188v199q0 9 7 9zM364 243v-188h131q34 0 41.5 15.5t7.5 73.5q0 63 -8 81t-43 18 h-129z" />
<glyph unicode="&#x45b;" horiz-adv-x="430" d="M211 598h-82v-145q49 66 113 66q51 0 79.5 -17.5t44.5 -69.5t16 -147v-276q0 -9 -8 -9h-47q-7 0 -7 9v263v58.5t-2 43.5t-4 33.5t-7.5 22t-11.5 15.5t-18 7t-24 4.5t-32 0.5q-44 0 -92 -33v-415q0 -9 -7 -9h-48q-7 0 -7 9v589h-40q-7 0 -7 9v40q0 9 7 9h40v49q0 9 7 9h48 q7 0 7 -9v-49h82q7 0 7 -9v-40q0 -9 -7 -9z" />
<glyph unicode="&#x45c;" horiz-adv-x="395" d="M118 258v-249q0 -9 -7 -9h-48q-7 0 -7 9v487q0 9 7 9h48q7 0 7 -9v-228q37 26 63.5 62.5t41 67.5t30.5 59.5t42 45t65 16.5q8 0 8 -9l8 -39q0 -9 -8 -9q-31 0 -54 -23t-36 -52.5t-37 -65t-53 -54.5q30 -19 55.5 -58.5t40.5 -75t37 -63t47 -27.5q8 0 8 -9l-8 -39 q0 -9 -8 -9q-39 0 -65 18.5t-42 50t-30.5 66t-41 73t-63.5 64.5zM306 673l-95 -112q-6 -4 -12 -1l-21 18q-3 2 -5.5 6t-1.5 7l83 115q7 7 14 3l37 -21q4 -1 4 -6.5t-3 -8.5z" />
<glyph unicode="&#x45e;" horiz-adv-x="369" d="M184 569q-54 0 -79.5 27.5t-25.5 91.5q0 9 9 9h40q8 0 8 -9q0 -21 0.5 -30t2.5 -21t7.5 -16t14.5 -7.5t24 -3.5q33 0 40.5 15t7.5 63q0 9 8 9h41q8 0 8 -9q0 -64 -25.5 -91.5t-80.5 -27.5zM351 488l-151 -567q-34 -124 -120 -124q-8 0 -9 10l-10 43q-1 3 -0.5 5t1.5 3.5 t3 1.5q43 0 60.5 24.5t38.5 115.5h-6q-7 0 -10 8l-130 480q-4 9 4 11l49 12q7 2 9 -5l93 -371l12 -90l15 90l91 371q2 7 9 5l46 -12q9 -2 5 -11z" />
<glyph unicode="&#x45f;" horiz-adv-x="444" d="M356 0h-114l-7 -109q0 -9 -8 -9h-34q-8 0 -8 9l-8 109h-114q-7 0 -7 9v487q0 9 7 9h48q7 0 7 -9v-441h183v441q0 9 7 9h48q7 0 7 -9v-487q0 -9 -7 -9z" />
<glyph unicode="&#x490;" horiz-adv-x="374" d="M375 637h-236v-628q0 -9 -7 -9h-53q-7 0 -7 9v679q0 9 7 9h245l8 98q0 9 8 9h35q7 0 7 -9v-149q0 -9 -7 -9z" />
<glyph unicode="&#x491;" horiz-adv-x="280" d="M60 505h188l6 83q0 9 7 9h34q7 0 7 -9v-129q0 -9 -7 -9h-183v-438q0 -12 -11 -12h-41q-10 0 -10 12v481q0 12 10 12z" />
<glyph unicode="&#x1ea6;" horiz-adv-x="452" d="M325 210h-201l-55 -213q-2 -7 -9 -5l-46 12q-9 2 -5 11l178 673q4 9 8 9h63q4 0 8 -9l177 -673q4 -9 -5 -11l-48 -12q-7 -2 -9 5zM311 267l-76 310l-11 79l-11 -79l-75 -310h173zM206 876h35q11 0 18 -8l81 -84q6 -8 -4 -13l-29 -22q-5 -3 -10 4l-73 79l-73 -79 q-7 -7 -11 -4l-29 22q-3 2 -4.5 6t1.5 7l80 84q7 8 18 8zM256 910l-95 112q-3 3 -3 8.5t4 6.5l37 21q8 4 13 -3l84 -115q2 -3 1.5 -7.5t-3.5 -5.5l-27 -18q-7 -3 -11 1z" />
<glyph unicode="&#x1ea7;" horiz-adv-x="418" d="M205 248q-62 0 -77 -18.5t-15 -81.5t15 -81.5t77 -18.5q47 0 91 30v140q-44 30 -91 30zM202 519q87 0 121.5 -44t34.5 -165v-248l12 -46q2 -9 -5 -12l-47 -11q-7 -4 -9 5l-13 51q-13 -25 -43 -44t-64 -19q-80 0 -110.5 38t-30.5 124t30.5 124t110.5 38q34 0 64 -19 t43 -44v63q0 93 -16 120t-78 27q-56 0 -103 -21q-6 -2 -8 6l-12 42q-2 10 4 13q56 22 119 22zM190 708h35q11 0 18 -8l73 -98q6 -8 -4 -13l-29 -18q-5 -3 -10 4l-65 88l-65 -88q-7 -7 -11 -4l-29 18q-3 2 -4.5 6t1.5 7l72 98q7 8 18 8zM236 761l-95 112q-3 3 -3 8.5t4 6.5 l37 21q8 4 13 -3l84 -115q2 -3 1.5 -7.5t-3.5 -5.5l-27 -18q-7 -3 -11 1z" />
<glyph unicode="&#x2013;" horiz-adv-x="435" d="M386 245h-336q-8 0 -8 9v43q0 9 8 9h336q7 0 7 -9v-43q0 -9 -7 -9z" />
<glyph unicode="&#x2014;" horiz-adv-x="670" d="M621 245h-571q-8 0 -8 9v43q0 9 8 9h571q7 0 7 -9v-43q0 -9 -7 -9z" />
<glyph unicode="&#x2018;" horiz-adv-x="205" d="M58 513l43 195q2 11 9 11h31q7 0 7 -11l-21 -206q-2 -11 -11 -11l-49 8q-11 0 -9 14z" />
<glyph unicode="&#x2019;" horiz-adv-x="207" d="M148 697l-43 -195q-2 -11 -9 -11h-31q-7 0 -7 11l21 206q2 11 11 11l49 -8q11 0 9 -14z" />
<glyph unicode="&#x201a;" horiz-adv-x="205" d="M148 67l-43 -195q-2 -11 -9 -11h-31q-7 0 -7 11l21 206q2 11 11 11l49 -8q11 0 9 -14z" />
<glyph unicode="&#x201c;" horiz-adv-x="310" d="M177 513l42 195q4 11 10 11h31q8 0 6 -11l-21 -206q0 -11 -11 -11l-48 8q-5 0 -8 4.5t-1 9.5zM58 513l43 195q2 11 9 11h31q7 0 7 -11l-21 -206q-2 -11 -11 -11l-49 8q-11 0 -9 14z" />
<glyph unicode="&#x201d;" horiz-adv-x="325" d="M148 697l-43 -195q-2 -11 -9 -11h-31q-7 0 -7 11l21 206q2 11 11 11l49 -8q11 0 9 -14zM266 697l-42 -195q-4 -11 -10 -11h-31q-8 0 -6 11l21 206q2 11 11 11l48 -8q6 0 8.5 -4.5t0.5 -9.5z" />
<glyph unicode="&#x201e;" horiz-adv-x="325" d="M148 67l-43 -195q-2 -11 -9 -11h-31q-7 0 -7 11l21 206q2 11 11 11l49 -8q11 0 9 -14zM266 67l-42 -195q-4 -11 -10 -11h-31q-8 0 -6 11l21 206q2 11 11 11l48 -8q6 0 8.5 -4.5t0.5 -9.5z" />
<glyph unicode="&#x2020;" horiz-adv-x="435" d="M189 185v280h-139q-8 0 -8 9v43q0 9 8 9h139v179q0 9 7 9h44q7 0 7 -9v-179h139q7 0 7 -9v-43q0 -9 -7 -9h-139v-280q0 -9 -7 -9h-44q-7 0 -7 9z" />
<glyph unicode="&#x2021;" horiz-adv-x="435" d="M189 9v236h-139q-8 0 -8 9v43q0 9 8 9h139v159h-139q-8 0 -8 9v43q0 9 8 9h139v179q0 9 7 9h44q7 0 7 -9v-179h139q7 0 7 -9v-43q0 -9 -7 -9h-139v-159h139q7 0 7 -9v-43q0 -9 -7 -9h-139v-236q0 -9 -7 -9h-44q-7 0 -7 9z" />
<glyph unicode="&#x2022;" horiz-adv-x="468" d="M234 56q-98 0 -141 59t-43 210q0 149 43 206.5t141 57.5t141 -57.5t43 -206.5q0 -151 -43 -210t-141 -59z" />
<glyph unicode="&#x2030;" horiz-adv-x="1130" d="M176 265q-75 0 -105.5 49.5t-30.5 179.5q0 128 30 174t106 46q77 0 107 -46t30 -174q0 -130 -30.5 -179.5t-106.5 -49.5zM175 662q-47 0 -57.5 -27.5t-10.5 -140.5q0 -111 11 -143t57 -32q48 0 59.5 32t11.5 143q0 113 -11 140.5t-60 27.5zM626 -14q-76 0 -106 49.5 t-30 179.5q0 128 29.5 174t106.5 46t106.5 -46t29.5 -174q0 -130 -30 -179.5t-106 -49.5zM625 383q-47 0 -58 -27.5t-11 -140.5q0 -111 11.5 -143t57.5 -32q47 0 59 32t12 143q0 113 -11.5 140.5t-59.5 27.5zM954 -14q-76 0 -106 49.5t-30 179.5q0 128 29.5 174t106.5 46 t106.5 -46t29.5 -174q0 -130 -30 -179.5t-106 -49.5zM953 383q-47 0 -58 -27.5t-11 -140.5q0 -111 11.5 -143t57.5 -32q47 0 59 32t12 143q0 113 -11.5 140.5t-59.5 27.5zM629 700l-413 -735q-6 -9 -11 -2l-34 21q-2 2 -4 3q-3 1 -1 3l413 736q6 6 10 2l39 -15q6 -6 1 -13z " />
<glyph unicode="&#x2039;" horiz-adv-x="328" d="M298 557l-204 -259l204 -261q6 -6 -1 -13l-25 -29q-6 -6 -10 2l-226 278q-4 4 -4 12v21q0 7 4 11l226 278q4 8 10 2l25 -29q7 -7 1 -13z" />
<glyph unicode="&#x203a;" horiz-adv-x="328" d="M33 37l204 259l-204 261q-6 6 1 13l25 29q6 6 10 -2l226 -278q4 -4 4 -12v-21q0 -7 -4 -11l-226 -278q-4 -8 -10 -2l-25 29q-7 7 -1 13z" />
<glyph unicode="&#x2044;" horiz-adv-x="462" d="M462 700l-413 -735q-6 -9 -11 -2l-34 21q-2 2 -4 3q-3 1 -1 3l413 736q6 6 10 2l39 -15q6 -6 1 -13z" />
<glyph unicode="&#x2070;" d="M169 444q46 0 58 31.5t12 149.5q0 116 -12 145.5t-58 29.5q-48 0 -60.5 -30t-12.5 -145q0 -83 5.5 -119t20 -49t47.5 -13zM168 387q-71 0 -103 50t-32 188q0 92 16 143.5t44 69.5t75 18q71 0 103 -48t32 -183q0 -138 -32 -188t-103 -50z" />
<glyph unicode="&#x2074;" d="M257 832v-270h41q11 0 11 -12v-24q0 -9 -2.5 -11t-8.5 -2h-41v-100q0 -14 -10 -14h-35q-10 0 -10 14v100h-152q-10 0 -10 13v22q0 9 4 17l136 274q3 8 14 8h51q12 0 12 -15zM96 562h106v191l3 47l-14 -44z" />
<glyph unicode="&#x2075;" d="M267 795h-149v-130h39q74 0 105.5 -29.5t31.5 -102.5q0 -78 -36 -111.5t-110 -33.5q-50 0 -90 15q-8 5 -7 16l11 30q3 10 14 7q30 -13 72 -13q54 0 68.5 15.5t14.5 70.5t-13 70.5t-61 15.5h-83q-12 0 -12 14v203q0 15 12 15h193q10 0 10 -12v-29q0 -11 -10 -11z" />
<glyph unicode="&#x2076;" d="M191 679q60 0 86.5 -35.5t26.5 -110.5t-31 -110.5t-100 -35.5q-76 0 -102.5 49.5t-26.5 187.5q0 134 31.5 183t109.5 49q48 0 93 -13q9 -2 8 -15l-10 -32q-1 -13 -13 -7q-33 12 -78 12q-50 0 -65.5 -25.5t-15.5 -106.5v-28q44 38 87 38zM177 628q-33 0 -73 -18 q1 -76 8 -112t20 -46.5t41 -10.5q44 0 57 16.5t13 70.5q0 61 -12.5 80.5t-53.5 19.5z" />
<glyph unicode="&#x2077;" horiz-adv-x="350" d="M99 427l146 368h-192q-10 0 -10 11v28q0 13 10 13h245q9 0 9 -12v-17q0 -9 -3 -18l-153 -400q-3 -10 -13 -5l-33 13q-11 5 -6 19z" />
<glyph unicode="&#x2078;" d="M167 441q45 0 57 14.5t12 68.5t-12.5 71.5t-56.5 17.5q-43 0 -55 -17.5t-12 -71.5t11.5 -68.5t55.5 -14.5zM167 660q43 0 55 15.5t12 63.5q0 40 -12 51.5t-55 11.5q-41 0 -52.5 -11.5t-11.5 -51.5q0 -48 11.5 -63.5t52.5 -15.5zM167 387q-66 0 -98 31.5t-32 102.5 q0 89 63 116q-32 13 -45 37t-13 69q0 113 125 113q127 0 127 -113q0 -46 -12.5 -69t-43.5 -35q32 -14 46.5 -41.5t14.5 -76.5q0 -71 -32.5 -102.5t-99.5 -31.5z" />
<glyph unicode="&#x2079;" d="M162 621q31 0 69 20q3 21 3 58q0 68 -11 84.5t-58 16.5q-45 0 -56 -14t-11 -68q0 -62 11 -79.5t53 -17.5zM97 427l106 136q11 13 21 37q-34 -30 -73 -30q-61 0 -88.5 34t-27.5 108q0 76 30.5 110t99.5 34q73 0 100.5 -37.5t27.5 -118.5q0 -113 -48 -176l-103 -134 q-4 -7 -12 -3l-32 20q-10 7 -1 20z" />
<glyph unicode="&#x207d;" horiz-adv-x="202" d="M37 614q0 267 126 334q10 1 14 -8l15 -24q2 -13 -8 -19q-84 -43 -84 -283t84 -283q11 -6 8 -20l-15 -23q-4 -9 -14 -8q-126 67 -126 334z" />
<glyph unicode="&#x207e;" horiz-adv-x="202" d="M164 614q0 -267 -126 -334q-10 -1 -14 8l-15 24q-2 13 8 19q84 43 84 283t-84 283q-11 6 -8 20l15 23q4 9 14 8q126 -67 126 -334z" />
<glyph unicode="&#x207f;" horiz-adv-x="314" d="M91 769v-19q35 40 81 40q58 0 82 -35.5t24 -140.5v-203q0 -12 -10 -12h-32q-11 0 -11 12v193q0 91 -10 109.5t-60 18.5q-36 0 -64 -19v-302q0 -12 -11 -12h-32q-10 0 -10 12v358q0 12 10 12h32q11 0 11 -12z" />
<glyph unicode="&#x2080;" d="M169 -105q46 0 58 31.5t12 149.5q0 116 -12 145.5t-58 29.5q-48 0 -60.5 -30t-12.5 -145q0 -83 5.5 -119t20 -49t47.5 -13zM168 -162q-71 0 -103 50t-32 188q0 92 16 143.5t44 69.5t75 18q71 0 103 -48t32 -183q0 -138 -32 -188t-103 -50z" />
<glyph unicode="&#x2081;" d="M74 227l94 67q6 4 11 4h41q11 0 11 -15v-420q0 -13 -11 -13h-36q-11 0 -11 13v368l-73 -52q-8 -5 -12 3l-18 29q-5 10 4 16z" />
<glyph unicode="&#x2082;" d="M158 252q-45 0 -84 -16q-8 -2 -11 10l-10 28q-2 10 5 14q42 19 100 19q67 0 99.5 -30t32.5 -98q0 -58 -17.5 -99.5t-68.5 -92.5l-86 -86h158q10 0 10 -12v-27q0 -12 -10 -12h-222q-10 0 -10 12v31q0 9 9 18l121 124q34 36 43.5 61t9.5 80q0 43 -14.5 59.5t-54.5 16.5z " />
<glyph unicode="&#x2083;" d="M153 61h-45q-10 0 -10 11v28q0 12 10 12h45q41 0 53.5 14t12.5 56t-14.5 56.5t-55.5 14.5q-37 0 -85 -13q-11 -2 -14 7l-8 28v-1q-3 14 5 18q47 15 102 15q76 0 103.5 -31.5t27.5 -90.5q0 -36 -16 -62.5t-41 -33.5q28 -6 46.5 -36t18.5 -73q0 -73 -32 -107.5t-110 -34.5 q-49 0 -100 16q-7 4 -4 16l10 27q4 11 15 8q37 -14 79 -14q49 0 64.5 17.5t15.5 71.5q0 51 -14 66t-59 15z" />
<glyph unicode="&#x2084;" d="M257 283v-270h41q11 0 11 -12v-24q0 -9 -2.5 -11t-8.5 -2h-41v-100q0 -14 -10 -14h-35q-10 0 -10 14v100h-152q-10 0 -10 13v22q0 9 4 17l136 274q3 8 14 8h51q12 0 12 -15zM96 13h106v191l3 47l-14 -44z" />
<glyph unicode="&#x2085;" d="M267 246h-149v-130h39q74 0 105.5 -29.5t31.5 -102.5q0 -78 -36 -111.5t-110 -33.5q-50 0 -90 15q-8 5 -7 16l11 30q3 10 14 7q30 -13 72 -13q54 0 68.5 15.5t14.5 70.5t-13 70.5t-61 15.5h-83q-12 0 -12 14v203q0 15 12 15h193q10 0 10 -12v-29q0 -11 -10 -11z" />
<glyph unicode="&#x2086;" d="M191 130q60 0 86.5 -35.5t26.5 -110.5t-31 -110.5t-100 -35.5q-76 0 -102.5 49.5t-26.5 187.5q0 134 31.5 183t109.5 49q48 0 93 -13q9 -2 8 -15l-10 -32q-1 -13 -13 -7q-33 12 -78 12q-50 0 -65.5 -25.5t-15.5 -106.5v-28q44 38 87 38zM177 79q-33 0 -73 -18 q1 -76 8 -112t20 -46.5t41 -10.5q44 0 57 16.5t13 70.5q0 61 -12.5 80.5t-53.5 19.5z" />
<glyph unicode="&#x2087;" d="M92 -122l146 368h-192q-10 0 -10 11v28q0 13 10 13h245q9 0 9 -12v-17q0 -9 -3 -18l-153 -400q-3 -10 -13 -5l-33 13q-11 5 -6 19z" />
<glyph unicode="&#x2088;" d="M167 -108q45 0 57 14.5t12 68.5t-12.5 71.5t-56.5 17.5q-43 0 -55 -17.5t-12 -71.5t11.5 -68.5t55.5 -14.5zM167 111q43 0 55 15.5t12 63.5q0 40 -12 51.5t-55 11.5q-41 0 -52.5 -11.5t-11.5 -51.5q0 -48 11.5 -63.5t52.5 -15.5zM167 -162q-66 0 -98 31.5t-32 102.5 q0 89 63 116q-32 13 -45 37t-13 69q0 113 125 113q127 0 127 -113q0 -46 -12.5 -69t-43.5 -35q32 -14 46.5 -41.5t14.5 -76.5q0 -71 -32.5 -102.5t-99.5 -31.5z" />
<glyph unicode="&#x2089;" d="M162 72q31 0 69 20q3 21 3 58q0 68 -11 84.5t-58 16.5q-45 0 -56 -14t-11 -68q0 -62 11 -79.5t53 -17.5zM97 -122l106 136q11 13 21 37q-34 -30 -73 -30q-61 0 -88.5 34t-27.5 108q0 76 30.5 110t99.5 34q73 0 100.5 -37.5t27.5 -118.5q0 -113 -48 -176l-103 -134 q-4 -7 -12 -3l-32 20q-10 7 -1 20z" />
<glyph unicode="&#x208d;" horiz-adv-x="202" d="M37 65q0 267 126 334q10 1 14 -8l15 -24q2 -13 -8 -19q-84 -43 -84 -283t84 -283q11 -6 8 -20l-15 -23q-4 -9 -14 -8q-126 67 -126 334z" />
<glyph unicode="&#x208e;" horiz-adv-x="202" d="M164 65q0 -267 -126 -334q-10 -1 -14 8l-15 24q-2 13 8 19q84 43 84 283t-84 283q-11 6 -8 20l15 23q4 9 14 8q126 -67 126 -334z" />
<glyph unicode="&#x20a3;" horiz-adv-x="410" d="M246 155h-107v-146q0 -9 -7 -9h-53q-7 0 -7 9v146h-50q-8 0 -8 9v40q0 9 8 9h50v475q0 9 7 9h311q8 0 8 -9v-42q0 -9 -8 -9h-251v-267h203q8 0 8 -9v-42q0 -9 -8 -9h-203v-97h107q7 0 7 -9v-40q0 -9 -7 -9z" />
<glyph unicode="&#x20ab;" horiz-adv-x="428" d="M417 598h-45v-589q0 -9 -7 -9h-48q-7 0 -7 9v43q-19 -30 -48 -48t-60 -18q-84 0 -119 57.5t-35 208.5t35 209t119 58q31 0 60 -18t48 -48v145h-77q-7 0 -7 9v40q0 9 7 9h77v49q0 9 7 9h48q7 0 7 -9v-49h45q7 0 7 -9v-40q0 -9 -7 -9zM310 81v343q-48 33 -92 33 q-26 0 -41 -1.5t-28 -10.5t-18.5 -20t-9.5 -38t-4.5 -55t-0.5 -80q0 -44 1 -69.5t2.5 -51t6.5 -37.5t11.5 -23t18.5 -15t26 -6t36 -2q44 0 92 33z" />
<glyph unicode="&#x20ac;" horiz-adv-x="443" d="M282 714q72 0 139 -25q6 -3 4 -13l-15 -43q0 -9 -8 -6q-55 25 -120 25q-90 0 -119.5 -31.5t-36.5 -145.5h220q7 0 7 -9v-40q0 -9 -7 -9h-224v-123h224q7 0 7 -9v-40q0 -9 -7 -9h-221q6 -84 21 -123t44 -51.5t92 -12.5q67 0 120 24q8 3 8 -6l15 -43q2 -10 -4 -13 q-67 -25 -139 -25q-65 0 -106.5 15t-71 55.5t-42 112.5t-12.5 186q0 110 12.5 180t42 110t71 54.5t106.5 14.5z" />
<glyph unicode="&#x2113;" horiz-adv-x="185" d="M118 629v-194q22 26 36.5 87.5t14.5 113.5q0 21 -5 28t-16 7q-17 0 -23.5 -8.5t-6.5 -33.5zM56 227v390q0 55 19.5 76t63.5 21q36 0 49 -13.5t13 -63.5q0 -145 -83 -251v-304l19 -66q3 -8 -5 -12l-46 -11q-7 -3 -9 5l-18 62q-3 18 -3 167z" />
<glyph unicode="&#x2116;" horiz-adv-x="817" d="M642 349q-65 0 -95 39t-30 147q0 107 29.5 143t95.5 36t96 -36t30 -143q0 -108 -30.5 -147t-95.5 -39zM642 652q-40 0 -50 -18.5t-10 -100.5q0 -81 10.5 -102t49.5 -21q41 0 51 20.5t10 102.5t-9.5 100.5t-51.5 18.5zM766 195h-246q-7 0 -7 9v43q0 9 7 9h246q7 0 7 -9 v-43q0 -9 -7 -9zM163 688l198 -521l26 -101l-3 105v517q0 9 7 9h51q7 0 7 -9v-679q-4 -9 -8 -9h-71q-7 0 -12 9l-198 521l-27 92l4 -96v-517q0 -9 -7 -9h-51q-7 0 -7 9v679q4 9 8 9h71q7 0 12 -9z" />
<glyph unicode="&#x2122;" horiz-adv-x="578" d="M216 697q8 0 8 -9v-20q0 -9 -8 -9h-72v-301q0 -9 -9 -9h-26q-10 0 -10 9v301h-70q-10 0 -10 9v20q0 9 10 9h187zM393 449l57 236q4 12 12 12h44q6 0 8 -8v-331q0 -9 -8 -9h-27q-9 0 -9 9v243l-55 -217q-4 -9 -10 -9h-30q-7 0 -9 7l-56 220v-244q0 -9 -10 -9h-26 q-8 0 -8 9v331q0 8 8 8h44q9 0 11 -8z" />
<glyph unicode="&#x2126;" horiz-adv-x="621" d="M34 55h143q-103 84 -103 327q0 181 57.5 256.5t178.5 75.5q122 0 180 -75.5t58 -256.5q0 -241 -104 -327h143q10 0 10 -12v-31q0 -12 -10 -12h-217q-10 0 -10 12v37q0 11 10 11q64 26 86.5 105.5t22.5 214.5q0 115 -14.5 172t-49 79t-105.5 22q-69 0 -103.5 -22t-49 -79 t-14.5 -172q0 -136 22 -215t86 -105q10 0 10 -11v-37q0 -12 -11 -12h-216q-10 0 -10 12v31q0 12 10 12z" />
<glyph unicode="&#x212e;" horiz-adv-x="552" d="M447 65l14 -40q3 -12 -6 -15q-67 -24 -149 -24q-135 0 -195.5 81t-60.5 285q0 105 15.5 176.5t47.5 111.5t73.5 57t100.5 17q78 0 126.5 -31.5t76 -113.5t27.5 -221q0 -10 -8 -10h-396q1 -123 18.5 -183t56.5 -81.5t118 -21.5q70 0 128 22q10 5 13 -9zM287 653 q-97 0 -128 -47.5t-35 -207.5h321q-2 158 -32 206.5t-126 48.5z" />
<glyph unicode="&#x2153;" horiz-adv-x="774" d="M568 700l-413 -735q-6 -9 -11 -2l-34 21q-2 2 -4 3q-3 1 -1 3l413 736q6 6 10 2l39 -15q6 -6 1 -13zM64 626l94 67q6 4 11 4h41q11 0 11 -15v-420q0 -13 -11 -13h-36q-11 0 -11 13v368l-73 -52q-8 -5 -12 3l-18 29q-5 10 4 16zM569 211h-45q-10 0 -10 11v28q0 12 10 12 h45q41 0 53.5 14t12.5 56t-14.5 56.5t-55.5 14.5q-37 0 -85 -13q-11 -2 -14 7l-8 28v-1q-3 14 5 18q47 15 102 15q76 0 103.5 -31.5t27.5 -90.5q0 -36 -16 -62.5t-41 -33.5q28 -6 46.5 -36t18.5 -73q0 -73 -32 -107.5t-110 -34.5q-49 0 -100 16q-7 4 -4 16l10 27q4 11 15 8 q37 -14 79 -14q49 0 64.5 17.5t15.5 71.5q0 51 -14 66t-59 15z" />
<glyph unicode="&#x2154;" horiz-adv-x="774" d="M606 700l-413 -735q-6 -9 -11 -2l-34 21q-2 2 -4 3q-3 1 -1 3l413 736q6 6 10 2l39 -15q6 -6 1 -13zM141 651q-45 0 -84 -16q-8 -2 -11 10l-10 28q-2 10 5 14q42 19 100 19q67 0 99.5 -30t32.5 -98q0 -58 -17.5 -99.5t-68.5 -92.5l-86 -86h158q10 0 10 -12v-27 q0 -12 -10 -12h-222q-10 0 -10 12v31q0 9 9 18l121 124q34 36 43.5 61t9.5 80q0 43 -15 59.5t-54 16.5zM615 211h-45q-10 0 -10 11v28q0 12 10 12h45q41 0 53.5 14t12.5 56t-14.5 56.5t-55.5 14.5q-37 0 -85 -13q-11 -2 -14 7l-8 28v-1q-3 14 5 18q47 15 102 15 q76 0 103.5 -31.5t27.5 -90.5q0 -36 -16 -62.5t-41 -33.5q28 -6 46.5 -36t18.5 -73q0 -73 -32 -107.5t-110 -34.5q-49 0 -100 16q-7 4 -4 16l10 27q4 11 15 8q37 -14 79 -14q49 0 64.5 17.5t15.5 71.5q0 51 -14 66t-59 15z" />
<glyph unicode="&#x215b;" horiz-adv-x="774" d="M557 700l-413 -735q-6 -9 -11 -2l-34 21q-2 2 -4 3q-3 1 -1 3l413 736q6 6 10 2l39 -15q6 -6 1 -13zM54 626l94 67q6 4 11 4h41q11 0 11 -15v-420q0 -13 -11 -13h-36q-11 0 -11 13v368l-73 -52q-8 -5 -12 3l-18 29q-5 10 4 16zM564 42q45 0 57 14.5t12 68.5t-12.5 71.5 t-56.5 17.5q-43 0 -55 -17.5t-12 -71.5t11.5 -68.5t55.5 -14.5zM564 261q43 0 55 15.5t12 63.5q0 40 -12 51.5t-55 11.5q-41 0 -52.5 -11.5t-11.5 -51.5q0 -48 11.5 -63.5t52.5 -15.5zM564 -12q-66 0 -98 31.5t-32 102.5q0 89 63 116q-32 13 -45 37t-13 69q0 113 125 113 q127 0 127 -113q0 -46 -12.5 -69t-43.5 -35q32 -14 46.5 -41.5t14.5 -76.5q0 -71 -32.5 -102.5t-99.5 -31.5z" />
<glyph unicode="&#x215c;" horiz-adv-x="774" d="M603 700l-413 -735q-6 -9 -11 -2l-34 21q-2 2 -4 3q-3 1 -1 3l413 736q6 6 10 2l39 -15q6 -6 1 -13zM153 460h-45q-10 0 -10 11v28q0 12 10 12h45q41 0 53.5 14t12.5 56q0 43 -14.5 57t-55.5 14q-37 0 -85 -13q-11 -2 -14 7l-8 28v-1q-3 14 5 18q46 15 102 15 q76 0 103.5 -31.5t27.5 -90.5q0 -36 -16 -62.5t-41 -33.5q28 -6 46.5 -36t18.5 -73q0 -73 -32 -107.5t-110 -34.5q-49 0 -100 16q-7 4 -4 16l10 27q4 11 15 8q37 -14 79 -14q49 0 64.5 17.5t15.5 71.5q0 51 -14 66t-59 15zM600 42q45 0 57 14.5t12 68.5t-12.5 71.5 t-56.5 17.5q-43 0 -55 -17.5t-12 -71.5t11.5 -68.5t55.5 -14.5zM600 261q43 0 55 15.5t12 63.5q0 40 -12 51.5t-55 11.5q-41 0 -52.5 -11.5t-11.5 -51.5q0 -48 11.5 -63.5t52.5 -15.5zM600 -12q-66 0 -98 31.5t-32 102.5q0 89 63 116q-32 13 -45 37t-13 69q0 113 125 113 q127 0 127 -113q0 -46 -12.5 -69t-43.5 -35q32 -14 46.5 -41.5t14.5 -76.5q0 -71 -32.5 -102.5t-99.5 -31.5z" />
<glyph unicode="&#x215d;" horiz-adv-x="774" d="M615 700l-413 -735q-6 -9 -11 -2l-34 21q-2 2 -4 3q-3 1 -1 3l413 736q6 6 10 2l39 -15q6 -6 1 -13zM267 645h-149v-130h39q74 0 105.5 -29.5t31.5 -102.5q0 -78 -36 -111.5t-110 -33.5q-50 0 -90 15q-8 5 -7 16l11 30q3 10 14 7q30 -13 72 -13q54 0 68.5 15.5t14.5 70.5 t-13 70.5t-61 15.5h-83q-12 0 -12 14v203q0 15 12 15h193q10 0 10 -12v-29q0 -11 -10 -11zM607 42q45 0 57 14.5t12 68.5t-12.5 71.5t-56.5 17.5q-43 0 -55 -17.5t-12 -71.5t11.5 -68.5t55.5 -14.5zM607 261q43 0 55 15.5t12 63.5q0 40 -12 51.5t-55 11.5q-41 0 -52.5 -11.5 t-11.5 -51.5q0 -48 11.5 -63.5t52.5 -15.5zM607 -12q-66 0 -98 31.5t-32 102.5q0 89 63 116q-32 13 -45 37t-13 69q0 113 125 113q127 0 127 -113q0 -46 -12.5 -69t-43.5 -35q32 -14 46.5 -41.5t14.5 -76.5q0 -71 -32.5 -102.5t-99.5 -31.5z" />
<glyph unicode="&#x215e;" horiz-adv-x="774" d="M556 700l-413 -735q-6 -9 -11 -2l-34 21q-2 2 -4 3q-3 1 -1 3l413 736q6 6 10 2l39 -15q6 -6 1 -13zM119 277l146 368h-192q-10 0 -10 11v28q0 13 10 13h245q9 0 9 -12v-17q0 -9 -3 -18l-153 -400q-3 -10 -13 -5l-33 13q-11 5 -6 19zM570 42q45 0 57 14.5t12 68.5 t-12.5 71.5t-56.5 17.5q-43 0 -55 -17.5t-12 -71.5t11.5 -68.5t55.5 -14.5zM570 261q43 0 55 15.5t12 63.5q0 40 -12 51.5t-55 11.5q-41 0 -52.5 -11.5t-11.5 -51.5q0 -48 11.5 -63.5t52.5 -15.5zM570 -12q-66 0 -98 31.5t-32 102.5q0 89 63 116q-32 13 -45 37t-13 69 q0 113 125 113q127 0 127 -113q0 -46 -12.5 -69t-43.5 -35q32 -14 46.5 -41.5t14.5 -76.5q0 -71 -32.5 -102.5t-99.5 -31.5z" />
<glyph unicode="&#x2190;" horiz-adv-x="666" d="M352 531l-192 -190l-52 -39l69 7h460q9 0 9 -9v-41q0 -9 -9 -9h-461l-68 7l51 -38l194 -193q6 -6 0 -12l-29 -29q-6 -7 -13 0l-288 288q-3 3 -3 7q0 3 3 6l287 286q6 7 13 0l29 -29q6 -6 0 -12z" />
<glyph unicode="&#x2191;" horiz-adv-x="666" d="M585 259l-190 192l-39 52l7 -69v-460q0 -9 -9 -9h-41q-9 0 -9 9v461l7 68l-38 -51l-193 -194q-6 -6 -12 0l-29 29q-7 7 0 13l288 288q3 3 7 3q3 0 6 -3l286 -288q8 -4 0 -12l-29 -29q-6 -6 -12 0z" />
<glyph unicode="&#x2192;" horiz-adv-x="666" d="M506 341l-192 190q-6 6 0 12l29 29q7 7 13 0l287 -286q3 -3 3 -6q0 -4 -3 -7l-288 -288q-7 -7 -13 0l-29 29q-6 6 0 12l194 193l51 38l-68 -7h-461q-9 0 -9 9v41q0 9 9 9h460l69 -7z" />
<glyph unicode="&#x2193;" horiz-adv-x="666" d="M395 105l190 192q6 6 12 0l29 -29q8 -8 0 -12l-286 -288q-3 -3 -6 -3q-4 0 -7 3l-288 288q-7 6 0 13l29 29q6 6 12 0l193 -194l38 -51l-7 68v461q0 9 9 9h41q9 0 9 -9v-460l-7 -69z" />
<glyph unicode="&#x2196;" horiz-adv-x="666" d="M525 444l-270 1l-64 9l53 -44l326 -325q6 -6 0 -13l-29 -29q-7 -6 -13 0l-326 326l-43 53l9 -63l1 -273q0 -3 -3 -6t-6 -3h-41q-9 0 -9 10v407q0 4 3 7q2 2 6 2l405 -1q4 1 6.5 -1.5t2.5 -7.5v-41q0 -8 -8 -8z" />
<glyph unicode="&#x2197;" horiz-adv-x="666" d="M498 86l1 270l9 64l-44 -53l-325 -326q-6 -6 -13 0l-29 29q-6 7 0 13l326 326l53 43l-63 -9l-273 -1q-3 0 -6 3t-3 6v41q0 9 10 9h407q4 0 7 -3q2 -2 2 -6l-1 -406q1 -3 -2 -5.5t-7 -2.5h-41q-8 0 -8 8z" />
<glyph unicode="&#x2198;" horiz-adv-x="666" d="M157 113l270 -2l64 -9l-54 44l-325 325q-7 7 0 13l29 29q6 7 13 0l326 -326l43 -53l-9 63l-1 274q0 8 8 8h41q10 0 10 -9v-407q0 -4 -3 -7t-7 -3l-405 2q-4 -1 -6.5 1.5t-2.5 6.5v41q0 9 9 9z" />
<glyph unicode="&#x2199;" horiz-adv-x="666" d="M155 470l-2 -270l-9 -64l44 54l325 325q7 7 13 0l29 -29q7 -6 0 -13l-326 -326l-53 -43l63 9l274 1q8 0 8 -8v-41q0 -10 -9 -10h-407q-4 0 -7 3t-3 7l1 405q-1 4 2 6.5t7 2.5h41q9 0 9 -9z" />
<glyph unicode="&#x2202;" horiz-adv-x="443" d="M342 323q-49 34 -120 34q-36 0 -56 -4.5t-33 -11.5t-18 -30t-6.5 -44.5t-1.5 -71.5q0 -36 1 -55t5 -38.5t11 -28t21 -15.5t32.5 -9t48.5 -2t47 1.5t32 9t21.5 17.5t11 33t5.5 48.5t1 71.5q0 71 -2 95zM292 456l-162 221q-6 8 1 13l43 26q6 5 11 -2l156 -211 q73 -101 73 -276q0 -127 -39.5 -184t-148.5 -57q-103 0 -147 51t-44 167q0 114 39 164t131 50q48 0 78.5 -16.5t56.5 -49.5q-9 50 -48 104z" />
<glyph unicode="&#x2206;" horiz-adv-x="452" d="M263 697l183 -685q0 -12 -7 -12h-426q-3 0 -5.5 4t-1.5 8l184 685q2 9 8 9h57q6 0 8 -9zM210 566l-126 -505h282l-128 505l-14 89z" />
<glyph unicode="&#x220f;" horiz-adv-x="520" d="M448 688v-679q0 -9 -7 -9h-53q-7 0 -7 9v628h-242v-628q0 -9 -7 -9h-53q-7 0 -7 9v679q0 9 7 9h362q7 0 7 -9z" />
<glyph unicode="&#x2211;" horiz-adv-x="446" d="M22 42l174 313l-164 300q-6 15 -6 21v11q0 10 8 10h384q8 0 8 -10v-40q0 -10 -8 -10h-302l155 -282l-163 -295h314q8 0 8 -10v-40q0 -10 -8 -10h-398q-8 0 -8 10v11q0 11 6 21z" />
<glyph unicode="&#x2212;" horiz-adv-x="435" d="M386 295h-336q-8 0 -8 9v43q0 9 8 9h336q7 0 7 -9v-43q0 -9 -7 -9z" />
<glyph unicode="&#x221a;" horiz-adv-x="392" d="M-18 505h103q10 0 12 -10l92 -365l13 -79l14 79l141 568q2 7 9 5l47 -12q7 -2 5 -11l-181 -671q-4 -9 -8 -9h-58q-4 0 -8 9l-119 441h-62q-8 0 -8 9v37q0 9 8 9z" />
<glyph unicode="&#x221e;" horiz-adv-x="618" d="M281 350q0 80 -23.5 110.5t-83.5 30.5q-53 0 -71 -28.5t-18 -112.5t18 -112.5t71 -28.5q60 0 83.5 31t23.5 110zM337 351q0 -80 23.5 -110.5t82.5 -30.5q53 0 71 28t18 113t-18 113t-71 28q-59 0 -82.5 -31t-23.5 -110zM309 275q-6 -75 -43 -100.5t-99 -25.5 q-72 0 -107.5 47.5t-35.5 153.5t35.5 154t107.5 48q62 0 99 -25.5t43 -100.5q6 75 42.5 100.5t98.5 25.5q73 0 108.5 -47.5t35.5 -153.5t-35.5 -154t-108.5 -48q-61 0 -98 25.5t-43 100.5z" />
<glyph unicode="&#x222b;" horiz-adv-x="250" d="M128 450v-478q0 -83 -32.5 -129t-89.5 -46q-8 0 -9 10l-6 43q-2 8 5 10q47 7 58.5 25.5t11.5 86.5v478h-43q-7 0 -7 9v37q0 9 7 9h43v47q0 89 33 129.5t87 40.5q40 0 80 -10q7 -4 4 -13l-14 -43q0 -9 -8 -6q-34 12 -62 12q-39 0 -48.5 -18.5t-9.5 -91.5v-47h116q7 0 7 -9 v-37q0 -9 -7 -9h-116z" />
<glyph unicode="&#x2248;" horiz-adv-x="490" d="M150 456q-44 0 -63 -73q-4 -11 -11 -4l-30 19q-5 5 -2 15q32 106 106 106q28 0 99 -43t91 -43q44 0 63 73q3 10 10 4l31 -19q4 -4 2 -15q-32 -106 -107 -106q-26 0 -98.5 43t-90.5 43zM150 259q-44 0 -63 -73q-4 -11 -11 -4l-30 19q-5 5 -2 15q32 106 106 106 q28 0 99 -43t91 -43q44 0 63 73q3 11 10 4l31 -19q4 -4 2 -15q-32 -106 -107 -106q-26 0 -98.5 43t-90.5 43z" />
<glyph unicode="&#x2260;" horiz-adv-x="478" d="M407 409h-100l-72 -163h172q7 0 7 -9v-43q0 -9 -7 -9h-200l-47 -107q-1 -4 -4 -5t-5 1l-44 20q-8 6 -3 12l34 79h-67q-7 0 -7 9v43q0 9 7 9h94l72 163h-166q-7 0 -7 9v43q0 9 7 9h193l46 104q5 7 10 4l44 -21q7 -5 3 -12l-33 -75h73q7 0 7 -9v-43q0 -9 -7 -9z" />
<glyph unicode="&#x2264;" horiz-adv-x="435" d="M363 633l-237 -231l237 -233q5 -5 -1 -12l-25 -28q-6 -4 -10 2l-265 250q-4 4 -4 11v18q0 7 4 10l265 250q4 8 10 2l25 -28q2 -2 2.5 -5.5t-1.5 -5.5zM386 0h-336q-8 0 -8 9v43q0 9 8 9h336q7 0 7 -9v-43q0 -9 -7 -9z" />
<glyph unicode="&#x2265;" horiz-adv-x="435" d="M309 402l-237 231q-2 2 -1.5 5.5t2.5 5.5l25 28q6 6 10 -2l265 -250q4 -3 4 -10v-18q0 -7 -4 -11l-265 -250q-4 -6 -10 -2l-25 28q-7 7 -1 12zM385 0h-336q-7 0 -7 9v43q0 9 7 9h336q8 0 8 -9v-43q0 -9 -8 -9z" />
<glyph unicode="&#x25ca;" horiz-adv-x="369" d="M222 688l128 -429q3 -7 0 -17l-129 -436q-4 -9 -8 -9h-58q-4 0 -8 9l-129 436q-2 10 0 18l130 428q4 9 8 9h58q4 0 8 -9zM186 -152l10 69l96 331l-100 329l-10 69l-9 -69l-96 -323l100 -337z" />
<glyph unicode="&#x25fc;" horiz-adv-x="520" d="M0 520h520v-520h-520v520z" />
<glyph unicode="&#xf6c3;" horiz-adv-x="205" d="M148 -73l-56 -155q-2 -11 -9 -11h-26q-7 0 -7 11l29 166q1 5 4.5 8.5t6.5 2.5l49 -8q11 -2 9 -14z" />
<glyph unicode="&#xf6c9;" horiz-adv-x="278" d="M251 855l-104 -112q-6 -4 -12 -1l-29 15q-3 1 -3.5 5.5t1.5 7.5l92 113q5 7 14 3l40 -16q4 -1 4 -6.5t-3 -8.5z" />
<glyph unicode="&#xf6ca;" horiz-adv-x="534" d="M299 747h-35q-11 0 -18 8l-80 84q-3 3 -1.5 7t4.5 6l29 22q4 3 11 -4l73 -79l73 79q6 8 10 4l29 -22q10 -5 4 -13l-81 -84q-7 -8 -18 -8z" />
<glyph unicode="&#xf6cb;" horiz-adv-x="269" d="M118 847q20 0 28.5 -7.5t8.5 -31.5q0 -26 -8.5 -34.5t-28.5 -8.5t-28.5 8.5t-8.5 34.5q0 24 8.5 31.5t28.5 7.5zM270 847q20 0 28 -7.5t8 -31.5q0 -26 -8 -34.5t-28 -8.5q-21 0 -29.5 8.5t-8.5 34.5q0 24 8.5 31.5t29.5 7.5z" />
<glyph unicode="&#xf6ce;" horiz-adv-x="278" d="M204 743l-104 112q-3 3 -3 8.5t4 6.5l40 16q8 4 13 -3l92 -113q2 -3 2 -7.5t-3 -5.5l-30 -15q-7 -3 -11 1z" />
<glyph unicode="&#xf6cf;" horiz-adv-x="505" d="M221 854l-88 -112q-3 -5 -9 -1l-26 15q-2 1 -2.5 5.5t1.5 7.5l78 113q3 7 11 3l34 -16q3 -1 3 -6.5t-2 -8.5zM342 854l-88 -112q-3 -5 -9 -1l-26 15q-2 1 -2.5 5.5t1.5 7.5l78 113q3 7 11 3l35 -16q3 -1 3 -6.5t-3 -8.5z" />
<glyph unicode="&#xf6d0;" horiz-adv-x="418" d="M301 771h-184q-7 0 -7 9v40q0 9 7 9h184q7 0 7 -9v-40q0 -9 -7 -9z" />
<glyph unicode="&#xf6f9;" horiz-adv-x="286" d="M-20 189l76 96v227q0 11 10 11h42q10 0 10 -11v-146l64 87q6 6 10 1l21 -28q3 -2 3 -6.5t-2 -6.5l-96 -129v-229h175q9 0 9 -12v-31q0 -12 -9 -12h-227q-10 0 -10 12v193l-44 -55q-2 -3 -6.5 -3.5t-6.5 2.5l-18 28q-7 7 -1 12z" />
<glyph unicode="&#xf6fa;" horiz-adv-x="598" d="M565 0h-276q-31 -14 -75 -14q-87 0 -126.5 58.5t-39.5 221.5q0 108 20 168t54 80.5t92 20.5q42 0 72 -12h279q10 0 10 -12v-32q0 -11 -10 -11h-219q29 -55 32 -164h152q10 0 10 -12v-30q0 -12 -10 -12h-151q-1 -133 -34 -195h220q10 0 10 -12v-31q0 -12 -10 -12zM214 48 q44 0 62.5 14t26.5 58.5t8 145.5q0 98 -8 140.5t-26.5 55.5t-62.5 13q-27 0 -42 -4t-27.5 -14.5t-18 -35t-8 -60t-2.5 -95.5q0 -101 8 -145.5t27 -58.5t63 -14z" />
<glyph unicode="&#xf6fd;" horiz-adv-x="350" d="M297 517q10 -3 6 -16l-7 -35q-4 -13 -13 -9q-41 19 -96 19q-58 0 -70.5 -16.5t-12.5 -77.5q0 -46 12.5 -62t65.5 -25q77 -13 105.5 -45.5t28.5 -105.5q0 -83 -38.5 -120.5t-117.5 -37.5q-68 0 -110 17q-10 4 -7 16l7 36q2 14 12 9q39 -17 97 -17q60 0 76 19t16 78 q0 48 -13.5 63.5t-63.5 24.5q-76 14 -106 46t-30 102q0 84 35 119.5t113 35.5q63 0 111 -18zM199 568h-35q-11 0 -18 8l-72 98q-3 3 -1.5 7t4.5 6l29 18q4 3 11 -4l65 -88l65 88q6 8 10 4l29 -18q10 -5 4 -13l-73 -98q-7 -8 -18 -8z" />
<glyph unicode="&#xf6ff;" horiz-adv-x="358" d="M30 39l222 429h-209q-7 0 -7 9v37q0 9 7 9h285q7 0 7 -9v-11q0 -9 -5 -19l-220 -429h219q7 0 7 -9v-37q0 -9 -7 -9h-298q-7 0 -7 9v11q0 11 6 19zM209 568h-35q-11 0 -18 8l-72 98q-3 3 -1.5 7t4.5 6l29 18q4 3 11 -4l65 -88l65 88q6 8 10 4l29 -18q10 -5 4 -13l-73 -98 q-7 -8 -18 -8z" />
<glyph unicode="&#xf721;" horiz-adv-x="265" d="M131 90q26 0 35 -9t9 -37q0 -31 -9.5 -41t-34.5 -10q-23 0 -32.5 10.5t-9.5 40.5q0 28 9 37t33 9zM169 514l-14 -333q0 -9 -7 -9h-32q-7 0 -7 9l-14 333q0 9 7 9h60q7 0 7 -9z" />
<glyph unicode="&#xf726;" horiz-adv-x="390" d="M204 535q53 0 93 -17q10 -5 7 -17l-11 -29q-3 -12 -12 -8q-39 17 -76 17q-43 0 -54 -12.5t-11 -59.5q0 -59 28 -99l94 -129l71 134q7 9 14 3l34 -22q4 -6 -1 -16l-80 -143l86 -111q4 -5 -3 -12l-30 -23q-1 -2 -5.5 -2t-7.5 4l-71 96l-33 -52q-33 -51 -94 -51 q-57 0 -83 35.5t-26 120.5q0 64 16.5 99t60.5 52q-32 51 -32 114q0 128 126 128zM233 130l-99 129q-22 -13 -29.5 -34.5t-7.5 -72.5q0 -72 8 -91t40 -19q23 0 32.5 5.5t18.5 20.5z" />
<glyph unicode="&#xf730;" horiz-adv-x="439" d="M224 -14q-92 0 -138 63t-46 213q0 149 46 211t138 62q91 0 133.5 -61.5t42.5 -211.5q0 -151 -42.5 -213.5t-133.5 -62.5zM224 475q-76 0 -96 -38t-20 -177q0 -134 20.5 -174t95.5 -40q74 0 91 38t17 176q0 142 -16.5 178.5t-91.5 36.5z" />
<glyph unicode="&#xf731;" horiz-adv-x="439" d="M77 422l138 96q7 5 16 5h52q7 0 7 -9v-505q0 -9 -7 -9h-53q-7 0 -7 9v445l-117 -83q-6 -5 -10 3l-21 36q-5 7 2 12z" />
<glyph unicode="&#xf732;" horiz-adv-x="439" d="M206 473q-65 0 -113 -25q-7 -3 -9 5l-12 43q-3 9 5 14q58 25 129 25q87 0 126 -41t39 -144q0 -74 -28 -121.5t-102 -102.5l-89 -66h214q8 0 8 -9v-42q0 -9 -8 -9h-296q-8 0 -8 11v36q0 10 6 16l139 109q67 52 81.5 81.5t14.5 94.5q0 80 -16 102.5t-81 22.5z" />
<glyph unicode="&#xf733;" horiz-adv-x="439" d="M192 161h-64q-7 0 -7 9v42q0 9 7 9h64q75 0 94 25.5t19 109.5q0 76 -19 97t-99 21q-69 0 -128 -23q-6 -3 -8 6l-12 42q-2 10 4 13q63 23 144 23q108 0 147.5 -40.5t39.5 -129.5q0 -156 -103 -169q114 -8 114 -183q0 -116 -45 -161t-157 -45q-71 0 -140 25q-6 3 -4 13 l15 43q2 8 8 6q55 -25 120 -25q47 0 71.5 4.5t39 22t17.5 42.5t3 77q0 96 -19.5 121t-101.5 25z" />
<glyph unicode="&#xf734;" horiz-adv-x="439" d="M355 514v-459h70q7 0 7 -9v-37q0 -9 -7 -9h-70v-178q0 -9 -7 -9h-50q-8 0 -8 9v178h-260q-7 0 -7 9v37q0 6 6 18l231 450q5 9 14 9h74q7 0 7 -9zM86 55h204v405z" />
<glyph unicode="&#xf735;" horiz-adv-x="439" d="M365 463h-235v-237h69q110 0 152.5 -42t42.5 -154q0 -121 -49 -169.5t-160 -48.5q-67 0 -134 25q-6 3 -4 13l14 43q0 9 8 6q57 -26 116 -26q34 0 55.5 2t38 9t24.5 15.5t13 28t6 38.5t1 55q0 37 -1 56.5t-5.5 39t-11 27t-22 14t-34 7.5t-50.5 1h-121q-14 0 -14 15v329 q0 5 3.5 9t7.5 4h290q7 0 7 -9v-42q0 -9 -7 -9z" />
<glyph unicode="&#xf736;" horiz-adv-x="439" d="M241 421q91 0 129 -51t38 -166q0 -116 -44 -167t-147 -51q-112 0 -148.5 75t-36.5 292q0 145 18.5 221.5t60.5 108t121 31.5q80 0 142 -23q6 -3 4 -13l-12 -42q-2 -9 -8 -6q-59 23 -126 23q-84 0 -107 -47.5t-23 -204.5v-46q51 66 139 66zM102 326q1 -69 2.5 -112 t7 -76.5t12 -49.5t21 -26.5t29.5 -12.5t43 -2q81 0 100.5 25.5t19.5 122.5q0 110 -18 137.5t-96 27.5q-72 0 -121 -34z" />
<glyph unicode="&#xf737;" horiz-adv-x="439" d="M104 -152l230 615h-299q-8 0 -8 10v40q0 10 8 10h368q8 0 8 -10v-14q0 -9 -5 -22l-239 -649q-2 -10 -10 -6l-48 13q-7 3 -5 13z" />
<glyph unicode="&#xf738;" horiz-adv-x="439" d="M220 47q83 0 101.5 22.5t18.5 120.5q0 42 -2 64.5t-8 43.5t-19.5 29.5t-35.5 13.5t-57 5q-79 0 -97.5 -28.5t-18.5 -127.5t17.5 -121t100.5 -22zM223 402q75 0 93 26t18 118q0 53 -6 72t-28.5 27t-79.5 8q-80 0 -97 -17t-17 -90q0 -92 19 -118t98 -26zM220 -14 q-99 0 -144.5 45t-45.5 155q0 87 28 135t102 54q-72 8 -97.5 51.5t-25.5 122.5q0 83 43.5 124t139.5 41q97 0 140.5 -41t43.5 -124q0 -80 -24.5 -122.5t-98.5 -49.5q40 -4 66.5 -19t40 -41.5t18.5 -57t5 -73.5q0 -110 -45 -155t-146 -45z" />
<glyph unicode="&#xf739;" horiz-adv-x="439" d="M340 198q2 24 2 95q0 68 -2.5 99.5t-16.5 52.5t-34.5 25t-65.5 4q-30 0 -48.5 -2t-32.5 -9t-21 -15.5t-11 -28t-5 -38.5t-1 -55q0 -50 1.5 -71.5t6.5 -44.5t18 -30t33 -11.5t56 -4.5q72 0 121 34zM125 -156l162 221q43 59 50 104q-49 -66 -135 -66q-92 0 -131 50t-39 164 q0 116 44 167t147 51q109 0 148 -56.5t39 -184.5q0 -176 -72 -276l-156 -211q-6 -7 -11 -2l-46 26q-6 6 0 13z" />
<glyph unicode="&#xf73f;" horiz-adv-x="356" d="M146 90q26 0 35 -9t9 -37q0 -31 -9.5 -41t-34.5 -10q-23 0 -32 10t-9 41q0 28 8.5 37t32.5 9zM240 373q0 56 -13.5 72t-70.5 16q-54 0 -103 -16q-6 -3 -8 5l-11 43q-3 8 4 10q60 16 118 16q82 0 117 -31.5t35 -112.5q0 -49 -16.5 -80t-57.5 -73l-85 -84q-5 -5 -11 -2 l-32 29q-5 5 -1 10l86 87q33 34 41 53t8 58z" />
<glyph unicode="&#xf761;" horiz-adv-x="359" d="M217 514l129 -497q4 -9 -4 -11l-49 -12q-7 -2 -9 5l-36 154h-139l-36 -154q-2 -7 -9 -5l-46 12q-9 2 -5 11l130 497q4 9 8 9h58q4 0 8 -9zM178 468l-58 -260h117z" />
<glyph unicode="&#xf762;" horiz-adv-x="408" d="M118 250v-195h128q29 0 39 18.5t10 74.5q0 60 -11 81t-41 21h-125zM247 0h-180q-11 0 -11 12v499q0 12 11 12h173q112 0 112 -130q0 -97 -68 -116q80 -21 80 -130q0 -71 -30.5 -109t-86.5 -38zM118 468v-164h122q26 0 35 17.5t9 66.5q0 47 -8.5 63.5t-35.5 16.5h-122z " />
<glyph unicode="&#xf763;" horiz-adv-x="356" d="M222 48q55 0 96 21q6 2 8 -6l15 -43q2 -10 -4 -13q-45 -21 -115 -21q-95 0 -134.5 62.5t-39.5 216.5q0 152 39.5 211t134.5 59q70 0 115 -21q6 -3 4 -13l-15 -43q-2 -8 -8 -6q-41 21 -96 21q-37 0 -56.5 -6.5t-31.5 -31t-15 -62t-3 -110.5q0 -76 3 -114.5t15 -63.5 t31 -31t57 -6z" />
<glyph unicode="&#xf764;" horiz-adv-x="408" d="M66 0q-10 0 -10 12v499q0 12 10 12h111q101 0 142 -56t41 -205q0 -148 -41 -205t-142 -57h-111zM177 468h-59v-413h59q77 0 97.5 37.5t20.5 169.5q0 59 -2.5 92t-8.5 58.5t-20.5 36t-33.5 15t-53 4.5z" />
<glyph unicode="&#xf765;" horiz-adv-x="328" d="M295 0h-229q-10 0 -10 12v499q0 12 10 12h229q11 0 11 -12v-32q0 -11 -11 -11h-177v-164h142q10 0 10 -12v-30q0 -12 -10 -12h-142v-195h177q11 0 11 -12v-31q0 -12 -11 -12z" />
<glyph unicode="&#xf766;" horiz-adv-x="314" d="M118 468v-184h142q10 0 10 -11v-34q0 -11 -10 -11h-142v-216q0 -12 -10 -12h-42q-10 0 -10 12v499q0 12 10 12h229q11 0 11 -12v-32q0 -11 -11 -11h-177z" />
<glyph unicode="&#xf767;" horiz-adv-x="402" d="M352 270v-243q0 -11 -10 -16q-58 -25 -120 -25q-65 0 -101 22.5t-54.5 83.5t-18.5 174q0 110 18.5 168.5t54.5 79.5t102 21q70 0 119 -18q10 -4 6 -16l-13 -38q-2 -13 -11 -9q-48 21 -100 21q-32 0 -48.5 -4t-30.5 -14t-19 -35.5t-7.5 -59.5t-2.5 -96q0 -46 1 -74.5 t3 -55t7.5 -40t12.5 -25t19.5 -16t27 -6.5t37.5 -2q34 0 66 8v215q0 10 9 10h44q9 0 9 -10z" />
<glyph unicode="&#xf768;" horiz-adv-x="419" d="M363 514v-505q0 -9 -7 -9h-48q-7 0 -7 9v242h-183v-242q0 -9 -7 -9h-48q-7 0 -7 9v505q0 9 7 9h48q7 0 7 -9v-209h183v209q0 9 7 9h48q7 0 7 -9z" />
<glyph unicode="&#xf769;" horiz-adv-x="174" d="M118 513v-503q0 -10 -8 -10h-46q-8 0 -8 10v503q0 10 8 10h46q8 0 8 -10z" />
<glyph unicode="&#xf76a;" horiz-adv-x="257" d="M205 513v-370q0 -81 -31.5 -119t-84.5 -38q-49 0 -88 19q-8 4 -5 14l11 34q1 5 4.5 8t7.5 1q32 -18 69 -18q36 0 45.5 17t9.5 82v370q0 10 8 10h46q8 0 8 -10z" />
<glyph unicode="&#xf76b;" horiz-adv-x="349" d="M118 514v-246l166 263q6 7 11 2l37 -24q5 -6 1 -13l-150 -226l160 -245q3 -8 -2 -13l-38 -25q-5 -5 -11 2l-174 276v-256q0 -9 -7 -9h-48q-7 0 -7 9v505q0 9 7 9h48q7 0 7 -9z" />
<glyph unicode="&#xf76c;" horiz-adv-x="286" d="M118 55h175q9 0 9 -12v-31q0 -12 -9 -12h-227q-10 0 -10 12v500q0 11 10 11h42q10 0 10 -11v-457z" />
<glyph unicode="&#xf76d;" horiz-adv-x="520" d="M395 400l-101 -352q-4 -9 -10 -9h-49q-7 0 -9 9l-100 350l-17 74l4 -79v-384q0 -9 -7 -9h-43q-7 0 -7 9v505q0 9 7 9h77q7 0 9 -9l101 -359l10 -51l10 51l101 359q4 9 9 9h77q7 0 7 -9v-505q0 -9 -7 -9h-43q-7 0 -7 9v388l4 75z" />
<glyph unicode="&#xf76e;" horiz-adv-x="419" d="M56 9v505q0 9 7 9h68q8 0 10 -9l138 -355l27 -81l-3 88v348q0 9 7 9h46q7 0 7 -9v-505q0 -9 -7 -9h-67q-8 0 -10 9l-141 358l-26 86l4 -93v-351q0 -9 -7 -9h-46q-7 0 -7 9z" />
<glyph unicode="&#xf76f;" horiz-adv-x="427" d="M214 48q44 0 62.5 14t26.5 58.5t8 145.5q0 98 -8 140.5t-26.5 55.5t-62.5 13q-27 0 -42 -4t-27.5 -14.5t-18 -35t-8 -60t-2.5 -95.5q0 -101 8 -145.5t27 -58.5t63 -14zM214 -14q-87 0 -126.5 58.5t-39.5 221.5q0 108 20 168t54 80.5t92 20.5q57 0 91 -20.5t54 -81 t20 -167.5q0 -84 -10.5 -139.5t-32.5 -86t-51 -42.5t-71 -12z" />
<glyph unicode="&#xf770;" horiz-adv-x="380" d="M118 468v-206h115q35 0 45 20t10 82q0 64 -10 84t-45 20h-115zM118 208v-199q0 -9 -7 -9h-48q-7 0 -7 9v502q0 12 11 12h166q61 0 92.5 -40.5t31.5 -113.5q0 -161 -124 -161h-115z" />
<glyph unicode="&#xf771;" horiz-adv-x="427" d="M379 266q0 -134 -27.5 -196.5t-83.5 -77.5l85 -122q4 -9 -1 -14l-30 -27q-6 -5 -11 2l-105 155q-55 2 -87.5 24.5t-51.5 84.5t-19 171q0 108 20 168t54 80.5t92 20.5q57 0 91 -20.5t54 -81t20 -167.5zM214 48q44 0 62.5 14t26.5 58.5t8 145.5q0 98 -8 140.5t-26.5 55.5 t-62.5 13q-27 0 -42 -4t-27.5 -14.5t-18 -35t-8 -60t-2.5 -95.5q0 -101 8 -145.5t27 -58.5t63 -14z" />
<glyph unicode="&#xf772;" horiz-adv-x="401" d="M118 228v-219q0 -9 -7 -9h-48q-7 0 -7 9v502q0 12 11 12h166q124 0 124 -142q0 -145 -111 -153l21 -30l89 -179q3 -7 -3 -13l-42 -18q-7 -5 -11 4l-111 236h-71zM118 468v-186h115q36 0 45.5 18t9.5 76q0 59 -10 75.5t-45 16.5h-115z" />
<glyph unicode="&#xf773;" horiz-adv-x="350" d="M297 517q10 -3 6 -16l-7 -35q-4 -13 -13 -9q-41 19 -96 19q-58 0 -70.5 -16.5t-12.5 -77.5q0 -46 12.5 -62t65.5 -25q77 -13 105.5 -45.5t28.5 -105.5q0 -83 -38.5 -120.5t-117.5 -37.5q-68 0 -110 17q-10 4 -7 16l7 36q2 14 12 9q39 -17 97 -17q60 0 76 19t16 78 q0 48 -13.5 63.5t-63.5 24.5q-76 14 -106 46t-30 102q0 84 35 119.5t113 35.5q63 0 111 -18z" />
<glyph unicode="&#xf774;" horiz-adv-x="348" d="M341 468h-136v-459q0 -9 -7 -9h-48q-7 0 -7 9v459h-136q-7 0 -7 9v37q0 9 7 9h334q7 0 7 -9v-37q0 -9 -7 -9z" />
<glyph unicode="&#xf775;" horiz-adv-x="403" d="M347 514v-328q0 -106 -33 -153t-112 -47q-80 0 -113 46.5t-33 153.5v328q0 9 7 9h48q7 0 7 -9v-328q0 -94 12.5 -117.5t71.5 -23.5q58 0 70.5 23.5t12.5 117.5v328q0 9 7 9h48q7 0 7 -9z" />
<glyph unicode="&#xf776;" horiz-adv-x="369" d="M147 9l-134 499q-4 9 5 11l47 12q7 2 9 -5l99 -392l13 -72l14 72l97 392q0 8 8 5l46 -12q9 -2 5 -11l-135 -499q-4 -9 -8 -9h-58q-4 0 -8 9z" />
<glyph unicode="&#xf777;" horiz-adv-x="571" d="M260 523h53q7 2 9 -5l80 -378l11 -86l13 86l72 386q2 7 9 5l47 -12q8 -2 4 -11l-111 -499q-2 -9 -8 -9h-60q-6 0 -8 9l-73 353l-12 93l-13 -93l-73 -353q-2 -9 -8 -9h-61q-4 0 -8 9l-110 499q-4 9 5 11l48 12q7 2 9 -5l74 -386l13 -86l12 86l77 378q2 7 9 5z" />
<glyph unicode="&#xf778;" horiz-adv-x="362" d="M16 24l136 240l-131 232q-5 7 1 13l42 23q2 2 5 1.5t4 -2.5l91 -172l17 -49l17 49l91 172q4 7 10 1l41 -23q6 -6 2 -13l-132 -232l136 -240q5 -7 -1 -13l-41 -23q-6 -6 -10 1l-92 173l-21 56l-20 -56l-93 -173q-1 -2 -4 -2.5t-5 1.5l-41 23q-6 5 -2 13z" />
<glyph unicode="&#xf779;" horiz-adv-x="324" d="M284 532l33 -21q6 -6 1 -16l-124 -241v-242q0 -12 -10 -12h-43q-9 0 -9 12v242l-126 241q-5 11 1 16l35 20q8 6 13 -2l92 -184l15 -45l16 45l93 184q5 9 13 3z" />
<glyph unicode="&#xf77a;" horiz-adv-x="358" d="M30 39l222 429h-209q-7 0 -7 9v37q0 9 7 9h285q7 0 7 -9v-11q0 -9 -5 -19l-220 -429h219q7 0 7 -9v-37q0 -9 -7 -9h-298q-7 0 -7 9v11q0 11 6 19z" />
<glyph unicode="&#xf7a1;" horiz-adv-x="265" d="M133 426q-26 0 -35 9t-9 37q0 31 9.5 41t34.5 10q23 0 32.5 -10.5t9.5 -40.5q0 -28 -9 -37t-33 -9zM95 2l14 333q0 9 7 9h32q7 0 7 -9l14 -333q0 -9 -7 -9h-60q-7 0 -7 9z" />
<glyph unicode="&#xf7bf;" horiz-adv-x="356" d="M194 422q-26 0 -35 9t-9 37q0 31 9.5 41t34.5 10q23 0 32 -10t9 -41q0 -28 -8.5 -37t-32.5 -9zM100 139q0 -56 13.5 -72t70.5 -16q54 0 103 16q6 3 8 -5l11 -43q3 -8 -4 -10q-60 -16 -118 -16q-82 0 -117 31.5t-35 112.5q0 49 16.5 80t57.5 73l85 84q5 5 11 2l32 -29 q5 -5 1 -10l-86 -87q-33 -34 -41 -53t-8 -58z" />
<glyph unicode="&#xf7e0;" horiz-adv-x="359" d="M217 514l129 -497q4 -9 -4 -11l-49 -12q-7 -2 -9 5l-36 154h-139l-36 -154q-2 -7 -9 -5l-46 12q-9 2 -5 11l130 497q4 9 8 9h58q4 0 8 -9zM178 468l-58 -260h117zM197 561l-95 112q-3 3 -3 8.5t4 6.5l37 21q8 4 13 -3l84 -115q2 -3 1.5 -7.5t-3.5 -5.5l-27 -18 q-7 -3 -11 1z" />
<glyph unicode="&#xf7e1;" horiz-adv-x="359" d="M217 514l129 -497q4 -9 -4 -11l-49 -12q-7 -2 -9 5l-36 154h-139l-36 -154q-2 -7 -9 -5l-46 12q-9 2 -5 11l130 497q4 9 8 9h58q4 0 8 -9zM178 468l-58 -260h117zM268 673l-95 -112q-6 -4 -12 -1l-21 18q-3 2 -5.5 6t-1.5 7l83 115q7 7 14 3l37 -21q4 -1 4 -6.5t-3 -8.5z " />
<glyph unicode="&#xf7e2;" horiz-adv-x="359" d="M217 514l129 -497q4 -9 -4 -11l-49 -12q-7 -2 -9 5l-36 154h-139l-36 -154q-2 -7 -9 -5l-46 12q-9 2 -5 11l130 497q4 9 8 9h58q4 0 8 -9zM178 468l-58 -260h117zM161 708h35q11 0 18 -8l73 -98q6 -8 -4 -13l-29 -18q-5 -3 -10 4l-65 88l-65 -88q-8 -7 -11 -4l-29 18 q-3 2 -4.5 6t1.5 7l72 98q7 8 18 8z" />
<glyph unicode="&#xf7e3;" horiz-adv-x="359" d="M217 514l129 -497q4 -9 -4 -11l-49 -12q-7 -2 -9 5l-36 154h-139l-36 -154q-2 -7 -9 -5l-46 12q-9 2 -5 11l130 497q4 9 8 9h58q4 0 8 -9zM178 468l-58 -260h117zM133 636q-12 0 -19.5 -10.5t-15.5 -37.5q-4 -10 -10 -4l-29 19q-5 5 -2 15q29 75 76 75q24 0 50 -27 t43 -27q14 0 21.5 10.5t14.5 37.5q4 11 11 4l28 -19q5 -5 2 -15q-29 -75 -77 -75q-23 0 -40 13.5t-29.5 27t-23.5 13.5z" />
<glyph unicode="&#xf7e4;" horiz-adv-x="359" d="M217 514l129 -497q4 -9 -4 -11l-49 -12q-7 -2 -9 5l-36 154h-139l-36 -154q-2 -7 -9 -5l-46 12q-9 2 -5 11l130 497q4 9 8 9h58q4 0 8 -9zM178 468l-58 -260h117zM105 667q20 0 28.5 -7.5t8.5 -31.5q0 -26 -8.5 -34.5t-28.5 -8.5q-21 0 -29.5 8.5t-8.5 34.5 q0 24 8.5 31.5t29.5 7.5zM248 667q20 0 28.5 -7.5t8.5 -31.5q0 -26 -8.5 -34.5t-28.5 -8.5t-28.5 8.5t-8.5 34.5q0 24 8.5 31.5t28.5 7.5z" />
<glyph unicode="&#xf7e5;" horiz-adv-x="359" d="M217 514l129 -497q4 -9 -4 -11l-49 -12q-7 -2 -9 5l-36 154h-139l-36 -154q-2 -7 -9 -5l-46 12q-9 2 -5 11l130 497q4 9 8 9h58q4 0 8 -9zM178 468l-58 -260h117zM178 738q88 0 88 -94t-88 -94q-87 0 -87 94q0 48 20 71t67 23zM178 695q-26 0 -32.5 -9.5t-6.5 -43.5 q0 -33 6.5 -42.5t32.5 -9.5q27 0 34 9.5t7 42.5q0 34 -7 43.5t-34 9.5z" />
<glyph unicode="&#xf7e6;" horiz-adv-x="499" d="M466 0h-228q-11 0 -11 12v141h-147l-77 -158q-3 -7 -11 -5l-42 18q-7 2 -2 11l251 495q5 9 11 9h256q11 0 11 -12v-32q0 -11 -11 -11h-177v-164h142q11 0 11 -12v-30q0 -12 -11 -12h-142v-195h177q11 0 11 -12v-31q0 -12 -11 -12zM200 403l-92 -195h119v264z" />
<glyph unicode="&#xf7e7;" horiz-adv-x="356" d="M132 -176l12 26q3 6 7 4q31 -14 66 -14q24 0 31.5 7t7.5 29q0 23 -12 28t-72 5q-3 0 -5 3.5t-1 7.5l22 68q-75 10 -107.5 73.5t-32.5 203.5q0 152 39.5 211t134.5 59q70 0 115 -21q6 -3 4 -13l-15 -43q-2 -8 -8 -6q-41 21 -96 21q-37 0 -56.5 -6.5t-31.5 -31t-15 -62 t-3 -110.5q0 -76 3 -114.5t15 -63.5t31 -31t57 -6q55 0 96 21q6 2 8 -6l15 -43q2 -10 -4 -13q-45 -21 -115 -21h-2v-38q54 0 74.5 -16t20.5 -54q0 -43 -21 -62t-74 -19q-60 0 -85 17q-3 2 -3 10z" />
<glyph unicode="&#xf7e8;" horiz-adv-x="328" d="M295 0h-229q-10 0 -10 12v499q0 12 10 12h229q11 0 11 -12v-32q0 -11 -11 -11h-177v-164h142q10 0 10 -12v-30q0 -12 -10 -12h-142v-195h177q11 0 11 -12v-31q0 -12 -11 -12zM198 561l-95 112q-3 3 -3 8.5t4 6.5l37 21q8 4 13 -3l84 -115q2 -3 1.5 -7.5t-3.5 -5.5 l-27 -18q-7 -3 -11 1z" />
<glyph unicode="&#xf7e9;" horiz-adv-x="328" d="M295 0h-229q-10 0 -10 12v499q0 12 10 12h229q11 0 11 -12v-32q0 -11 -11 -11h-177v-164h142q10 0 10 -12v-30q0 -12 -10 -12h-142v-195h177q11 0 11 -12v-31q0 -12 -11 -12zM266 673l-95 -112q-6 -4 -12 -1l-21 18q-3 2 -5.5 6t-1.5 7l83 115q7 7 14 3l37 -21 q4 -1 4 -6.5t-3 -8.5z" />
<glyph unicode="&#xf7ea;" horiz-adv-x="328" d="M295 0h-229q-10 0 -10 12v499q0 12 10 12h229q11 0 11 -12v-32q0 -11 -11 -11h-177v-164h142q10 0 10 -12v-30q0 -12 -10 -12h-142v-195h177q11 0 11 -12v-31q0 -12 -11 -12zM168 708h35q11 0 18 -8l73 -98q6 -8 -4 -13l-29 -18q-5 -3 -10 4l-65 88l-65 -88q-7 -7 -11 -4 l-29 18q-3 2 -4.5 6t1.5 7l72 98q7 8 18 8z" />
<glyph unicode="&#xf7eb;" horiz-adv-x="328" d="M295 0h-229q-10 0 -10 12v499q0 12 10 12h229q11 0 11 -12v-32q0 -11 -11 -11h-177v-164h142q10 0 10 -12v-30q0 -12 -10 -12h-142v-195h177q11 0 11 -12v-31q0 -12 -11 -12zM113 667q20 0 28.5 -7.5t8.5 -31.5q0 -26 -8.5 -34.5t-28.5 -8.5q-21 0 -29.5 8.5t-8.5 34.5 q0 24 8.5 31.5t29.5 7.5zM256 667q20 0 28.5 -7.5t8.5 -31.5q0 -26 -8.5 -34.5t-28.5 -8.5t-28.5 8.5t-8.5 34.5q0 24 8.5 31.5t28.5 7.5z" />
<glyph unicode="&#xf7ec;" horiz-adv-x="174" d="M118 513v-503q0 -10 -8 -10h-46q-8 0 -8 10v503q0 10 8 10h46q8 0 8 -10zM88 561l-95 112q-3 3 -3 8.5t4 6.5l37 21q8 4 13 -3l84 -115q2 -3 1.5 -7.5t-3.5 -5.5l-27 -18q-7 -3 -11 1z" />
<glyph unicode="&#xf7ed;" horiz-adv-x="174" d="M118 513v-503q0 -10 -8 -10h-46q-8 0 -8 10v503q0 10 8 10h46q8 0 8 -10zM176 673l-95 -112q-6 -4 -12 -1l-21 18q-3 2 -5.5 6t-1.5 7l83 115q7 7 14 3l37 -21q4 -1 4 -6.5t-3 -8.5z" />
<glyph unicode="&#xf7ee;" horiz-adv-x="174" d="M118 513v-503q0 -10 -8 -10h-46q-8 0 -8 10v503q0 10 8 10h46q8 0 8 -10zM69 708h35q11 0 18 -8l73 -98q6 -8 -4 -13l-29 -18q-5 -3 -10 4l-65 88l-65 -88q-8 -7 -11 -4l-29 18q-3 2 -4.5 6t1.5 7l72 98q7 8 18 8z" />
<glyph unicode="&#xf7ef;" horiz-adv-x="174" d="M118 513v-503q0 -10 -8 -10h-46q-8 0 -8 10v503q0 10 8 10h46q8 0 8 -10zM16 667q20 0 28.5 -7.5t8.5 -31.5q0 -26 -8.5 -34.5t-28.5 -8.5q-21 0 -29.5 8.5t-8.5 34.5q0 24 8.5 31.5t29.5 7.5zM159 667q20 0 28.5 -7.5t8.5 -31.5q0 -26 -8.5 -34.5t-28.5 -8.5t-28.5 8.5 t-8.5 34.5q0 24 8.5 31.5t28.5 7.5z" />
<glyph unicode="&#xf7f0;" horiz-adv-x="408" d="M66 0q-10 0 -10 12v237h-47q-7 0 -7 9v40q0 9 7 9h47v204q0 12 10 12h111q101 0 142 -56t41 -205q0 -148 -41 -205t-142 -57h-111zM193 249h-75v-194h59q77 0 97.5 37.5t20.5 169.5q0 59 -2.5 92t-8.5 58.5t-20.5 36t-33.5 15t-53 4.5h-59v-161h75q7 0 7 -9v-40 q0 -9 -7 -9z" />
<glyph unicode="&#xf7f1;" horiz-adv-x="419" d="M56 9v505q0 9 7 9h68q8 0 10 -9l138 -355l27 -81l-3 88v348q0 9 7 9h46q7 0 7 -9v-505q0 -9 -7 -9h-67q-8 0 -10 9l-141 358l-26 86l4 -93v-351q0 -9 -7 -9h-46q-7 0 -7 9zM164 636q-12 0 -19.5 -10.5t-15.5 -37.5q-3 -10 -10 -4l-29 19q-5 5 -2 15q29 75 76 75 q24 0 50 -27t43 -27q14 0 21.5 10.5t14.5 37.5q4 11 11 4l28 -19q5 -5 2 -15q-29 -75 -77 -75q-23 0 -40 13.5t-29.5 27t-23.5 13.5z" />
<glyph unicode="&#xf7f2;" horiz-adv-x="427" d="M214 48q44 0 62.5 14t26.5 58.5t8 145.5q0 98 -8 140.5t-26.5 55.5t-62.5 13q-27 0 -42 -4t-27.5 -14.5t-18 -35t-8 -60t-2.5 -95.5q0 -101 8 -145.5t27 -58.5t63 -14zM214 -14q-87 0 -126.5 58.5t-39.5 221.5q0 108 20 168t54 80.5t92 20.5q57 0 91 -20.5t54 -81 t20 -167.5q0 -84 -10.5 -139.5t-32.5 -86t-51 -42.5t-71 -12zM246 561l-95 112q-3 3 -3 8.5t4 6.5l37 21q8 4 13 -3l84 -115q2 -3 1.5 -7.5t-3.5 -5.5l-27 -18q-7 -3 -11 1z" />
<glyph unicode="&#xf7f3;" horiz-adv-x="427" d="M214 48q44 0 62.5 14t26.5 58.5t8 145.5q0 98 -8 140.5t-26.5 55.5t-62.5 13q-27 0 -42 -4t-27.5 -14.5t-18 -35t-8 -60t-2.5 -95.5q0 -101 8 -145.5t27 -58.5t63 -14zM214 -14q-87 0 -126.5 58.5t-39.5 221.5q0 108 20 168t54 80.5t92 20.5q57 0 91 -20.5t54 -81 t20 -167.5q0 -84 -10.5 -139.5t-32.5 -86t-51 -42.5t-71 -12zM291 673l-95 -112q-6 -4 -12 -1l-21 18q-3 2 -5.5 6t-1.5 7l83 115q7 7 14 3l37 -21q4 -1 4 -6.5t-3 -8.5z" />
<glyph unicode="&#xf7f4;" horiz-adv-x="427" d="M214 48q44 0 62.5 14t26.5 58.5t8 145.5q0 98 -8 140.5t-26.5 55.5t-62.5 13q-27 0 -42 -4t-27.5 -14.5t-18 -35t-8 -60t-2.5 -95.5q0 -101 8 -145.5t27 -58.5t63 -14zM214 -14q-87 0 -126.5 58.5t-39.5 221.5q0 108 20 168t54 80.5t92 20.5q57 0 91 -20.5t54 -81 t20 -167.5q0 -84 -10.5 -139.5t-32.5 -86t-51 -42.5t-71 -12zM195 708h35q11 0 18 -8l73 -98q6 -8 -4 -13l-29 -18q-5 -3 -10 4l-65 88l-65 -88q-8 -7 -11 -4l-29 18q-3 2 -4.5 6t1.5 7l72 98q7 8 18 8z" />
<glyph unicode="&#xf7f5;" horiz-adv-x="427" d="M214 48q44 0 62.5 14t26.5 58.5t8 145.5q0 98 -8 140.5t-26.5 55.5t-62.5 13q-27 0 -42 -4t-27.5 -14.5t-18 -35t-8 -60t-2.5 -95.5q0 -101 8 -145.5t27 -58.5t63 -14zM214 -14q-87 0 -126.5 58.5t-39.5 221.5q0 108 20 168t54 80.5t92 20.5q57 0 91 -20.5t54 -81 t20 -167.5q0 -84 -10.5 -139.5t-32.5 -86t-51 -42.5t-71 -12zM166 636q-12 0 -19.5 -10.5t-15.5 -37.5q-3 -10 -10 -4l-29 19q-5 5 -2 15q29 75 76 75q24 0 50 -27t43 -27q14 0 21.5 10.5t14.5 37.5q4 11 11 4l28 -19q5 -5 2 -15q-29 -75 -77 -75q-23 0 -40 13.5t-29.5 27 t-23.5 13.5z" />
</font>
</defs>
</svg>
